<svg width="42" height="42" viewBox="0 0 42 42" fill="none" xmlns="http://www.w3.org/2000/svg">
<path d="M21 42C15.3907 42 10.1172 39.8156 6.1507 35.8493C2.18441 31.8828 0 26.6093 0 21C0 15.3907 2.18441 10.1172 6.1507 6.1507C10.1172 2.18441 15.3907 0 21 0C26.6093 0 31.8828 2.18441 35.8493 6.1507C39.8156 10.1172 42 15.3907 42 21C42 26.6093 39.8156 31.8828 35.8493 35.8493C31.8828 39.8156 26.6093 42 21 42ZM21 2.46094C16.048 2.46094 11.3925 4.38933 7.89091 7.89091C4.38933 11.3925 2.46094 16.048 2.46094 21C2.46094 25.952 4.38933 30.6075 7.89091 34.1091C11.3925 37.6107 16.048 39.5391 21 39.5391C25.952 39.5391 30.6075 37.6107 34.1091 34.1091C37.6107 30.6075 39.5391 25.952 39.5391 21C39.5391 16.048 37.6107 11.3925 34.1091 7.89091C30.6075 4.38933 25.952 2.46094 21 2.46094Z" fill="#FF3D23"/>
<path d="M19.7695 4.9248H22.2305V8.20868H19.7695V4.9248Z" fill="#FF3D23"/>
<path d="M29.1704 11.0869L31.4921 8.76522L33.232 10.5051L30.9103 12.8268L29.1704 11.0869Z" fill="#FF3D23"/>
<path d="M33.7915 19.7695H37.0754V22.2305H33.7915V19.7695Z" fill="#FF3D23"/>
<path d="M29.1685 30.915L30.9083 29.1752L33.23 31.4969L31.4902 33.2367L29.1685 30.915Z" fill="#FF3D23"/>
<path d="M19.7695 33.791H22.2305V37.0749H19.7695V33.791Z" fill="#FF3D23"/>
<path d="M8.75879 31.4941L11.0805 29.1724L12.8204 30.9123L10.4987 33.234L8.75879 31.4941Z" fill="#FF3D23"/>
<path d="M4.9248 19.7695H8.20868V22.2305H4.9248V19.7695Z" fill="#FF3D23"/>
<path d="M8.76123 10.5039L10.5011 8.76402L12.8228 11.0857L11.0829 12.8256L8.76123 10.5039Z" fill="#FF3D23"/>
<path d="M29.6865 22.2304H19.7695V12.3135H22.2305V19.7695H29.6865V22.2304Z" fill="#FF3D23"/>
</svg>
