<svg width="22" height="22" viewBox="0 0 22 22" fill="none" xmlns="http://www.w3.org/2000/svg">
<path d="M11 22C8.0618 22 5.29947 20.8558 3.2218 18.7782C1.14421 16.7005 0 13.9382 0 11C0 8.0618 1.14421 5.29947 3.2218 3.2218C5.29947 1.14421 8.0618 0 11 0C13.9382 0 16.7005 1.14421 18.7782 3.2218C20.8558 5.29947 22 8.0618 22 11C22 13.9382 20.8558 16.7005 18.7782 18.7782C16.7005 20.8558 13.9382 22 11 22ZM11 1.28906C8.40611 1.28906 5.9675 2.29917 4.13334 4.13334C2.29917 5.9675 1.28906 8.40611 1.28906 11C1.28906 13.5939 2.29917 16.0325 4.13334 17.8667C5.9675 19.7008 8.40611 20.7109 11 20.7109C13.5939 20.7109 16.0325 19.7008 17.8667 17.8667C19.7008 16.0325 20.7109 13.5939 20.7109 11C20.7109 8.40611 19.7008 5.9675 17.8667 4.13334C16.0325 2.29917 13.5939 1.28906 11 1.28906Z" fill="#FF3D23"/>
<path d="M10.3555 2.57965H11.6445V4.29978H10.3555V2.57965Z" fill="#FF3D23"/>
<path d="M15.2798 5.80762L16.4959 4.59149L17.4073 5.50286L16.1912 6.71898L15.2798 5.80762Z" fill="#FF3D23"/>
<path d="M17.7002 10.3555H19.4203V11.6445H17.7002V10.3555Z" fill="#FF3D23"/>
<path d="M15.2788 16.1935L16.1902 15.2822L17.4063 16.4983L16.4949 17.4097L15.2788 16.1935Z" fill="#FF3D23"/>
<path d="M10.3555 17.7002H11.6445V19.4203H10.3555V17.7002Z" fill="#FF3D23"/>
<path d="M4.58789 16.4971L5.80402 15.281L6.71539 16.1924L5.49926 17.4085L4.58789 16.4971Z" fill="#FF3D23"/>
<path d="M2.57959 10.3555H4.29972V11.6445H2.57959V10.3555Z" fill="#FF3D23"/>
<path d="M4.58936 5.50174L5.50072 4.59037L6.71685 5.8065L5.80548 6.71787L4.58936 5.50174Z" fill="#FF3D23"/>
<path d="M15.55 11.6445H10.3555V6.44995H11.6445V10.3555H15.55V11.6445Z" fill="#FF3D23"/>
</svg>
