<svg width="28" height="28" viewBox="0 0 28 28" fill="none" xmlns="http://www.w3.org/2000/svg">
<path d="M14.0002 2.33334C17.17 2.33334 17.5655 2.345 18.8092 2.40334C20.0517 2.46167 20.8975 2.6565 21.6418 2.94584C22.4118 3.24217 23.0605 3.6435 23.7092 4.291C24.3024 4.87421 24.7614 5.57969 25.0543 6.35834C25.3425 7.1015 25.5385 7.9485 25.5968 9.191C25.6517 10.4347 25.6668 10.8302 25.6668 14C25.6668 17.1698 25.6552 17.5653 25.5968 18.809C25.5385 20.0515 25.3425 20.8973 25.0543 21.6417C24.7623 22.4207 24.3031 23.1264 23.7092 23.709C23.1258 24.302 22.4204 24.761 21.6418 25.0542C20.8987 25.3423 20.0517 25.5383 18.8092 25.5967C17.5655 25.6515 17.17 25.6667 14.0002 25.6667C10.8303 25.6667 10.4348 25.655 9.19116 25.5967C7.94866 25.5383 7.10283 25.3423 6.3585 25.0542C5.57954 24.7619 4.87394 24.3028 4.29116 23.709C3.6978 23.1259 3.23875 22.4204 2.946 21.6417C2.65666 20.8985 2.46183 20.0515 2.4035 18.809C2.34866 17.5653 2.3335 17.1698 2.3335 14C2.3335 10.8302 2.34516 10.4347 2.4035 9.191C2.46183 7.94734 2.65666 7.10267 2.946 6.35834C3.23794 5.57921 3.6971 4.87354 4.29116 4.291C4.87411 3.69744 5.57966 3.23835 6.3585 2.94584C7.10283 2.6565 7.9475 2.46167 9.19116 2.40334C10.4348 2.3485 10.8303 2.33334 14.0002 2.33334ZM14.0002 8.16667C12.4531 8.16667 10.9693 8.78125 9.87537 9.87521C8.78141 10.9692 8.16683 12.4529 8.16683 14C8.16683 15.5471 8.78141 17.0308 9.87537 18.1248C10.9693 19.2188 12.4531 19.8333 14.0002 19.8333C15.5473 19.8333 17.031 19.2188 18.125 18.1248C19.2189 17.0308 19.8335 15.5471 19.8335 14C19.8335 12.4529 19.2189 10.9692 18.125 9.87521C17.031 8.78125 15.5473 8.16667 14.0002 8.16667ZM21.5835 7.875C21.5835 7.48823 21.4299 7.1173 21.1564 6.84381C20.8829 6.57031 20.5119 6.41667 20.1252 6.41667C19.7384 6.41667 19.3675 6.57031 19.094 6.84381C18.8205 7.1173 18.6668 7.48823 18.6668 7.875C18.6668 8.26178 18.8205 8.63271 19.094 8.9062C19.3675 9.17969 19.7384 9.33334 20.1252 9.33334C20.5119 9.33334 20.8829 9.17969 21.1564 8.9062C21.4299 8.63271 21.5835 8.26178 21.5835 7.875ZM14.0002 10.5C14.9284 10.5 15.8187 10.8688 16.475 11.5251C17.1314 12.1815 17.5002 13.0717 17.5002 14C17.5002 14.9283 17.1314 15.8185 16.475 16.4749C15.8187 17.1313 14.9284 17.5 14.0002 17.5C13.0719 17.5 12.1817 17.1313 11.5253 16.4749C10.8689 15.8185 10.5002 14.9283 10.5002 14C10.5002 13.0717 10.8689 12.1815 11.5253 11.5251C12.1817 10.8688 13.0719 10.5 14.0002 10.5Z" fill="#2E2928"/>
</svg>
