<svg width="42" height="42" viewBox="0 0 42 42" fill="none" xmlns="http://www.w3.org/2000/svg">
<g clip-path="url(#clip0)">
<path d="M21 42L8.69619 29.6961C1.91182 22.9117 1.91182 11.8727 8.69619 5.08828C15.4806 -1.69609 26.5195 -1.69609 33.304 5.08828C40.0884 11.8727 40.0884 22.9117 33.304 29.6961L21 42ZM21 2.46012C17.1744 2.46012 13.3488 3.9163 10.4365 6.82866C4.61177 12.6534 4.61177 22.131 10.4365 27.9557L21 38.5191L31.5635 27.9557C37.3882 22.131 37.3882 12.6534 31.5635 6.82866C28.6512 3.9163 24.8256 2.46012 21 2.46012Z" fill="#FF3D23"/>
<path d="M21.0001 27.4128C15.477 27.4128 10.9836 22.9194 10.9836 17.3963C10.9836 11.8733 15.477 7.37988 21.0001 7.37988C26.5231 7.37988 31.0165 11.8733 31.0165 17.3963C31.0165 22.9194 26.5232 27.4128 21.0001 27.4128ZM21.0001 9.84117C16.8342 9.84117 13.4449 13.2304 13.4449 17.3963C13.4449 21.5623 16.8342 24.9515 21.0001 24.9515C25.166 24.9515 28.5553 21.5622 28.5553 17.3963C28.5553 13.2304 25.1661 9.84117 21.0001 9.84117Z" fill="#FF3D23"/>
</g>
<defs>
<clipPath id="clip0">
<rect width="42" height="42" fill="white"/>
</clipPath>
</defs>
</svg>
