<svg width="22" height="22" viewBox="0 0 22 22" fill="none" xmlns="http://www.w3.org/2000/svg">
<g clip-path="url(#clip0)">
<path d="M10.9998 22L4.55494 15.5551C1.00122 12.0014 1.00122 6.21901 4.55494 2.66529C8.10866 -0.88843 13.891 -0.88843 17.4447 2.66529C20.9985 6.21901 20.9985 12.0014 17.4447 15.5551L10.9998 22ZM10.9998 1.28863C8.99592 1.28863 6.99204 2.05139 5.46652 3.57692C2.41548 6.62796 2.41548 11.5924 5.46652 14.6435L10.9998 20.1767L16.5331 14.6435C19.5841 11.5924 19.5841 6.62796 16.5331 3.57692C15.0075 2.05139 13.0037 1.28863 10.9998 1.28863Z" fill="#FF3D23"/>
<path d="M10.9996 14.359C8.10662 14.359 5.75293 12.0053 5.75293 9.11226C5.75293 6.21923 8.10662 3.86554 10.9996 3.86554C13.8927 3.86554 16.2464 6.21923 16.2464 9.11226C16.2464 12.0053 13.8927 14.359 10.9996 14.359ZM10.9996 5.15479C8.81751 5.15479 7.04218 6.93012 7.04218 9.11226C7.04218 11.2944 8.81751 13.0697 10.9996 13.0697C13.1818 13.0697 14.9571 11.2944 14.9571 9.11226C14.9571 6.93008 13.1818 5.15479 10.9996 5.15479Z" fill="#FF3D23"/>
</g>
<defs>
<clipPath id="clip0">
<rect width="22" height="22" fill="white"/>
</clipPath>
</defs>
</svg>
