<svg width="64" height="64" viewBox="0 0 64 64" fill="none" xmlns="http://www.w3.org/2000/svg">
<path d="M59.7333 38.3999H4.2666V6.3999H59.7333V38.3999ZM6.39994 36.2666H57.5999V8.53324H6.39994V36.2666Z" fill="#FF3D23"/>
<path d="M16 41.6001H57.6V43.7334H16V41.6001Z" fill="#2E2928"/>
<path d="M12.8 40.5332H14.9334V44.7999H12.8V40.5332Z" fill="#2E2928"/>
<path d="M6.3999 41.6001H11.7332V43.7334H6.3999V41.6001Z" fill="#2E2928"/>
<path d="M24.5334 32.6594V12.1406L45.0517 22.4L24.5334 32.6594ZM26.6668 15.5927V29.2073L40.2819 22.4L26.6668 15.5927Z" fill="#FF3D23"/>
<path d="M60.8 2.1333H3.2C1.43281 2.1333 0 3.56611 0 5.3333V45.8666C0 47.6338 1.43281 49.0666 3.2 49.0666H22.4V55.4666H11.7333V61.8666H52.2667V55.4666H41.6V49.0666H60.8C62.5672 49.0666 64 47.6338 64 45.8666V5.3333C64 3.56611 62.5672 2.1333 60.8 2.1333ZM50.1333 57.6V59.7333H13.8667V57.6H50.1333ZM39.4667 55.4666H24.5333V49.0666H39.4667V55.4666ZM61.8667 45.8666C61.8667 46.4557 61.3891 46.9333 60.8 46.9333H3.2C2.61094 46.9333 2.13333 46.4557 2.13333 45.8666V5.3333C2.13333 4.74424 2.61094 4.26663 3.2 4.26663H60.8C61.3891 4.26663 61.8667 4.74424 61.8667 5.3333V45.8666Z" fill="#2E2928"/>
</svg>
