<svg width="64" height="64" viewBox="0 0 64 64" fill="none" xmlns="http://www.w3.org/2000/svg">
<path d="M8.5332 57.6001H29.8665V59.7334H8.5332V57.6001Z" fill="#2E2928"/>
<path d="M32 57.6001H34.1333V59.7334H32V57.6001Z" fill="#2E2928"/>
<path d="M36.2667 41.5998V53.3331H5.33333C4.17552 53.3373 3.05104 53.7216 2.13333 54.4274V22.3998C2.13698 19.4555 4.5224 17.0701 7.46667 17.0664H8.53333V30.7925L12.8 27.9466L17.0667 30.7904V17.0664H22.4V14.9331H7.46667C3.34531 14.9383 0.00520833 18.2784 0 22.3998V58.6664C0.00364584 61.6107 2.38906 63.9961 5.33333 63.9998H38.4V41.5998H36.2667ZM10.6667 17.0664H14.9333V26.8071L12.8 25.3862L10.6667 26.8091V17.0664ZM36.2667 61.8664H5.33333C3.56615 61.8664 2.13333 60.4336 2.13333 58.6664C2.13333 56.8993 3.56615 55.4664 5.33333 55.4664H36.2667V61.8664Z" fill="#2E2928"/>
<path d="M4.2666 57.6001H6.39993V59.7334H4.2666V57.6001Z" fill="#2E2928"/>
<path d="M43.7335 0C32.5402 0 23.4668 9.07344 23.4668 20.2667C23.4668 31.4599 32.5402 40.5333 43.7335 40.5333C54.9267 40.5333 64.0001 31.4599 64.0001 20.2667C63.9876 9.07865 54.9215 0.0125 43.7335 0ZM44.8001 13.8292C47.6949 13.7505 50.5631 13.2516 53.3142 12.3479C53.9439 14.5802 54.2975 16.8812 54.3684 19.2H44.8001V13.8292ZM42.6668 19.2H33.0986C33.1694 16.8812 33.523 14.5802 34.1527 12.3479C36.9038 13.2516 39.772 13.7505 42.6668 13.8292V19.2ZM30.9751 19.2H25.6418C25.8382 15.8266 26.9814 12.5766 28.9408 9.82292C29.9694 10.512 31.0585 11.1047 32.1954 11.5948C31.4616 14.0661 31.0512 16.6229 30.9751 19.2ZM30.9751 21.3333C31.0507 23.9104 31.46 26.4667 32.1934 28.9385C31.0564 29.4286 29.9673 30.0214 28.9387 30.7104C26.9793 27.9568 25.8361 24.7068 25.6397 21.3333H30.9751ZM33.0986 21.3333H42.6668V26.7042C39.772 26.7828 36.9038 27.2818 34.1527 28.1854C33.523 25.9531 33.1694 23.6521 33.0986 21.3333ZM44.8001 21.3333H54.3684C54.2975 23.6521 53.9439 25.9531 53.3142 28.1854C50.5631 27.2818 47.6949 26.7828 44.8001 26.7042V21.3333ZM56.4918 21.3333H61.8251C61.6288 24.7068 60.4855 27.9568 58.5262 30.7104C57.4975 30.0214 56.4085 29.4286 55.2715 28.9385C56.0053 26.4672 56.4158 23.9104 56.4918 21.3333ZM56.4918 19.2C56.4163 16.6229 56.0069 14.0667 55.2736 11.5948C56.4105 11.1047 57.4996 10.512 58.5283 9.82292C60.4876 12.5766 61.6309 15.8266 61.8272 19.2H56.4918ZM57.197 8.15052C56.3631 8.69792 55.4855 9.175 54.573 9.5776C53.7626 7.43385 52.5835 5.44844 51.0892 3.71094C53.4121 4.74948 55.4923 6.26146 57.197 8.15052ZM52.6444 10.3276C50.1095 11.1599 47.4673 11.6208 44.8001 11.6969V2.225C48.0793 2.78073 50.9204 5.875 52.6444 10.3276ZM42.6668 2.225V11.6969C39.9996 11.6208 37.3574 11.1599 34.8225 10.3276C36.5465 5.875 39.3876 2.78073 42.6668 2.225ZM36.3736 3.70677C34.8788 5.44427 33.7001 7.42969 32.8897 9.57344C31.9772 9.17083 31.0996 8.69375 30.2658 8.14635C31.9704 6.25729 34.0507 4.74531 36.3736 3.70677ZM30.2699 32.3828C31.1038 31.8354 31.9814 31.3583 32.8939 30.9557C33.7043 33.0995 34.8835 35.0849 36.3777 36.8224C34.0548 35.7839 31.9746 34.2719 30.2699 32.3828ZM34.8225 30.2057C37.3574 29.3734 39.9996 28.9125 42.6668 28.8365V38.3083C39.3876 37.7526 36.5465 34.6583 34.8225 30.2057ZM44.8001 38.3083V28.8365C47.4673 28.9125 50.1095 29.3734 52.6444 30.2057C50.9204 34.6583 48.0793 37.7526 44.8001 38.3083ZM51.0934 36.8266C52.5882 35.0891 53.7668 33.1036 54.5772 30.9599C55.4897 31.3625 56.3673 31.8396 57.2012 32.387C55.4965 34.276 53.4163 35.788 51.0934 36.8266Z" fill="#FF3D23"/>
<path d="M21.8293 0.0541992L20.321 1.56253L23.0252 4.2667H10.6668C7.72256 4.27035 5.33714 6.65576 5.3335 9.60003V12.8H7.46683V9.60003C7.46683 7.83285 8.89964 6.40003 10.6668 6.40003H23.0252L20.321 9.1042L21.8293 10.6125L27.1085 5.33337L21.8293 0.0541992Z" fill="#2E2928"/>
<path d="M55.4668 39.4668V54.4001C55.4668 56.1673 54.034 57.6001 52.2668 57.6001H44.1751L46.8793 54.896L45.371 53.3876L40.0918 58.6668L45.371 63.946L46.8793 62.4376L44.1751 59.7335H52.2668C55.2111 59.7298 57.5965 57.3444 57.6001 54.4001V39.4668H55.4668Z" fill="#2E2928"/>
<path d="M33.0666 51.2H6.3999V32H25.5999V34.1333H8.53324V49.0667H30.9332V39.4667H33.0666V51.2Z" fill="#2E2928"/>
<path d="M16 46.5259V36.6738L25.8516 41.5999L16 46.5259ZM18.1333 40.1259V43.0738L21.0818 41.5999L18.1333 40.1259Z" fill="#2E2928"/>
</svg>
