<svg width="64" height="64" viewBox="0 0 64 64" fill="none" xmlns="http://www.w3.org/2000/svg">
<path d="M61.15 44.9C60.6193 43.9828 59.7468 43.3132 58.7235 43.0377C57.7002 42.7622 56.6095 42.9032 55.69 43.43L45.94 49.06C45.4076 48.2622 44.6051 47.6834 43.68 47.43L28.76 43.44C27.6118 43.1302 26.4033 43.1198 25.25 43.41L20 44.72V44C20 43.7348 19.8946 43.4804 19.7071 43.2929C19.5196 43.1054 19.2652 43 19 43H16C16 42.7348 15.8946 42.4804 15.7071 42.2929C15.5196 42.1054 15.2652 42 15 42H3C2.73478 42 2.48043 42.1054 2.29289 42.2929C2.10536 42.4804 2 42.7348 2 43V61C2 61.2652 2.10536 61.5196 2.29289 61.7071C2.48043 61.8946 2.73478 62 3 62H15C15.2652 62 15.5196 61.8946 15.7071 61.7071C15.8946 61.5196 16 61.2652 16 61H19C19.2652 61 19.5196 60.8946 19.7071 60.7071C19.8946 60.5196 20 60.2652 20 60V59.62L21.29 60.26C22.2625 60.7441 23.3336 60.9973 24.42 61H39.39C40.6194 61.0027 41.8274 60.6782 42.89 60.06L59.69 50.36C60.6051 49.8272 61.2723 48.954 61.5458 47.931C61.8193 46.9081 61.6771 45.8184 61.15 44.9ZM14 60H4V44H14V60ZM18 59H16V45H18V59ZM58.69 48.63L41.89 58.33C41.1302 58.7697 40.2678 59.0008 39.39 59H24.42C23.6421 59.0016 22.8747 58.82 22.18 58.47L20 57.38V46.78L25.73 45.35C26.5546 45.1415 27.4189 45.1484 28.24 45.37L43.16 49.37C43.5439 49.4697 43.8892 49.6817 44.1518 49.9789C44.4143 50.2761 44.5821 50.645 44.6337 51.0382C44.6853 51.4314 44.6183 51.8311 44.4412 52.1859C44.2642 52.5408 43.9852 52.8347 43.64 53.03C43.4146 53.1629 43.1648 53.2492 42.9053 53.2835C42.6459 53.3179 42.3822 53.2997 42.13 53.23L30.2 50.03C29.9427 49.961 29.6686 49.9971 29.438 50.1303C29.2073 50.2634 29.039 50.4827 28.97 50.74C28.901 50.9973 28.9371 51.2714 29.0703 51.502C29.2034 51.7327 29.4227 51.901 29.68 51.97L41.61 55.16C41.9492 55.2513 42.2987 55.2984 42.65 55.3C43.3497 55.301 44.0368 55.1145 44.64 54.76C45.0971 54.4989 45.4977 54.1497 45.8187 53.7326C46.1397 53.3154 46.3747 52.8387 46.51 52.33C46.6209 51.8892 46.6581 51.433 46.62 50.98L56.69 45.17C57.1495 44.9149 57.6901 44.8485 58.1977 44.9847C58.7052 45.121 59.14 45.4492 59.41 45.9C59.6756 46.3577 59.7489 46.902 59.614 47.4137C59.479 47.9254 59.1468 48.3628 58.69 48.63Z" fill="#2E2928"/>
<path d="M42 29C42.5933 29 43.1734 28.8241 43.6667 28.4944C44.1601 28.1648 44.5446 27.6962 44.7716 27.148C44.9987 26.5999 45.0581 25.9967 44.9424 25.4147C44.8266 24.8328 44.5409 24.2982 44.1213 23.8787C43.7018 23.4591 43.1672 23.1734 42.5853 23.0576C42.0033 22.9419 41.4001 23.0013 40.852 23.2284C40.3038 23.4554 39.8352 23.8399 39.5056 24.3333C39.1759 24.8266 39 25.4067 39 26C39 26.7956 39.3161 27.5587 39.8787 28.1213C40.4413 28.6839 41.2044 29 42 29ZM42 25C42.1978 25 42.3911 25.0586 42.5556 25.1685C42.72 25.2784 42.8482 25.4346 42.9239 25.6173C42.9996 25.8 43.0194 26.0011 42.9808 26.1951C42.9422 26.3891 42.847 26.5673 42.7071 26.7071C42.5673 26.847 42.3891 26.9422 42.1951 26.9808C42.0011 27.0194 41.8 26.9996 41.6173 26.9239C41.4346 26.8482 41.2784 26.72 41.1685 26.5556C41.0587 26.3911 41 26.1978 41 26C41 25.7348 41.1054 25.4804 41.2929 25.2929C41.4804 25.1054 41.7348 25 42 25Z" fill="#FF3D23"/>
<path d="M61 2H36C35.7348 2 35.4804 2.10536 35.2929 2.29289C35.1054 2.48043 35 2.73478 35 3V17H30V9C30 8.73478 29.8946 8.48043 29.7071 8.29289C29.5196 8.10536 29.2652 8 29 8H7C6.73478 8 6.48043 8.10536 6.29289 8.29289C6.10536 8.48043 6 8.73478 6 9V23C6 23.2652 6.10536 23.5196 6.29289 23.7071C6.48043 23.8946 6.73478 24 7 24H22V40C22 40.2652 22.1054 40.5196 22.2929 40.7071C22.4804 40.8946 22.7348 41 23 41H57C57.2652 41 57.5196 40.8946 57.7071 40.7071C57.8946 40.5196 58 40.2652 58 40V22H61C61.2652 22 61.5196 21.8946 61.7071 21.7071C61.8946 21.5196 62 21.2652 62 21V3C62 2.73478 61.8946 2.48043 61.7071 2.29289C61.5196 2.10536 61.2652 2 61 2ZM9.8 22L15.555 17.294L16.732 18.256C17.0899 18.5471 17.5372 18.7061 17.9985 18.7061C18.4598 18.7061 18.9071 18.5471 19.265 18.256L20.441 17.294L26.2 22H9.8ZM28 20.891L22.021 16L28 11.11V20.891ZM18 16.708L9.8 10H26.2L18 16.708ZM13.979 16L8 20.891V11.11L13.979 16ZM45.507 39L43.279 35.961L48 29.667L55 39H45.507ZM43.026 39H24.974L34 26.691L43.026 39ZM56 37L48.8 27.4C48.7028 27.2819 48.5807 27.1867 48.4423 27.1214C48.304 27.0561 48.153 27.0223 48 27.0223C47.847 27.0223 47.696 27.0561 47.5577 27.1214C47.4193 27.1867 47.2972 27.2819 47.2 27.4L42.043 34.276L34.807 24.409C34.7098 24.2886 34.5869 24.1914 34.4472 24.1246C34.3076 24.0579 34.1548 24.0232 34 24.0232C33.8452 24.0232 33.6924 24.0579 33.5528 24.1246C33.4131 24.1914 33.2902 24.2886 33.193 24.409L24 36.945V24H29C29.2652 24 29.5196 23.8946 29.7071 23.7071C29.8946 23.5196 30 23.2652 30 23V19H35V21C35 21.2652 35.1054 21.5196 35.2929 21.7071C35.4804 21.8946 35.7348 22 36 22H56V37ZM60 20H37V4H60V20Z" fill="#FF3D23"/>
<path d="M44.474 16.851C44.619 16.9406 44.7845 16.9917 44.9548 16.9994C45.1251 17.0071 45.2945 16.9712 45.447 16.895L53.447 12.895C53.6134 12.812 53.7534 12.6844 53.8512 12.5263C53.9491 12.3682 54.0009 12.1859 54.0009 12C54.0009 11.814 53.9491 11.6318 53.8512 11.4737C53.7534 11.3156 53.6134 11.1879 53.447 11.105L45.447 7.10498C45.2945 7.02878 45.1251 6.99282 44.9548 7.00054C44.7845 7.00825 44.619 7.05937 44.474 7.14905C44.329 7.23872 44.2093 7.36397 44.1264 7.51291C44.0434 7.66184 43.9999 7.8295 44 7.99998V16C43.9999 16.1705 44.0434 16.3381 44.1264 16.4871C44.2093 16.636 44.329 16.7613 44.474 16.851ZM46 9.61798L50.764 12L46 14.382V9.61798Z" fill="#FF3D23"/>
</svg>
