<svg width="60" height="60" viewBox="0 0 60 60" fill="none" xmlns="http://www.w3.org/2000/svg">
<path d="M28.6652 22.7657H30.6594H32.6537C32.6537 24.58 30.6594 25.0287 30.6594 25.0287C30.6594 25.0287 28.6652 24.58 28.6652 22.7657ZM25.249 13.9462C24.3557 13.221 24.2526 11.2553 24.2423 10.6703C24.2384 10.4579 24.3208 10.2526 24.4698 10.1012C24.6188 9.9498 24.8217 9.8642 25.035 9.8642H29.7939C30.0253 9.8642 30.2441 9.96486 30.3955 10.1408C30.4097 10.1575 30.4129 10.1797 30.4256 10.1971H31.0082C31.0209 10.1797 31.024 10.1575 31.0383 10.1408C31.1881 9.96565 31.4084 9.8642 31.6399 9.8642H36.3996C36.6128 9.8642 36.8157 9.9498 36.9655 10.1012C37.1145 10.2526 37.1962 10.4579 37.1922 10.6711C37.1811 11.256 37.0781 13.221 36.1856 13.9462C35.6236 14.4028 34.7501 14.6865 33.9068 14.6865C33.0864 14.6865 32.3929 14.4218 31.9546 13.9415C31.5186 13.4643 31.2285 12.5369 31.0518 11.7823H30.382C30.2052 12.5369 29.9151 13.4643 29.4784 13.9415C29.0393 14.4218 28.3465 14.6865 27.5262 14.6865C26.6836 14.6865 25.8109 14.4028 25.249 13.9462ZM32.6061 11.4487C32.7607 12.0931 32.962 12.6923 33.1261 12.8722C33.2545 13.0133 33.5541 13.1013 33.9068 13.1013C34.3808 13.1013 34.9071 12.9427 35.1853 12.7161C35.3248 12.5837 35.4659 12.0542 35.5451 11.4487H32.6061ZM25.8894 11.4487C25.9687 12.0542 26.1105 12.5853 26.2508 12.7176C26.7328 13.11 28.0057 13.2027 28.3085 12.8714C28.4734 12.6907 28.6739 12.0923 28.8285 11.4487H25.8894ZM59.5807 45.8858V51.0838C59.5807 51.5213 59.2264 51.8764 58.788 51.8764L56.1312 51.8772V59.2074C56.1312 59.6449 55.7769 60 55.3385 60C54.9002 60 54.5459 59.6449 54.5459 59.2074V51.878L53.1715 51.8788V59.2074C53.1715 59.6449 52.8172 60 52.3789 60C51.9406 60 51.5863 59.6449 51.5863 59.2074V51.8788L8.41286 51.897V59.2066C8.41286 59.6441 8.05855 59.9992 7.62023 59.9992C7.18191 59.9992 6.82761 59.6441 6.82761 59.2066V51.8978L5.4532 51.8986V59.2074C5.4532 59.6449 5.0989 60 4.66058 60C4.22226 60 3.86795 59.6449 3.86795 59.2074V51.8994L1.21108 51.9002C1.00024 51.9002 0.798916 51.817 0.650696 51.6679C0.502475 51.5189 0.418457 51.3176 0.418457 51.1076V45.885C0.418457 45.7233 0.468392 45.5655 0.560337 45.4332L8.09026 34.5845C8.23848 34.3713 8.48102 34.2437 8.741 34.2437H11.4494V16.8425C11.4494 11.4011 16.5594 9.41002 19.2615 9.11675C19.6895 9.07157 20.0858 9.38307 20.1342 9.81823C20.1825 10.2534 19.8678 10.6441 19.4335 10.6933C19.1719 10.7226 13.0346 11.4708 13.0346 16.8425V18.0377H23.8857C23.2135 16.9392 22.7165 15.6194 22.5247 14.0485C21.7725 13.6062 20.3902 12.4743 20.4584 10.163C20.471 9.73976 20.5083 8.45174 21.4832 8.08397C21.6148 8.03403 21.7456 8.01263 21.8748 8.00629C22.5858 3.54857 26.4474 0 30.7157 0C30.7173 0 30.7189 0 30.7189 0C34.9871 0 38.848 3.54857 39.559 8.00708C39.6882 8.01263 39.819 8.03403 39.9498 8.08317C40.9239 8.45095 40.9619 9.73896 40.9754 10.163C41.0428 12.4751 39.6604 13.6062 38.909 14.0485C38.7172 15.6186 38.221 16.9392 37.5481 18.0377H48.4879V16.8425C48.4879 11.4708 42.3506 10.7218 42.089 10.6933C41.6547 10.6441 41.3408 10.2534 41.3884 9.81823C41.4359 9.38307 41.8314 9.07157 42.261 9.11675C44.9631 9.40923 50.0731 11.4003 50.0731 16.8425V31.7049H55.3409C55.5827 31.7049 55.8109 31.8151 55.9607 32.0038C56.1105 32.1924 56.1676 32.4397 56.1129 32.6751L54.7599 38.5627L59.4419 45.4387C59.5331 45.5711 59.5807 45.7264 59.5807 45.8858ZM54.3462 33.2902H39.7524L38.0142 41.91H52.3646L54.3462 33.2902ZM36.5454 41.1728L37.1494 38.1751H33.26L36.5454 41.1728ZM48.4887 23.0836H41.8029C42.5028 23.5885 43.2225 24.2075 43.9002 24.9581H48.4887V23.0836ZM45.1153 26.5434C45.4831 27.1117 45.8183 27.7355 46.1092 28.4179H48.4895V26.5434H45.1153ZM48.4887 31.7049V30.0032H46.6672C46.817 30.539 46.9375 31.1073 47.0271 31.7049H48.4887ZM24.0592 13.4722C24.5102 18.8454 28.7397 20.5844 30.7173 20.5844C32.6949 20.5844 36.9243 18.8462 37.3753 13.4722C37.4007 13.1671 37.5996 12.9031 37.8873 12.7961C37.9444 12.7731 39.448 12.1541 39.3902 10.2098C39.383 9.9601 39.3592 9.7889 39.3347 9.67714C39.2324 9.7453 39.1151 9.842 39.0279 9.93316C38.7283 10.2494 38.225 10.2637 37.9087 9.96486C37.5917 9.66525 37.5743 9.16669 37.8723 8.84805C37.9064 8.81159 37.9745 8.74501 38.0586 8.66892C37.6496 4.76287 34.3578 1.58525 30.7189 1.58525C30.7181 1.58525 30.7181 1.58525 30.7173 1.58525H30.7165C27.0768 1.58525 23.785 4.76129 23.3752 8.66813C23.4592 8.74422 23.5282 8.81159 23.5623 8.84805C23.8611 9.16748 23.8436 9.66921 23.5242 9.96882C23.2072 10.2668 22.7046 10.2518 22.4042 9.93157C22.3194 9.842 22.2013 9.7461 22.0999 9.67793C22.0753 9.79048 22.0507 9.9601 22.0444 10.2106C21.9865 12.1549 23.4901 12.7739 23.5543 12.8001C23.8341 12.9095 24.0347 13.1726 24.0592 13.4722ZM13.0354 19.623V21.4975H22.5826C23.1342 21.2225 23.483 21.0933 23.5004 21.087C23.5107 21.0838 23.521 21.0862 23.5306 21.083L23.5052 20.6114C23.4814 20.1738 23.8159 19.8005 24.2526 19.7767C24.6822 19.7498 25.0635 20.0875 25.0873 20.525L25.2498 23.491L27.049 22.6468C27.4477 22.4606 27.9177 22.6318 28.1032 23.0273C28.2887 23.4236 28.1191 23.8952 27.7227 24.0815L24.8598 25.425C24.7528 25.4749 24.6379 25.5003 24.5229 25.5003C24.3818 25.5003 24.2415 25.463 24.1163 25.3877C23.8896 25.253 23.7454 25.0136 23.7319 24.7505L23.6225 22.7483C21.9865 23.4672 16.1243 26.5727 15.7422 34.2445H20.4576V32.8978C20.4576 32.4603 20.8119 32.1052 21.2502 32.1052C21.6885 32.1052 22.0428 32.4603 22.0428 32.8978V34.2445H27.8234C28.1959 32.0814 29.3278 25.3457 29.4372 25.1824C30.0951 25.6414 30.661 25.704 30.661 25.704C30.661 25.704 31.2269 25.6414 31.8848 25.1824C31.9942 25.3457 33.1261 32.0814 33.4986 34.2445H37.9444L38.328 32.3406C38.401 31.9705 38.7259 31.7049 39.1032 31.7049H45.4046C44.3195 25.3513 39.1112 23.1739 37.7225 22.7071L37.6107 24.7505C37.5965 25.0136 37.453 25.2522 37.2263 25.3877C37.1019 25.4622 36.9608 25.5003 36.8197 25.5003C36.7048 25.5003 36.5898 25.4757 36.4828 25.425L33.6199 24.0815C33.2236 23.8952 33.0531 23.4236 33.2394 23.0273C33.4249 22.631 33.8941 22.4598 34.2936 22.6468L36.0936 23.491L36.2561 20.525C36.2791 20.0875 36.6516 19.7514 37.0908 19.7767C37.5283 19.8005 37.8628 20.1746 37.8382 20.6114L37.8128 21.0766C37.9444 21.1131 38.3748 21.2423 38.9828 21.4975H48.4903V19.623H36.3243C34.632 21.3525 32.446 22.1689 30.7181 22.1689C28.9902 22.1689 26.8041 21.3517 25.1118 19.623H13.0354ZM20.0422 23.0836H13.0346V24.9581H17.9711C18.6575 24.2162 19.3677 23.5948 20.0422 23.0836ZM13.0354 28.4179H15.5956C15.9261 27.7394 16.2979 27.1156 16.6958 26.5434H13.0354V28.4179ZM13.0354 34.2445H14.157C14.2291 32.6664 14.5145 31.2563 14.9449 30.0024H13.0354V34.2445ZM2.72658 45.0931H57.29L54.2772 40.6687L53.7691 42.8809C53.6867 43.2408 53.3657 43.496 52.9963 43.496H37.0464C36.9394 43.496 36.834 43.469 36.7341 43.4255C36.7008 43.4112 36.6746 43.3882 36.6429 43.3692C36.5985 43.3422 36.551 43.3248 36.5121 43.2883L30.6824 37.969C30.4407 37.7487 30.359 37.4023 30.4771 37.0972C30.5952 36.792 30.8893 36.5907 31.2166 36.5907H37.4704L37.6234 35.8305H9.15634L2.72658 45.0931ZM57.9954 50.2912V46.6784H2.0045V50.3149L4.66058 50.3141L57.9954 50.2912Z" fill="#2E2928"/>
</svg>
