<svg width="60" height="60" viewBox="0 0 60 60" fill="none" xmlns="http://www.w3.org/2000/svg">
<path d="M56.25 3.75H30V1.875H57.1875C57.4361 1.875 57.6746 1.97378 57.8504 2.14959C58.0262 2.3254 58.125 2.56386 58.125 2.8125V57.1875C58.125 57.4361 58.0262 57.6746 57.8504 57.8504C57.6746 58.0262 57.4361 58.125 57.1875 58.125H40.3125V56.25H56.25V3.75Z" fill="#2E2928"/>
<path d="M48.75 20.625H50.625C51.1221 20.6244 51.5987 20.4267 51.9502 20.0752C52.3017 19.7237 52.4994 19.2471 52.5 18.75H54.375C54.3739 19.7442 53.9784 20.6974 53.2754 21.4004C52.5724 22.1034 51.6192 22.4989 50.625 22.5V24.375H48.75V22.5C47.7554 22.5 46.8016 22.1049 46.0983 21.4016C45.3951 20.6984 45 19.7446 45 18.75C45 17.7554 45.3951 16.8016 46.0983 16.0984C46.8016 15.3951 47.7554 15 48.75 15H50.625C51.1223 15 51.5992 14.8025 51.9508 14.4508C52.3025 14.0992 52.5 13.6223 52.5 13.125C52.5 12.6277 52.3025 12.1508 51.9508 11.7992C51.5992 11.4475 51.1223 11.25 50.625 11.25H48.75C48.2529 11.2506 47.7763 11.4483 47.4248 11.7998C47.0733 12.1513 46.8756 12.6279 46.875 13.125H45C45.0011 12.1308 45.3966 11.1776 46.0996 10.4746C46.8026 9.77158 47.7558 9.37613 48.75 9.375V7.5H50.625V9.375C51.6196 9.375 52.5734 9.77009 53.2767 10.4733C53.9799 11.1766 54.375 12.1304 54.375 13.125C54.375 14.1196 53.9799 15.0734 53.2767 15.7766C52.5734 16.4799 51.6196 16.875 50.625 16.875H48.75C48.2527 16.875 47.7758 17.0725 47.4242 17.4242C47.0725 17.7758 46.875 18.2527 46.875 18.75C46.875 19.2473 47.0725 19.7242 47.4242 20.0758C47.7758 20.4275 48.2527 20.625 48.75 20.625Z" fill="#2E2928"/>
<path d="M35.625 8.4375H41.25V10.3125H35.625V8.4375Z" fill="#2E2928"/>
<path d="M30 8.4375H33.75V10.3125H30V8.4375Z" fill="#2E2928"/>
<path d="M31.875 13.125H43.125V15H31.875V13.125Z" fill="#2E2928"/>
<path d="M33.75 17.8125H43.125V19.6875H33.75V17.8125Z" fill="#2E2928"/>
<path d="M35.625 22.5H43.125V24.375H35.625V22.5Z" fill="#2E2928"/>
<path d="M34.6875 44.0625C34.4389 44.0625 34.2004 43.9637 34.0246 43.7879C33.8488 43.6121 33.75 43.3736 33.75 43.125V29.0625C33.75 28.8139 33.8488 28.5754 34.0246 28.3996C34.2004 28.2238 34.4389 28.125 34.6875 28.125H38.4375C38.6861 28.125 38.9246 28.2238 39.1004 28.3996C39.2762 28.5754 39.375 28.8139 39.375 29.0625V31.875H42.1875C42.4361 31.875 42.6746 31.9738 42.8504 32.1496C43.0262 32.3254 43.125 32.5639 43.125 32.8125V36.5625H45V34.6875C45 34.4389 45.0988 34.2004 45.2746 34.0246C45.4504 33.8488 45.6889 33.75 45.9375 33.75H49.6875C49.9361 33.75 50.1746 33.8488 50.3504 34.0246C50.5262 34.2004 50.625 34.4389 50.625 34.6875V36.5625H53.4375C53.6861 36.5625 53.9246 36.6613 54.1004 36.8371C54.2762 37.0129 54.375 37.2514 54.375 37.5V46.875C54.375 47.1236 54.2762 47.3621 54.1004 47.5379C53.9246 47.7137 53.6861 47.8125 53.4375 47.8125H36.5625V45.9375H52.5V44.0625H34.6875ZM37.5 30H35.625V42.1875H37.5V30ZM41.25 33.75H39.375V42.1875H41.25V33.75ZM45 38.4375H43.125V42.1875H45V38.4375ZM48.75 35.625H46.875V42.1875H48.75V35.625ZM52.5 38.4375H50.625V42.1875H52.5V38.4375Z" fill="#2E2928"/>
<path d="M1.73526 9.25152C1.61986 8.32818 1.70213 7.39086 1.97663 6.50174C2.25112 5.61263 2.71155 4.79205 3.32737 4.09446C3.9432 3.39687 4.70032 2.83822 5.54852 2.45557C6.39672 2.07291 7.3166 1.87501 8.24712 1.875H24.844C25.6252 1.87493 26.3808 2.15363 26.9749 2.66097C27.569 3.16831 27.9626 3.87098 28.0848 4.6426C28.2071 5.41422 28.05 6.20413 27.6418 6.87024C27.2336 7.53636 26.6011 8.03497 25.8581 8.27637L31.7632 19.243C31.8401 19.3858 31.8786 19.5462 31.875 19.7083C31.8714 19.8705 31.8258 20.029 31.7426 20.1682C31.6594 20.3075 31.5415 20.4228 31.4005 20.5029C31.2594 20.5829 31.0999 20.625 30.9377 20.625H27.1877V31.875C27.1877 32.1236 27.089 32.3621 26.9131 32.5379C26.7373 32.7137 26.4989 32.8125 26.2502 32.8125H17.8127V35.1233L29.2434 42.7437C31.8132 44.4508 33.971 46.7083 35.5604 49.3525C37.1499 51.9967 38.1311 54.9614 38.4331 58.0317L36.5674 58.2183C36.2925 55.4238 35.3995 52.7254 33.9528 50.3188C32.5062 47.9122 30.5422 45.8575 28.2033 44.3037L25.9384 42.7938C28.8833 47.4843 31.1823 52.5506 32.7732 57.8556L30.9773 58.3944C29.1827 52.4095 26.4605 46.7432 22.9099 41.602L22.5291 43.125L26.2223 57.8976L24.4032 58.3524L20.8988 44.3346L19.7339 44.7229L20.6232 58.0626L18.7523 58.1874L17.8382 44.4763L13.8993 40.5375L12.5345 42.1297C14.5812 46.4614 16.1647 50.9971 17.2587 55.6614L17.7878 57.9103L15.9627 58.3397L15.4336 56.0908C13.3989 47.3945 9.61737 39.2026 4.31871 32.013L3.75023 32.1709V50.9831L10.732 54.474C10.8509 54.5334 10.9558 54.6175 11.0397 54.7206C11.1237 54.8236 11.1847 54.9434 11.2188 55.0719C11.2529 55.2004 11.2593 55.3346 11.2376 55.4658C11.2159 55.5969 11.1665 55.7219 11.0928 55.8325L9.21776 58.645L7.6577 57.605L8.94361 55.6761L2.39347 52.401C2.23774 52.3232 2.10676 52.2035 2.01523 52.0554C1.92369 51.9073 1.87521 51.7366 1.87523 51.5625V31.4583C1.87523 31.2534 1.94237 31.0542 2.06636 30.891C2.19036 30.7279 2.36438 30.6099 2.56181 30.555L3.75023 30.2249V25.3706L1.73526 9.25152ZM24.844 3.75H8.24712C7.58247 3.75002 6.92542 3.89139 6.31956 4.16472C5.7137 4.43805 5.1729 4.83709 4.73303 5.33537C4.29316 5.83365 3.96428 6.41977 3.76821 7.05485C3.57214 7.68993 3.51337 8.35945 3.59579 9.01897L5.35009 23.0533L8.26252 19.5583L6.66172 16.3568C6.60373 16.2408 6.57043 16.1141 6.56393 15.9846C6.55742 15.855 6.57786 15.7256 6.62394 15.6044C6.67002 15.4832 6.74075 15.3728 6.83165 15.2803C6.92254 15.1879 7.03164 15.1152 7.15204 15.0671L11.8395 13.1921C12.0233 13.1184 12.2257 13.1049 12.4177 13.1535C12.6096 13.2021 12.7812 13.3102 12.9079 13.4624L15.9377 17.098V7.5C15.9377 7.25136 16.0365 7.01291 16.2123 6.83709C16.3881 6.66128 16.6266 6.5625 16.8752 6.5625H24.3752C24.5399 6.56272 24.7016 6.60637 24.844 6.68904V6.5625C25.2169 6.5625 25.5746 6.41434 25.8384 6.15062C26.1021 5.8869 26.2502 5.52921 26.2502 5.15625C26.2502 4.78329 26.1021 4.4256 25.8384 4.16188C25.5746 3.89816 25.2169 3.75 24.844 3.75ZM25.3127 30.9375V19.6875C25.3127 19.4389 25.4115 19.2004 25.5873 19.0246C25.7631 18.8488 26.0016 18.75 26.2502 18.75H29.3682L23.8153 8.4375H17.8127V19.6875C17.8127 19.8802 17.7534 20.0682 17.6428 20.2259C17.5321 20.3836 17.3756 20.5035 17.1944 20.569C17.0132 20.6346 16.8163 20.6428 16.6303 20.5924C16.4443 20.5421 16.2784 20.4357 16.1551 20.2876L11.9035 15.1859L8.79438 16.4296L10.2137 19.2682C10.2953 19.4312 10.3275 19.6145 10.3065 19.7955C10.2855 19.9766 10.2121 20.1476 10.0954 20.2876L5.62523 25.6519V30.6284C6.60973 31.9534 7.54249 33.3065 8.42351 34.6875H15.9377V32.2634L10.5873 26.913L11.9131 25.587L17.2636 30.9375H25.3127ZM19.0034 42.9898L20.7781 42.3983L21.4305 39.7885L17.0464 36.8658L15.1232 39.1096L19.0034 42.9898ZM14.8369 36.5625H9.57528C10.3018 37.7879 10.9882 39.0333 11.6344 40.2988L14.8369 36.5625Z" fill="#2E2928"/>
<path d="M21.5625 13.125H23.4375C23.6861 13.125 23.9246 13.2238 24.1004 13.3996C24.2762 13.5754 24.375 13.8139 24.375 14.0625C24.375 14.3111 24.2762 14.5496 24.1004 14.7254C23.9246 14.9012 23.6861 15 23.4375 15H21.5625C21.3139 15 21.0754 14.9012 20.8996 14.7254C20.7238 14.5496 20.625 14.3111 20.625 14.0625C20.625 13.8139 20.7238 13.5754 20.8996 13.3996C21.0754 13.2238 21.3139 13.125 21.5625 13.125Z" fill="#2E2928"/>
</svg>
