<svg width="60" height="60" viewBox="0 0 60 60" fill="none" xmlns="http://www.w3.org/2000/svg">
<path d="M57 30H35C33.3433 30 32 31.3433 32 33V46C32 47.6567 33.3433 49 35 49H43V52H39V54H30V48.5801C29.9897 45.4268 27.8823 42.6655 24.8428 41.8252L19 40.2358V38.7358C20.8784 37.4302 21.9985 35.2876 22 33V32C22.5522 32 23 31.5522 23 31V28C22.9951 23.584 19.416 20.0049 15 20H6C4.89551 20 4 20.8955 4 22V27C3.99365 29.2734 5.52832 31.2627 7.729 31.833C7.81787 31.8579 7.91016 31.8691 8 31.8882V33C8.00146 35.2876 9.12158 37.4302 11 38.7358V40.2358L5.15381 41.8262C2.11621 42.6675 0.00976562 45.4277 0 48.5801V59C0 59.5522 0.447754 60 1 60H59C59.5522 60 60 59.5522 60 59V55C60 54.4478 59.5522 54 59 54H53V52H49V49H57C58.6567 49 60 47.6567 60 46V33C60 31.3433 58.6567 30 57 30ZM6 27V22H15C18.3125 22.0034 20.9966 24.6875 21 28V30H20.3398C19.4243 29.998 18.626 29.3765 18.3999 28.4888L17.9702 26.7588C17.877 26.3848 17.5771 26.0972 17.1992 26.02C17.1333 26.0063 17.0669 26 17 26C16.6851 26 16.3887 26.1484 16.2002 26.3999L15.6001 27.2002C15.2427 27.6704 14.8291 28.0962 14.3691 28.4668C13.1294 29.46 11.5884 30.001 10 30H9C8.74561 30.0024 8.49219 29.9688 8.24707 29.8999C6.92285 29.5615 5.99707 28.3667 6 27ZM10 33V32C12.0474 31.9995 14.0332 31.3003 15.6289 30.0181C15.9443 29.7627 16.2432 29.4878 16.5229 29.1938C17.0122 30.7388 18.3853 31.8359 20 31.9722V33C20 35.7612 17.7612 38 15 38C12.2388 38 10 35.7612 10 33ZM15 40C15.6777 39.998 16.3516 39.897 17 39.7002V41C17.0034 41.2866 17.1304 41.5576 17.3491 41.7432L15 43.7002L12.6509 41.7441C12.8696 41.5586 12.9971 41.2871 13 41V39.7002C13.6484 39.897 14.3223 39.998 15 40ZM5.68311 43.7549L10.3999 42.4712L14.3599 45.771C14.731 46.0796 15.269 46.0796 15.6401 45.771L19.6001 42.4712L24.314 43.7539C26.4854 44.3545 27.9917 46.3271 28 48.5801V54H25V49H23V54H7V49H5V54H2V48.5801C2.00732 46.3281 3.5127 44.356 5.68311 43.7549ZM58 56V58H2V56H58ZM45 52V41H47V52H45ZM58 46C58 46.5522 57.5522 47 57 47H49V40C49 39.4478 48.5522 39 48 39H44C43.4478 39 43 39.4478 43 40V47H35C34.4478 47 34 46.5522 34 46V33C34 32.4478 34.4478 32 35 32H57C57.5522 32 58 32.4478 58 33V46Z" fill="#2E2928"/>
<path d="M57 0H39C37.3433 0 36 1.34326 36 3V4H35C33.3433 4 32 5.34326 32 7V21C32 22.6567 33.3433 24 35 24H53C54.6567 24 56 22.6567 56 21V20H57C58.6567 20 60 18.6567 60 17V3C60 1.34326 58.6567 0 57 0ZM35 6H53C53.5522 6 54 6.44775 54 7V8H34V7C34 6.44775 34.4478 6 35 6ZM53 22H35C34.4478 22 34 21.5522 34 21V10H54V21C54 21.5522 53.5522 22 53 22ZM58 17C58 17.5522 57.5522 18 57 18H56V7C56 5.34326 54.6567 4 53 4H38V3C38 2.44775 38.4478 2 39 2H57C57.5522 2 58 2.44775 58 3V17Z" fill="#2E2928"/>
<path d="M43 14H45V16H43V14Z" fill="#2E2928"/>
<path d="M47 14H49V16H47V14Z" fill="#2E2928"/>
<path d="M39 14H41V16H39V14Z" fill="#2E2928"/>
<path d="M6 4H10V6H6V4Z" fill="#2E2928"/>
<path d="M12 4H24V6H12V4Z" fill="#2E2928"/>
<path d="M7 12H11V14H7V12Z" fill="#2E2928"/>
<path d="M13 12H25V14H13V12Z" fill="#2E2928"/>
<path d="M8 8H12V10H8V8Z" fill="#2E2928"/>
<path d="M14 8H26V10H14V8Z" fill="#2E2928"/>
</svg>
