<svg width="60" height="60" viewBox="0 0 60 60" fill="none" xmlns="http://www.w3.org/2000/svg">
<path d="M3.61229 0.0182903L9.23779 4.22913L14.8952 17.4195H19.4446L21.231 13.5485H20.0638C17.9289 13.5485 16.1928 11.8308 16.1928 9.69591V5.80637H14.2573V0H20.0638V5.80637H18.1283V9.69591C18.1283 10.7624 18.9963 11.6129 20.0638 11.6129H22.1241L24.5978 6.26139L21.6346 4.78455L31.3372 0.628984L33.6182 8.6119C33.6802 3.86231 37.5579 0.0174774 42.3221 0.0174774C47.125 0.0174774 51.0318 3.92429 51.0318 8.72713C51.0318 11.6294 49.5619 14.3516 47.1608 15.961V17.4193H49.5046L49.6556 18.2129C50.1258 20.6526 50.1695 23.16 49.7852 25.6607L56.3872 37.4285L49.0963 39.094V51.2903H39.4189V60H16.193V46.5145C9.41886 41.7223 5.54985 34.0172 5.55554 25.7971L5.5535 22.2668C5.5535 20.9361 5.67646 19.5688 5.92419 18.2216L6.06746 17.4193H7.96722L3.61229 6.98609V0.0182903ZM18.1285 3.88934V1.95381H16.193V3.88934H18.1285ZM21.5764 17.4193H25.2471L27.0064 13.5483H23.3628L21.5764 17.4193ZM30.081 3.2758L26.2342 4.92396L27.142 5.36902L24.2562 11.6129H27.8862L30.2446 6.43657L31.1108 6.87391L30.081 3.2758ZM27.3733 17.4195H31.6768V15.5025C31.6768 14.4351 30.8088 13.5487 29.7412 13.5487H29.1326V13.5485L27.3733 17.4195ZM31.1736 9.07444L29.9997 11.6574C32.0127 11.793 33.6123 13.4556 33.6123 15.5023V17.4193H37.4833V15.961C35.5468 14.6632 34.2327 12.6378 33.7895 10.382L31.1736 9.07444ZM49.0961 8.72814C49.0961 4.99367 46.0564 1.95402 42.3219 1.95402C38.5875 1.95402 35.5478 4.99367 35.5478 8.72814C35.5478 11.1321 36.8464 13.3782 38.9358 14.5888L39.4187 14.8674V17.4193H41.3542V11.4522C40.2305 11.0516 39.4187 9.98693 39.4187 8.72693C39.4187 7.12632 40.7213 5.82364 42.3219 5.82364C43.9226 5.82364 45.2252 7.12652 45.2252 8.72713C45.2252 9.98713 44.4133 11.0516 43.2897 11.4524V17.4195H45.2252V14.8674L45.7081 14.5878C47.7975 13.3771 49.0961 11.1319 49.0961 8.72814ZM42.3219 9.69591C42.8562 9.69591 43.2897 9.26121 43.2897 8.72814C43.2897 8.19386 42.8562 7.76038 42.3219 7.76038C41.7877 7.76038 41.3542 8.19386 41.3542 8.72814C41.3542 9.26243 41.7877 9.69591 42.3219 9.69591ZM7.69632 19.355C7.55589 20.3226 7.48517 21.304 7.48517 22.2581L7.48313 25.7953C7.47724 33.5479 11.3028 40.8078 17.7026 45.2139L18.1283 45.5043V58.0647H37.4831V49.355H47.1608V37.5504L53.4327 36.1191L47.7676 26.0188L47.8227 25.6733C48.1826 23.5559 48.2029 21.2903 47.8903 19.355H47.1608H37.4833H7.69632ZM10.0643 17.4193H12.7904L7.9662 6.17217L5.82075 7.24053L10.0643 17.4193ZM5.54782 5.22575L6.61821 4.69066L5.54782 3.88934V5.22575Z" fill="#2E2928"/>
<path d="M40.3863 25.1613C41.9869 25.1613 43.2896 24.1936 43.2896 22.2581H45.2251C45.2251 25.1613 43.0544 27.0969 40.3863 27.0969C37.7181 27.0969 35.5475 25.1613 35.5475 22.2581H37.483C37.4832 24.1936 38.7857 25.1613 40.3863 25.1613Z" fill="#2E2928"/>
</svg>
