<svg width="64" height="64" viewBox="0 0 64 64" fill="none" xmlns="http://www.w3.org/2000/svg">
<g>
<path d="M46 19C45.448 19 45 18.551 45 18H43C43 19.654 44.346 21 46 21V23H48V21H51V18C51 16.346 49.654 15 48 15H46C45.448 15 45 14.551 45 14V13H48C48.552 13 49 13.449 49 14H51C51 12.346 49.654 11 48 11V9H46V11H43V14C43 15.654 44.346 17 46 17H48C48.552 17 49 17.449 49 18V19H46Z" fill="#2E2928"/>
<path d="M48 61H46V49H38V61H36V43H28V61H24.974C25.609 60.162 26 59.13 26 58V32C26 31.605 25.919 31.23 25.78 30.884C25.955 30.836 26.124 30.776 26.286 30.699L41 45.414L46 40.414L51.586 46L47.919 49.667L63.217 52.217L60.667 36.919L57 40.586L46 29.586L41 34.586L30.308 23.893C30.734 23.375 31 22.721 31 22V21H33V22C33 23.654 34.346 25 36 25H38C38.7 25 39.336 24.749 39.847 24.346C41.84 26.064 44.341 27 47 27C53.065 27 58 22.065 58 16C58 9.935 53.065 5 47 5C44.841 5 42.772 5.624 41 6.783V4C41 2.346 39.654 1 38 1H36C34.346 1 33 2.346 33 4V5H31V4C31 2.346 29.654 1 28 1H14C12.346 1 11 2.346 11 4V5H9V4C9 2.346 7.654 1 6 1H4C2.346 1 1 2.346 1 4V22C1 23.654 2.346 25 4 25H6C7.654 25 9 23.654 9 22V21H11V22C11 23.654 12.346 25 14 25V28C14 29.383 14.945 30.539 16.22 30.884C16.081 31.23 16 31.605 16 32V58C16 60.757 18.243 63 21 63H56V53H48V61ZM40 51H44V61H40V51ZM30 45H34V61H30V45ZM46 32.414L57 43.414L59.333 41.081L60.783 49.783L52.081 48.333L54.414 46L46 37.586L41 42.586L27.699 29.285C27.887 28.894 28 28.462 28 28V25C28.182 25 28.359 24.977 28.533 24.946L41 37.414L46 32.414ZM47 7C51.963 7 56 11.038 56 16C56 20.962 51.963 25 47 25C44.727 25 42.598 24.155 40.933 22.623C40.976 22.422 41 22.214 41 22V9.311C42.655 7.823 44.766 7 47 7ZM35 4C35 3.449 35.448 3 36 3H38C38.552 3 39 3.449 39 4V22C39 22.551 38.552 23 38 23H36C35.448 23 35 22.551 35 22V4ZM33 7V19H31V7H33ZM7 22C7 22.551 6.552 23 6 23H4C3.448 23 3 22.551 3 22V4C3 3.449 3.448 3 4 3H6C6.552 3 7 3.449 7 4V22ZM9 19V7H11V19H9ZM13 22V4C13 3.449 13.448 3 14 3H28C28.552 3 29 3.449 29 4V22C29 22.551 28.552 23 28 23H14C13.448 23 13 22.551 13 22ZM16 25H26V28C26 28.551 25.552 29 25 29H23H19H17C16.448 29 16 28.551 16 28V25ZM18 58V32C18 31.449 18.448 31 19 31H23C23.552 31 24 31.449 24 32V58C24 59.654 22.654 61 21 61C19.346 61 18 59.654 18 58ZM50 55H54V61H50V55Z" fill="#2E2928"/>
</g>
</svg>
