<svg width="64" height="64" viewBox="0 0 64 64" fill="none" xmlns="http://www.w3.org/2000/svg">
<path d="M31 19C30.449 19 30 18.551 30 18H28C28 19.654 29.346 21 31 21V23H33V21H36V18C36 16.346 34.654 15 33 15H31C30.449 15 30 14.551 30 14V13H33C33.551 13 34 13.449 34 14H36C36 12.346 34.654 11 33 11V9H31V11H28V14C28 15.654 29.346 17 31 17H33C33.551 17 34 17.449 34 18V19H31Z" fill="#2E2928"/>
<path d="M33 37C33.551 37 34 37.449 34 38H36C36 36.346 34.654 35 33 35V33H31V35H28V38C28 39.654 29.346 41 31 41H33C33.551 41 34 41.449 34 42V43H31C30.449 43 30 42.551 30 42H28C28 43.654 29.346 45 31 45V47H33V45H36V42C36 40.346 34.654 39 33 39H31C30.449 39 30 38.551 30 38V37H33Z" fill="#2E2928"/>
<path d="M1 1V31H24V49H17.727L29.587 61.938C30.206 62.613 31.085 63 32 63C32.915 63 33.794 62.613 34.413 61.938L46.273 49H40V31H63V1H1ZM7 21.101C8.956 21.5 10.5 23.044 10.899 25H7V21.101ZM12.92 25C12.479 21.941 10.059 19.52 7 19.08V12.92C10.059 12.479 12.48 10.059 12.92 7H25.695C22.861 8.992 21 12.28 21 16C21 18.912 22.146 21.557 24 23.526V25H12.92ZM7 10.899V7H10.899C10.5 8.956 8.956 10.5 7 10.899ZM57 10.899C55.044 10.5 53.5 8.956 53.101 7H57V10.899ZM51.08 7C51.521 10.059 53.941 12.48 57 12.92V19.08C53.941 19.521 51.52 21.941 51.08 25H40V23.526C41.854 21.556 43 18.912 43 16C43 12.28 41.139 8.992 38.305 7H51.08ZM57 21.101V25H53.101C53.5 23.044 55.044 21.5 57 21.101ZM41 16C41 20.962 36.962 25 32 25C27.038 25 23 20.962 23 16C23 11.038 27.038 7 32 7C36.962 7 41 11.038 41 16ZM41.727 51L32.939 60.587C32.458 61.112 31.543 61.112 31.062 60.587L22.273 51H26V25.208C27.727 26.337 29.786 27 32 27C34.214 27 36.273 26.337 38 25.208V51H41.727ZM61 29H40V27H59V5H5V27H24V29H3V3H61V29Z" fill="#2E2928"/>
<path d="M14 45V33H6V45H2L10 55.667L18 45H14ZM10 52.333L6 47H8V35H12V47H14L10 52.333Z" fill="#2E2928"/>
<path d="M58 33H50V45H46L54 55.667L62 45H58V33ZM54 52.333L50 47H52V35H56V47H58L54 52.333Z" fill="#2E2928"/>
</svg>
