<svg width="67" height="67" viewBox="0 0 67 67" fill="none" xmlns="http://www.w3.org/2000/svg">
<path d="M34.5469 36.6406V34.5469H37.6875V31.4062C37.6875 29.6747 36.2784 28.2656 34.5469 28.2656H32.4531C31.8763 28.2656 31.4062 27.7966 31.4062 27.2188V26.1719H34.5469C35.1237 26.1719 35.5938 26.6409 35.5938 27.2188H37.6875C37.6875 25.4872 36.2784 24.0781 34.5469 24.0781V21.9844H32.4531V24.0781H29.3125V27.2188C29.3125 28.9503 30.7216 30.3594 32.4531 30.3594H34.5469C35.1237 30.3594 35.5938 30.8284 35.5938 31.4062V32.4531H32.4531C31.8763 32.4531 31.4062 31.9841 31.4062 31.4062H29.3125C29.3125 33.1378 30.7216 34.5469 32.4531 34.5469V36.6406H34.5469Z" fill="#2E2928"/>
<path d="M56.5312 20.9375H54.4375C52.706 20.9375 51.2969 22.3466 51.2969 24.0781V24.478L50.9033 24.6748C49.8543 25.1993 49.2031 26.2535 49.2031 27.425C49.2031 28.2342 49.5308 29.0267 50.1034 29.5993L51.2969 30.7928V42.2561C51.2969 42.4068 51.2382 42.546 51.1325 42.6528C51.0069 42.7785 50.8289 42.8381 50.651 42.8099L38.4339 40.9297L38.0162 39.9027C42.1273 38.1439 45.0156 34.0601 45.0156 29.3125C45.0156 22.9632 39.8493 17.7969 33.5 17.7969C27.1507 17.7969 21.9844 22.9632 21.9844 29.3125C21.9844 34.0601 24.8727 38.1439 28.9848 39.9037L28.5671 40.9307L16.3501 42.8109C16.1763 42.8381 15.9942 42.7795 15.8685 42.6539C15.7618 42.5471 15.7031 42.4068 15.7031 42.2561V30.7928L16.8966 29.5993C17.4692 29.0267 17.7969 28.2342 17.7969 27.425C17.7969 26.2535 17.1457 25.1993 16.0968 24.6748L15.7031 24.478V24.0781C15.7031 22.3466 14.294 20.9375 12.5625 20.9375H10.4688C8.73722 20.9375 7.32812 22.3466 7.32812 24.0781V43.3469C7.32812 45.3778 8.11956 47.2884 9.55483 48.7226C11.2246 50.3945 13.5288 51.1838 15.8738 50.8907L20.9375 50.2584V65.9531H46.0625V50.2584L51.1262 50.8907C53.4775 51.1838 55.7754 50.3934 57.4452 48.7226C58.8804 47.2884 59.6719 45.3789 59.6719 43.3469V24.0781C59.6719 22.3466 58.2628 20.9375 56.5312 20.9375ZM51.8392 26.5477L53.3906 25.772V24.0781C53.3906 23.5002 53.8607 23.0312 54.4375 23.0312H56.5312C57.1081 23.0312 57.5781 23.5002 57.5781 24.0781V29.3125H52.7772L51.5837 28.1191C51.4016 27.9369 51.2969 27.6836 51.2969 27.425C51.2969 27.0513 51.5052 26.7152 51.8392 26.5477ZM35.5257 57.2128L33.5 59.2385L31.4743 57.2128L32.8645 48.1772L33.5 47.5428L34.1355 48.1782L35.5257 57.2128ZM28.9471 42.991L32.0197 46.0625L29.9207 48.1615L28.7775 43.0171L28.9471 42.991ZM34.9803 46.0625L38.0529 42.991L38.2225 43.0171L37.0793 48.1615L34.9803 46.0625ZM24.0781 29.3125C24.0781 24.1169 28.3054 19.8906 33.5 19.8906C38.6946 19.8906 42.9219 24.1169 42.9219 29.3125C42.9219 34.5081 38.6946 38.7344 33.5 38.7344C28.3054 38.7344 24.0781 34.5081 24.0781 29.3125ZM33.5 40.8281C34.3647 40.8281 35.2043 40.7245 36.0156 40.5434L36.4564 41.6269L33.5 44.5822L30.5436 41.6258L30.9844 40.5423C31.7957 40.7245 32.6353 40.8281 33.5 40.8281ZM10.4688 23.0312H12.5625C13.1393 23.0312 13.6094 23.5002 13.6094 24.0781V25.772L15.1608 26.5477C15.4948 26.7152 15.7031 27.0513 15.7031 27.425C15.7031 27.6836 15.5984 27.9359 15.4163 28.1191L14.2228 29.3125H9.42188V24.0781C9.42188 23.5002 9.89192 23.0312 10.4688 23.0312ZM55.9638 47.2423C54.7547 48.4525 53.0818 49.021 51.3859 48.8137L46.1923 48.1646L43.9688 48.1562V63.8594H23.0312V48.1562H20.9375L15.6141 48.8137C13.914 49.0199 12.2453 48.4525 11.0351 47.2423C9.99452 46.2028 9.42188 44.8199 9.42188 43.3469V31.4062H13.6094V42.2561C13.6094 42.9658 13.8857 43.6317 14.3872 44.1342C14.9829 44.7277 15.8361 45.0072 16.6673 44.8795L26.7037 43.3354L28.7043 52.3385L30.3615 50.6813L29.2445 57.9424L33.5 62.199L37.7555 57.9435L36.6385 50.6824L38.2957 52.3396L40.2963 43.3364L50.3327 44.8806C51.165 45.0083 52.0171 44.7288 52.6128 44.1342C53.1143 43.6327 53.3906 42.9658 53.3906 42.2561V31.4062H57.5781V43.3469C57.5781 44.8199 57.0055 46.2028 55.9638 47.2423Z" fill="#2E2928"/>
<path d="M38.4275 11.2089L36.9473 9.72861L34.5468 12.1291V1.04688H32.453V12.1291L30.0525 9.72861L28.5723 11.2089L33.4999 16.1365L38.4275 11.2089Z" fill="#2E2928"/>
<path d="M27.9588 13.3026L26.4785 11.8224L24.078 14.2228V3.14062H21.9843V14.2228L19.5838 11.8224L18.1035 13.3026L23.0312 18.2303L27.9588 13.3026Z" fill="#2E2928"/>
<path d="M17.49 15.3964L16.0098 13.9161L13.6093 16.3166V5.23438H11.5155V16.3166L9.11505 13.9161L7.63477 15.3964L12.5624 20.324L17.49 15.3964Z" fill="#2E2928"/>
<path d="M48.8963 13.3026L47.416 11.8224L45.0155 14.2228V3.14062H42.9218V14.2228L40.5213 11.8224L39.041 13.3026L43.9687 18.2303L48.8963 13.3026Z" fill="#2E2928"/>
<path d="M59.365 15.3964L57.8848 13.9161L55.4843 16.3166V5.23438H53.3905V16.3166L50.99 13.9161L49.5098 15.3964L54.4374 20.324L59.365 15.3964Z" fill="#2E2928"/>
</svg>
