<svg width="64" height="64" viewBox="0 0 64 64" fill="none" xmlns="http://www.w3.org/2000/svg">
<path d="M43.355 49.5483C43.355 52.964 46.1327 55.7418 49.5484 55.7418C52.9642 55.7418 55.7419 52.964 55.7419 49.5483C55.7419 46.1326 52.9644 43.3549 49.5484 43.3549C46.1325 43.3549 43.355 46.1326 43.355 49.5483ZM53.6776 49.5483C53.6776 51.8255 51.8257 53.6774 49.5484 53.6774C47.2712 53.6774 45.4193 51.8255 45.4193 49.5483C45.4193 47.2711 47.2712 45.4192 49.5484 45.4192C51.8257 45.4194 53.6776 47.2715 53.6776 49.5483Z" fill="#2E2928"/>
<path d="M64 0H45.4194V6.23269C40.4624 2.20178 34.3164 0 27.8709 0C12.5027 0 0 12.5029 0 27.8709C0 43.2389 12.5027 55.7418 27.8709 55.7418C31.5105 55.7418 35.0502 55.044 38.3979 53.6772H38.9719C39.0287 53.8207 39.0874 53.9631 39.1516 54.1066L36.4109 56.8473L42.2493 62.6857L44.99 59.945C45.1335 60.009 45.2759 60.0679 45.4194 60.1247V63.9998H53.6774V60.1247C53.8209 60.0679 53.9634 60.0092 54.1069 59.945L56.8475 62.6857L62.6859 56.8473L59.9452 54.1069C60.0092 53.9634 60.0681 53.8209 60.1249 53.6774H64V45.4194H60.1249C60.0681 45.2759 60.0094 45.1335 59.9452 44.99L62.6859 42.2493L56.8475 36.4109L54.1069 39.1516C53.9634 39.0877 53.8209 39.0287 53.6774 38.9719V38.3979C55.0442 35.0502 55.742 31.5107 55.742 27.8709C55.742 24.6771 55.2052 21.5597 54.1491 18.5806H64V0ZM45.4192 8.96817V13.3802H45.4194C44.0949 14.0686 42.2523 14.7892 39.7306 15.3663C37.1376 9.18711 33.1944 4.65458 30.7323 2.22757C36.2115 2.83346 41.3326 5.17158 45.4192 8.96817ZM28.9032 3.35176C31.1132 5.49479 35.0307 9.83548 37.6361 15.7792C35.2516 16.1848 32.3696 16.4584 28.9032 16.505V3.35176ZM26.8388 3.35068V16.5058C23.3776 16.4595 20.4977 16.1848 18.1111 15.777C20.7173 9.83635 24.6297 5.49501 26.8388 3.35068ZM25.0075 2.22757C22.5426 4.65328 18.591 9.17974 15.999 15.3559C11.2124 14.2533 8.85263 12.6267 7.81211 11.6594C11.9813 6.51168 18.0853 2.99474 25.0075 2.22757ZM6.57043 13.3214C7.91226 14.5137 10.5075 16.1683 15.2548 17.3018C14.2432 20.1819 13.5599 23.3737 13.4443 26.8388H2.09035C2.28849 21.8385 3.91234 17.2006 6.57043 13.3214ZM2.09035 28.9032H13.4441C13.5597 32.3685 14.244 35.5612 15.2546 38.4412C10.5114 39.5747 7.91313 41.2294 6.57021 42.4216C3.91321 38.5414 2.28849 33.9035 2.09035 28.9032ZM7.81211 44.0826C8.85479 43.1142 11.2155 41.4865 15.9979 40.385C18.591 46.562 22.5424 51.0896 25.0075 53.5153C18.0842 52.7464 11.9805 49.2305 7.81211 44.0826ZM35.0966 52.6454C33.0869 53.2317 31.0161 53.5703 28.9032 53.6529V44.3873H26.8386V52.3943C24.6286 50.2535 20.711 45.915 18.1048 39.966C20.0145 39.6398 22.2306 39.3961 24.8165 39.2888L24.732 37.2264C21.8727 37.3452 19.4251 37.627 17.3224 38.009C16.3181 35.2549 15.6316 32.2035 15.5108 28.9034H24.7743V26.8388H15.5106C15.6314 23.5397 16.3209 20.4895 17.3274 17.7332C19.9257 18.2049 23.0648 18.5199 26.8397 18.5693V24.7743H28.9042V18.5682C32.6978 18.5186 35.838 18.1997 38.4237 17.7311C39.2279 19.935 39.8316 22.3256 40.1 24.8824L42.1522 24.6667C41.8756 22.0303 41.2747 19.5725 40.4789 17.3047C42.5188 16.8206 44.1402 16.2466 45.4203 15.6684V18.5804H51.9441C52.9662 21.2263 53.5411 23.9958 53.6527 26.8388H44.3871V28.9034H53.6527C53.5701 31.0165 53.2326 33.0871 52.6451 35.0968H45.4194V38.9719C45.2759 39.0287 45.1335 39.0874 44.99 39.1516L37.7135 31.8751L42.7498 26.8388H26.8386V42.7501L31.8749 37.7137L39.1514 44.9902C39.0874 45.1337 39.0285 45.2761 38.9717 45.4196H35.0966V52.6454ZM53.8404 41.3141L54.5124 41.6651L56.8473 39.3291L59.7666 42.2484L57.4307 44.5833L57.7816 45.2553C58.0428 45.755 58.2544 46.2629 58.4113 46.7615L58.6405 47.484H61.9354V51.6131H58.6405L58.4124 52.3347C58.2555 52.8333 58.0439 53.3412 57.7827 53.8409L57.4317 54.5129L59.7677 56.8477L56.8484 59.767L54.5135 57.4311L53.8415 57.782C53.3419 58.0433 52.834 58.2548 52.3354 58.4118L51.6129 58.6409V61.9359H47.4837V58.6409L46.7621 58.4129C46.2635 58.2559 45.7556 58.0443 45.256 57.7831L44.584 57.4322L42.2493 59.7677L39.33 56.8484L41.666 54.5135L41.315 53.8415C41.0538 53.3419 40.8422 52.834 40.6853 52.3354L40.4561 51.6129H37.1612V47.4837H40.4561L40.6842 46.7621C40.8411 46.2635 41.0527 45.7556 41.3139 45.256L41.6649 44.584L31.8749 34.7951L28.9029 37.766V28.9029H37.766L34.794 31.8749L44.5829 41.6649L45.2549 41.3139C45.7545 41.0527 46.2624 40.8411 46.761 40.6842L47.4835 40.4561V37.1612H51.6126V40.4561L52.3343 40.6842C52.8342 40.8414 53.341 41.054 53.8404 41.3141ZM61.9354 16.516H47.4837V2.06456H61.9354V16.516Z" fill="#2E2928"/>
<path d="M59.8709 4.12915H49.5483V6.19371H59.8709V4.12915Z" fill="#2E2928"/>
<path d="M59.8709 8.25806H49.5483V10.3226H59.8709V8.25806Z" fill="#2E2928"/>
<path d="M55.7418 12.3871H49.5483V14.4517H55.7418V12.3871Z" fill="#2E2928"/>
<path d="M59.8712 12.3871H57.8066V14.4517H59.8712V12.3871Z" fill="#2E2928"/>
</svg>
