<svg width="293" height="363" viewBox="0 0 293 363" fill="none" xmlns="http://www.w3.org/2000/svg">
<rect y="90" width="3" height="3" fill="#E5E5E5"/>
<rect y="100" width="3" height="3" fill="#E5E5E5"/>
<rect y="110" width="3" height="3" fill="#E5E5E5"/>
<rect y="120" width="3" height="3" fill="#E5E5E5"/>
<rect y="130" width="3" height="3" fill="#E5E5E5"/>
<rect y="140" width="3" height="3" fill="#E5E5E5"/>
<rect y="150" width="3" height="3" fill="#E5E5E5"/>
<rect y="160" width="3" height="3" fill="#E5E5E5"/>
<rect y="170" width="3" height="3" fill="#E5E5E5"/>
<rect y="180" width="3" height="3" fill="#E5E5E5"/>
<rect y="190" width="3" height="3" fill="#E5E5E5"/>
<rect y="200" width="3" height="3" fill="#E5E5E5"/>
<rect y="210" width="3" height="3" fill="#E5E5E5"/>
<rect y="220" width="3" height="3" fill="#E5E5E5"/>
<rect y="230" width="3" height="3" fill="#E5E5E5"/>
<rect x="10" y="90" width="3" height="3" fill="#E5E5E5"/>
<rect x="10" y="100" width="3" height="3" fill="#E5E5E5"/>
<rect x="10" y="110" width="3" height="3" fill="#E5E5E5"/>
<rect x="10" y="120" width="3" height="3" fill="#E5E5E5"/>
<rect x="10" y="130" width="3" height="3" fill="#E5E5E5"/>
<rect x="10" y="140" width="3" height="3" fill="#E5E5E5"/>
<rect x="10" y="150" width="3" height="3" fill="#E5E5E5"/>
<rect x="10" y="160" width="3" height="3" fill="#E5E5E5"/>
<rect x="10" y="170" width="3" height="3" fill="#E5E5E5"/>
<rect x="10" y="180" width="3" height="3" fill="#E5E5E5"/>
<rect x="10" y="190" width="3" height="3" fill="#E5E5E5"/>
<rect x="10" y="200" width="3" height="3" fill="#E5E5E5"/>
<rect x="10" y="210" width="3" height="3" fill="#E5E5E5"/>
<rect x="10" y="220" width="3" height="3" fill="#E5E5E5"/>
<rect x="10" y="230" width="3" height="3" fill="#E5E5E5"/>
<rect x="20" y="90" width="3" height="3" fill="#E5E5E5"/>
<rect x="20" y="100" width="3" height="3" fill="#E5E5E5"/>
<rect x="20" y="110" width="3" height="3" fill="#E5E5E5"/>
<rect x="20" y="120" width="3" height="3" fill="#E5E5E5"/>
<rect x="20" y="130" width="3" height="3" fill="#E5E5E5"/>
<rect x="20" y="140" width="3" height="3" fill="#E5E5E5"/>
<rect x="20" y="150" width="3" height="3" fill="#E5E5E5"/>
<rect x="20" y="160" width="3" height="3" fill="#E5E5E5"/>
<rect x="20" y="170" width="3" height="3" fill="#E5E5E5"/>
<rect x="20" y="180" width="3" height="3" fill="#E5E5E5"/>
<rect x="20" y="190" width="3" height="3" fill="#E5E5E5"/>
<rect x="20" y="200" width="3" height="3" fill="#E5E5E5"/>
<rect x="20" y="210" width="3" height="3" fill="#E5E5E5"/>
<rect x="20" y="220" width="3" height="3" fill="#E5E5E5"/>
<rect x="20" y="230" width="3" height="3" fill="#E5E5E5"/>
<rect x="30" y="90" width="3" height="3" fill="#E5E5E5"/>
<rect x="30" y="100" width="3" height="3" fill="#E5E5E5"/>
<rect x="30" y="110" width="3" height="3" fill="#E5E5E5"/>
<rect x="30" y="120" width="3" height="3" fill="#E5E5E5"/>
<rect x="30" y="130" width="3" height="3" fill="#E5E5E5"/>
<rect x="30" y="140" width="3" height="3" fill="#E5E5E5"/>
<rect x="30" y="150" width="3" height="3" fill="#E5E5E5"/>
<rect x="30" y="160" width="3" height="3" fill="#E5E5E5"/>
<rect x="30" y="170" width="3" height="3" fill="#E5E5E5"/>
<rect x="30" y="180" width="3" height="3" fill="#E5E5E5"/>
<rect x="30" y="190" width="3" height="3" fill="#E5E5E5"/>
<rect x="30" y="200" width="3" height="3" fill="#E5E5E5"/>
<rect x="30" y="210" width="3" height="3" fill="#E5E5E5"/>
<rect x="30" y="220" width="3" height="3" fill="#E5E5E5"/>
<rect x="30" y="230" width="3" height="3" fill="#E5E5E5"/>
<rect x="40" y="90" width="3" height="3" fill="#E5E5E5"/>
<rect x="40" y="100" width="3" height="3" fill="#E5E5E5"/>
<rect x="40" y="110" width="3" height="3" fill="#E5E5E5"/>
<rect x="40" y="120" width="3" height="3" fill="#E5E5E5"/>
<rect x="40" y="130" width="3" height="3" fill="#E5E5E5"/>
<rect x="40" y="140" width="3" height="3" fill="#E5E5E5"/>
<rect x="40" y="150" width="3" height="3" fill="#E5E5E5"/>
<rect x="40" y="160" width="3" height="3" fill="#E5E5E5"/>
<rect x="40" y="170" width="3" height="3" fill="#E5E5E5"/>
<rect x="40" y="180" width="3" height="3" fill="#E5E5E5"/>
<rect x="40" y="190" width="3" height="3" fill="#E5E5E5"/>
<rect x="40" y="200" width="3" height="3" fill="#E5E5E5"/>
<rect x="40" y="210" width="3" height="3" fill="#E5E5E5"/>
<rect x="40" y="220" width="3" height="3" fill="#E5E5E5"/>
<rect x="40" y="230" width="3" height="3" fill="#E5E5E5"/>
<rect x="50" y="90" width="3" height="3" fill="#E5E5E5"/>
<rect x="50" y="100" width="3" height="3" fill="#E5E5E5"/>
<rect x="50" y="110" width="3" height="3" fill="#E5E5E5"/>
<rect x="50" y="120" width="3" height="3" fill="#E5E5E5"/>
<rect x="50" y="130" width="3" height="3" fill="#E5E5E5"/>
<rect x="50" y="140" width="3" height="3" fill="#E5E5E5"/>
<rect x="50" y="150" width="3" height="3" fill="#E5E5E5"/>
<rect x="50" y="160" width="3" height="3" fill="#E5E5E5"/>
<rect x="50" y="170" width="3" height="3" fill="#E5E5E5"/>
<rect x="50" y="180" width="3" height="3" fill="#E5E5E5"/>
<rect x="50" y="190" width="3" height="3" fill="#E5E5E5"/>
<rect x="50" y="200" width="3" height="3" fill="#E5E5E5"/>
<rect x="50" y="210" width="3" height="3" fill="#E5E5E5"/>
<rect x="50" y="220" width="3" height="3" fill="#E5E5E5"/>
<rect x="50" y="230" width="3" height="3" fill="#E5E5E5"/>
<rect x="60" y="90" width="3" height="3" fill="#E5E5E5"/>
<rect x="60" y="100" width="3" height="3" fill="#E5E5E5"/>
<rect x="60" y="110" width="3" height="3" fill="#E5E5E5"/>
<rect x="60" y="120" width="3" height="3" fill="#E5E5E5"/>
<rect x="60" y="130" width="3" height="3" fill="#E5E5E5"/>
<rect x="60" y="140" width="3" height="3" fill="#E5E5E5"/>
<rect x="60" y="150" width="3" height="3" fill="#E5E5E5"/>
<rect x="60" y="160" width="3" height="3" fill="#E5E5E5"/>
<rect x="60" y="170" width="3" height="3" fill="#E5E5E5"/>
<rect x="60" y="180" width="3" height="3" fill="#E5E5E5"/>
<rect x="60" y="190" width="3" height="3" fill="#E5E5E5"/>
<rect x="60" y="200" width="3" height="3" fill="#E5E5E5"/>
<rect x="60" y="210" width="3" height="3" fill="#E5E5E5"/>
<rect x="60" y="220" width="3" height="3" fill="#E5E5E5"/>
<rect x="60" y="230" width="3" height="3" fill="#E5E5E5"/>
<rect x="70" y="90" width="3" height="3" fill="#E5E5E5"/>
<rect x="70" y="100" width="3" height="3" fill="#E5E5E5"/>
<rect x="70" y="110" width="3" height="3" fill="#E5E5E5"/>
<rect x="70" y="120" width="3" height="3" fill="#E5E5E5"/>
<rect x="70" y="130" width="3" height="3" fill="#E5E5E5"/>
<rect x="70" y="140" width="3" height="3" fill="#E5E5E5"/>
<rect x="70" y="150" width="3" height="3" fill="#E5E5E5"/>
<rect x="70" y="160" width="3" height="3" fill="#E5E5E5"/>
<rect x="70" y="170" width="3" height="3" fill="#E5E5E5"/>
<rect x="70" y="180" width="3" height="3" fill="#E5E5E5"/>
<rect x="70" y="190" width="3" height="3" fill="#E5E5E5"/>
<rect x="70" y="200" width="3" height="3" fill="#E5E5E5"/>
<rect x="70" y="210" width="3" height="3" fill="#E5E5E5"/>
<rect x="70" y="220" width="3" height="3" fill="#E5E5E5"/>
<rect x="70" y="230" width="3" height="3" fill="#E5E5E5"/>
<rect x="80" y="90" width="3" height="3" fill="#E5E5E5"/>
<rect x="80" y="100" width="3" height="3" fill="#E5E5E5"/>
<rect x="80" y="110" width="3" height="3" fill="#E5E5E5"/>
<rect x="80" y="120" width="3" height="3" fill="#E5E5E5"/>
<rect x="80" y="130" width="3" height="3" fill="#E5E5E5"/>
<rect x="80" y="140" width="3" height="3" fill="#E5E5E5"/>
<rect x="80" y="150" width="3" height="3" fill="#E5E5E5"/>
<rect x="80" y="160" width="3" height="3" fill="#E5E5E5"/>
<rect x="80" y="170" width="3" height="3" fill="#E5E5E5"/>
<rect x="80" y="180" width="3" height="3" fill="#E5E5E5"/>
<rect x="80" y="190" width="3" height="3" fill="#E5E5E5"/>
<rect x="80" y="200" width="3" height="3" fill="#E5E5E5"/>
<rect x="80" y="210" width="3" height="3" fill="#E5E5E5"/>
<rect x="80" y="220" width="3" height="3" fill="#E5E5E5"/>
<rect x="80" y="230" width="3" height="3" fill="#E5E5E5"/>
<rect x="90" y="90" width="3" height="3" fill="#E5E5E5"/>
<rect x="90" y="100" width="3" height="3" fill="#E5E5E5"/>
<rect x="90" y="110" width="3" height="3" fill="#E5E5E5"/>
<rect x="90" y="120" width="3" height="3" fill="#E5E5E5"/>
<rect x="90" y="130" width="3" height="3" fill="#E5E5E5"/>
<rect x="90" y="140" width="3" height="3" fill="#E5E5E5"/>
<rect x="90" y="150" width="3" height="3" fill="#E5E5E5"/>
<rect x="90" y="160" width="3" height="3" fill="#E5E5E5"/>
<rect x="90" y="170" width="3" height="3" fill="#E5E5E5"/>
<rect x="90" y="180" width="3" height="3" fill="#E5E5E5"/>
<rect x="90" y="190" width="3" height="3" fill="#E5E5E5"/>
<rect x="90" y="200" width="3" height="3" fill="#E5E5E5"/>
<rect x="90" y="210" width="3" height="3" fill="#E5E5E5"/>
<rect x="90" y="220" width="3" height="3" fill="#E5E5E5"/>
<rect x="90" y="230" width="3" height="3" fill="#E5E5E5"/>
<rect x="100" y="90" width="3" height="3" fill="#E5E5E5"/>
<rect x="100" y="100" width="3" height="3" fill="#E5E5E5"/>
<rect x="100" y="110" width="3" height="3" fill="#E5E5E5"/>
<rect x="100" y="120" width="3" height="3" fill="#E5E5E5"/>
<rect x="100" y="130" width="3" height="3" fill="#E5E5E5"/>
<rect x="100" y="140" width="3" height="3" fill="#E5E5E5"/>
<rect x="100" y="150" width="3" height="3" fill="#E5E5E5"/>
<rect x="100" y="160" width="3" height="3" fill="#E5E5E5"/>
<rect x="100" y="170" width="3" height="3" fill="#E5E5E5"/>
<rect x="100" y="180" width="3" height="3" fill="#E5E5E5"/>
<rect x="100" y="190" width="3" height="3" fill="#E5E5E5"/>
<rect x="100" y="200" width="3" height="3" fill="#E5E5E5"/>
<rect x="100" y="210" width="3" height="3" fill="#E5E5E5"/>
<rect x="100" y="220" width="3" height="3" fill="#E5E5E5"/>
<rect x="100" y="230" width="3" height="3" fill="#E5E5E5"/>
<rect x="110" y="90" width="3" height="3" fill="#E5E5E5"/>
<rect x="110" y="100" width="3" height="3" fill="#E5E5E5"/>
<rect x="110" y="110" width="3" height="3" fill="#E5E5E5"/>
<rect x="110" y="120" width="3" height="3" fill="#E5E5E5"/>
<rect x="110" y="130" width="3" height="3" fill="#E5E5E5"/>
<rect x="110" y="140" width="3" height="3" fill="#E5E5E5"/>
<rect x="110" y="150" width="3" height="3" fill="#E5E5E5"/>
<rect x="110" y="160" width="3" height="3" fill="#E5E5E5"/>
<rect x="110" y="170" width="3" height="3" fill="#E5E5E5"/>
<rect x="110" y="180" width="3" height="3" fill="#E5E5E5"/>
<rect x="110" y="190" width="3" height="3" fill="#E5E5E5"/>
<rect x="110" y="200" width="3" height="3" fill="#E5E5E5"/>
<rect x="110" y="210" width="3" height="3" fill="#E5E5E5"/>
<rect x="110" y="220" width="3" height="3" fill="#E5E5E5"/>
<rect x="110" y="230" width="3" height="3" fill="#E5E5E5"/>
<rect x="120" y="90" width="3" height="3" fill="#E5E5E5"/>
<rect x="120" y="100" width="3" height="3" fill="#E5E5E5"/>
<rect x="120" y="110" width="3" height="3" fill="#E5E5E5"/>
<rect x="120" y="120" width="3" height="3" fill="#E5E5E5"/>
<rect x="120" y="130" width="3" height="3" fill="#E5E5E5"/>
<rect x="120" y="140" width="3" height="3" fill="#E5E5E5"/>
<rect x="120" y="150" width="3" height="3" fill="#E5E5E5"/>
<rect x="120" y="160" width="3" height="3" fill="#E5E5E5"/>
<rect x="120" y="170" width="3" height="3" fill="#E5E5E5"/>
<rect x="120" y="180" width="3" height="3" fill="#E5E5E5"/>
<rect x="120" y="190" width="3" height="3" fill="#E5E5E5"/>
<rect x="120" y="200" width="3" height="3" fill="#E5E5E5"/>
<rect x="120" y="210" width="3" height="3" fill="#E5E5E5"/>
<rect x="120" y="220" width="3" height="3" fill="#E5E5E5"/>
<rect x="120" y="230" width="3" height="3" fill="#E5E5E5"/>
<rect x="130" y="90" width="3" height="3" fill="#E5E5E5"/>
<rect x="130" y="100" width="3" height="3" fill="#E5E5E5"/>
<rect x="130" y="110" width="3" height="3" fill="#E5E5E5"/>
<rect x="130" y="120" width="3" height="3" fill="#E5E5E5"/>
<rect x="130" y="130" width="3" height="3" fill="#E5E5E5"/>
<rect x="130" y="140" width="3" height="3" fill="#E5E5E5"/>
<rect x="130" y="150" width="3" height="3" fill="#E5E5E5"/>
<rect x="130" y="160" width="3" height="3" fill="#E5E5E5"/>
<rect x="130" y="170" width="3" height="3" fill="#E5E5E5"/>
<rect x="130" y="180" width="3" height="3" fill="#E5E5E5"/>
<rect x="130" y="190" width="3" height="3" fill="#E5E5E5"/>
<rect x="130" y="200" width="3" height="3" fill="#E5E5E5"/>
<rect x="130" y="210" width="3" height="3" fill="#E5E5E5"/>
<rect x="130" y="220" width="3" height="3" fill="#E5E5E5"/>
<rect x="130" y="230" width="3" height="3" fill="#E5E5E5"/>
<rect x="140" y="90" width="3" height="3" fill="#E5E5E5"/>
<rect x="140" y="100" width="3" height="3" fill="#E5E5E5"/>
<rect x="140" y="110" width="3" height="3" fill="#E5E5E5"/>
<rect x="140" y="120" width="3" height="3" fill="#E5E5E5"/>
<rect x="140" y="130" width="3" height="3" fill="#E5E5E5"/>
<rect x="140" y="140" width="3" height="3" fill="#E5E5E5"/>
<rect x="140" y="150" width="3" height="3" fill="#E5E5E5"/>
<rect x="140" y="160" width="3" height="3" fill="#E5E5E5"/>
<rect x="140" y="170" width="3" height="3" fill="#E5E5E5"/>
<rect x="140" y="180" width="3" height="3" fill="#E5E5E5"/>
<rect x="140" y="190" width="3" height="3" fill="#E5E5E5"/>
<rect x="140" y="200" width="3" height="3" fill="#E5E5E5"/>
<rect x="140" y="210" width="3" height="3" fill="#E5E5E5"/>
<rect x="140" y="220" width="3" height="3" fill="#E5E5E5"/>
<rect x="140" y="230" width="3" height="3" fill="#E5E5E5"/>
<rect y="220" width="3" height="3" fill="#E5E5E5"/>
<rect y="230" width="3" height="3" fill="#E5E5E5"/>
<rect y="240" width="3" height="3" fill="#E5E5E5"/>
<rect y="250" width="3" height="3" fill="#E5E5E5"/>
<rect y="260" width="3" height="3" fill="#E5E5E5"/>
<rect y="270" width="3" height="3" fill="#E5E5E5"/>
<rect y="280" width="3" height="3" fill="#E5E5E5"/>
<rect y="290" width="3" height="3" fill="#E5E5E5"/>
<rect y="300" width="3" height="3" fill="#E5E5E5"/>
<rect y="310" width="3" height="3" fill="#E5E5E5"/>
<rect y="320" width="3" height="3" fill="#E5E5E5"/>
<rect y="330" width="3" height="3" fill="#E5E5E5"/>
<rect y="340" width="3" height="3" fill="#E5E5E5"/>
<rect y="350" width="3" height="3" fill="#E5E5E5"/>
<rect y="360" width="3" height="3" fill="#E5E5E5"/>
<rect x="10" y="220" width="3" height="3" fill="#E5E5E5"/>
<rect x="10" y="230" width="3" height="3" fill="#E5E5E5"/>
<rect x="10" y="240" width="3" height="3" fill="#E5E5E5"/>
<rect x="10" y="250" width="3" height="3" fill="#E5E5E5"/>
<rect x="10" y="260" width="3" height="3" fill="#E5E5E5"/>
<rect x="10" y="270" width="3" height="3" fill="#E5E5E5"/>
<rect x="10" y="280" width="3" height="3" fill="#E5E5E5"/>
<rect x="10" y="290" width="3" height="3" fill="#E5E5E5"/>
<rect x="10" y="300" width="3" height="3" fill="#E5E5E5"/>
<rect x="10" y="310" width="3" height="3" fill="#E5E5E5"/>
<rect x="10" y="320" width="3" height="3" fill="#E5E5E5"/>
<rect x="10" y="330" width="3" height="3" fill="#E5E5E5"/>
<rect x="10" y="340" width="3" height="3" fill="#E5E5E5"/>
<rect x="10" y="350" width="3" height="3" fill="#E5E5E5"/>
<rect x="10" y="360" width="3" height="3" fill="#E5E5E5"/>
<rect x="20" y="220" width="3" height="3" fill="#E5E5E5"/>
<rect x="20" y="230" width="3" height="3" fill="#E5E5E5"/>
<rect x="20" y="240" width="3" height="3" fill="#E5E5E5"/>
<rect x="20" y="250" width="3" height="3" fill="#E5E5E5"/>
<rect x="20" y="260" width="3" height="3" fill="#E5E5E5"/>
<rect x="20" y="270" width="3" height="3" fill="#E5E5E5"/>
<rect x="20" y="280" width="3" height="3" fill="#E5E5E5"/>
<rect x="20" y="290" width="3" height="3" fill="#E5E5E5"/>
<rect x="20" y="300" width="3" height="3" fill="#E5E5E5"/>
<rect x="20" y="310" width="3" height="3" fill="#E5E5E5"/>
<rect x="20" y="320" width="3" height="3" fill="#E5E5E5"/>
<rect x="20" y="330" width="3" height="3" fill="#E5E5E5"/>
<rect x="20" y="340" width="3" height="3" fill="#E5E5E5"/>
<rect x="20" y="350" width="3" height="3" fill="#E5E5E5"/>
<rect x="20" y="360" width="3" height="3" fill="#E5E5E5"/>
<rect x="30" y="220" width="3" height="3" fill="#E5E5E5"/>
<rect x="30" y="230" width="3" height="3" fill="#E5E5E5"/>
<rect x="30" y="240" width="3" height="3" fill="#E5E5E5"/>
<rect x="30" y="250" width="3" height="3" fill="#E5E5E5"/>
<rect x="30" y="260" width="3" height="3" fill="#E5E5E5"/>
<rect x="30" y="270" width="3" height="3" fill="#E5E5E5"/>
<rect x="30" y="280" width="3" height="3" fill="#E5E5E5"/>
<rect x="30" y="290" width="3" height="3" fill="#E5E5E5"/>
<rect x="30" y="300" width="3" height="3" fill="#E5E5E5"/>
<rect x="30" y="310" width="3" height="3" fill="#E5E5E5"/>
<rect x="30" y="320" width="3" height="3" fill="#E5E5E5"/>
<rect x="30" y="330" width="3" height="3" fill="#E5E5E5"/>
<rect x="30" y="340" width="3" height="3" fill="#E5E5E5"/>
<rect x="30" y="350" width="3" height="3" fill="#E5E5E5"/>
<rect x="30" y="360" width="3" height="3" fill="#E5E5E5"/>
<rect x="40" y="220" width="3" height="3" fill="#E5E5E5"/>
<rect x="40" y="230" width="3" height="3" fill="#E5E5E5"/>
<rect x="40" y="240" width="3" height="3" fill="#E5E5E5"/>
<rect x="40" y="250" width="3" height="3" fill="#E5E5E5"/>
<rect x="40" y="260" width="3" height="3" fill="#E5E5E5"/>
<rect x="40" y="270" width="3" height="3" fill="#E5E5E5"/>
<rect x="40" y="280" width="3" height="3" fill="#E5E5E5"/>
<rect x="40" y="290" width="3" height="3" fill="#E5E5E5"/>
<rect x="40" y="300" width="3" height="3" fill="#E5E5E5"/>
<rect x="40" y="310" width="3" height="3" fill="#E5E5E5"/>
<rect x="40" y="320" width="3" height="3" fill="#E5E5E5"/>
<rect x="40" y="330" width="3" height="3" fill="#E5E5E5"/>
<rect x="40" y="340" width="3" height="3" fill="#E5E5E5"/>
<rect x="40" y="350" width="3" height="3" fill="#E5E5E5"/>
<rect x="40" y="360" width="3" height="3" fill="#E5E5E5"/>
<rect x="50" y="220" width="3" height="3" fill="#E5E5E5"/>
<rect x="50" y="230" width="3" height="3" fill="#E5E5E5"/>
<rect x="50" y="240" width="3" height="3" fill="#E5E5E5"/>
<rect x="50" y="250" width="3" height="3" fill="#E5E5E5"/>
<rect x="50" y="260" width="3" height="3" fill="#E5E5E5"/>
<rect x="50" y="270" width="3" height="3" fill="#E5E5E5"/>
<rect x="50" y="280" width="3" height="3" fill="#E5E5E5"/>
<rect x="50" y="290" width="3" height="3" fill="#E5E5E5"/>
<rect x="50" y="300" width="3" height="3" fill="#E5E5E5"/>
<rect x="50" y="310" width="3" height="3" fill="#E5E5E5"/>
<rect x="50" y="320" width="3" height="3" fill="#E5E5E5"/>
<rect x="50" y="330" width="3" height="3" fill="#E5E5E5"/>
<rect x="50" y="340" width="3" height="3" fill="#E5E5E5"/>
<rect x="50" y="350" width="3" height="3" fill="#E5E5E5"/>
<rect x="50" y="360" width="3" height="3" fill="#E5E5E5"/>
<rect x="60" y="220" width="3" height="3" fill="#E5E5E5"/>
<rect x="60" y="230" width="3" height="3" fill="#E5E5E5"/>
<rect x="60" y="240" width="3" height="3" fill="#E5E5E5"/>
<rect x="60" y="250" width="3" height="3" fill="#E5E5E5"/>
<rect x="60" y="260" width="3" height="3" fill="#E5E5E5"/>
<rect x="60" y="270" width="3" height="3" fill="#E5E5E5"/>
<rect x="60" y="280" width="3" height="3" fill="#E5E5E5"/>
<rect x="60" y="290" width="3" height="3" fill="#E5E5E5"/>
<rect x="60" y="300" width="3" height="3" fill="#E5E5E5"/>
<rect x="60" y="310" width="3" height="3" fill="#E5E5E5"/>
<rect x="60" y="320" width="3" height="3" fill="#E5E5E5"/>
<rect x="60" y="330" width="3" height="3" fill="#E5E5E5"/>
<rect x="60" y="340" width="3" height="3" fill="#E5E5E5"/>
<rect x="60" y="350" width="3" height="3" fill="#E5E5E5"/>
<rect x="60" y="360" width="3" height="3" fill="#E5E5E5"/>
<rect x="70" y="220" width="3" height="3" fill="#E5E5E5"/>
<rect x="70" y="230" width="3" height="3" fill="#E5E5E5"/>
<rect x="70" y="240" width="3" height="3" fill="#E5E5E5"/>
<rect x="70" y="250" width="3" height="3" fill="#E5E5E5"/>
<rect x="70" y="260" width="3" height="3" fill="#E5E5E5"/>
<rect x="70" y="270" width="3" height="3" fill="#E5E5E5"/>
<rect x="70" y="280" width="3" height="3" fill="#E5E5E5"/>
<rect x="70" y="290" width="3" height="3" fill="#E5E5E5"/>
<rect x="70" y="300" width="3" height="3" fill="#E5E5E5"/>
<rect x="70" y="310" width="3" height="3" fill="#E5E5E5"/>
<rect x="70" y="320" width="3" height="3" fill="#E5E5E5"/>
<rect x="70" y="330" width="3" height="3" fill="#E5E5E5"/>
<rect x="70" y="340" width="3" height="3" fill="#E5E5E5"/>
<rect x="70" y="350" width="3" height="3" fill="#E5E5E5"/>
<rect x="70" y="360" width="3" height="3" fill="#E5E5E5"/>
<rect x="80" y="220" width="3" height="3" fill="#E5E5E5"/>
<rect x="80" y="230" width="3" height="3" fill="#E5E5E5"/>
<rect x="80" y="240" width="3" height="3" fill="#E5E5E5"/>
<rect x="80" y="250" width="3" height="3" fill="#E5E5E5"/>
<rect x="80" y="260" width="3" height="3" fill="#E5E5E5"/>
<rect x="80" y="270" width="3" height="3" fill="#E5E5E5"/>
<rect x="80" y="280" width="3" height="3" fill="#E5E5E5"/>
<rect x="80" y="290" width="3" height="3" fill="#E5E5E5"/>
<rect x="80" y="300" width="3" height="3" fill="#E5E5E5"/>
<rect x="80" y="310" width="3" height="3" fill="#E5E5E5"/>
<rect x="80" y="320" width="3" height="3" fill="#E5E5E5"/>
<rect x="80" y="330" width="3" height="3" fill="#E5E5E5"/>
<rect x="80" y="340" width="3" height="3" fill="#E5E5E5"/>
<rect x="80" y="350" width="3" height="3" fill="#E5E5E5"/>
<rect x="80" y="360" width="3" height="3" fill="#E5E5E5"/>
<rect x="90" y="220" width="3" height="3" fill="#E5E5E5"/>
<rect x="90" y="230" width="3" height="3" fill="#E5E5E5"/>
<rect x="90" y="240" width="3" height="3" fill="#E5E5E5"/>
<rect x="90" y="250" width="3" height="3" fill="#E5E5E5"/>
<rect x="90" y="260" width="3" height="3" fill="#E5E5E5"/>
<rect x="90" y="270" width="3" height="3" fill="#E5E5E5"/>
<rect x="90" y="280" width="3" height="3" fill="#E5E5E5"/>
<rect x="90" y="290" width="3" height="3" fill="#E5E5E5"/>
<rect x="90" y="300" width="3" height="3" fill="#E5E5E5"/>
<rect x="90" y="310" width="3" height="3" fill="#E5E5E5"/>
<rect x="90" y="320" width="3" height="3" fill="#E5E5E5"/>
<rect x="90" y="330" width="3" height="3" fill="#E5E5E5"/>
<rect x="90" y="340" width="3" height="3" fill="#E5E5E5"/>
<rect x="90" y="350" width="3" height="3" fill="#E5E5E5"/>
<rect x="90" y="360" width="3" height="3" fill="#E5E5E5"/>
<rect x="100" y="220" width="3" height="3" fill="#E5E5E5"/>
<rect x="100" y="230" width="3" height="3" fill="#E5E5E5"/>
<rect x="100" y="240" width="3" height="3" fill="#E5E5E5"/>
<rect x="100" y="250" width="3" height="3" fill="#E5E5E5"/>
<rect x="100" y="260" width="3" height="3" fill="#E5E5E5"/>
<rect x="100" y="270" width="3" height="3" fill="#E5E5E5"/>
<rect x="100" y="280" width="3" height="3" fill="#E5E5E5"/>
<rect x="100" y="290" width="3" height="3" fill="#E5E5E5"/>
<rect x="100" y="300" width="3" height="3" fill="#E5E5E5"/>
<rect x="100" y="310" width="3" height="3" fill="#E5E5E5"/>
<rect x="100" y="320" width="3" height="3" fill="#E5E5E5"/>
<rect x="100" y="330" width="3" height="3" fill="#E5E5E5"/>
<rect x="100" y="340" width="3" height="3" fill="#E5E5E5"/>
<rect x="100" y="350" width="3" height="3" fill="#E5E5E5"/>
<rect x="100" y="360" width="3" height="3" fill="#E5E5E5"/>
<rect x="110" y="220" width="3" height="3" fill="#E5E5E5"/>
<rect x="110" y="230" width="3" height="3" fill="#E5E5E5"/>
<rect x="110" y="240" width="3" height="3" fill="#E5E5E5"/>
<rect x="110" y="250" width="3" height="3" fill="#E5E5E5"/>
<rect x="110" y="260" width="3" height="3" fill="#E5E5E5"/>
<rect x="110" y="270" width="3" height="3" fill="#E5E5E5"/>
<rect x="110" y="280" width="3" height="3" fill="#E5E5E5"/>
<rect x="110" y="290" width="3" height="3" fill="#E5E5E5"/>
<rect x="110" y="300" width="3" height="3" fill="#E5E5E5"/>
<rect x="110" y="310" width="3" height="3" fill="#E5E5E5"/>
<rect x="110" y="320" width="3" height="3" fill="#E5E5E5"/>
<rect x="110" y="330" width="3" height="3" fill="#E5E5E5"/>
<rect x="110" y="340" width="3" height="3" fill="#E5E5E5"/>
<rect x="110" y="350" width="3" height="3" fill="#E5E5E5"/>
<rect x="110" y="360" width="3" height="3" fill="#E5E5E5"/>
<rect x="120" y="220" width="3" height="3" fill="#E5E5E5"/>
<rect x="120" y="230" width="3" height="3" fill="#E5E5E5"/>
<rect x="120" y="240" width="3" height="3" fill="#E5E5E5"/>
<rect x="120" y="250" width="3" height="3" fill="#E5E5E5"/>
<rect x="120" y="260" width="3" height="3" fill="#E5E5E5"/>
<rect x="120" y="270" width="3" height="3" fill="#E5E5E5"/>
<rect x="120" y="280" width="3" height="3" fill="#E5E5E5"/>
<rect x="120" y="290" width="3" height="3" fill="#E5E5E5"/>
<rect x="120" y="300" width="3" height="3" fill="#E5E5E5"/>
<rect x="120" y="310" width="3" height="3" fill="#E5E5E5"/>
<rect x="120" y="320" width="3" height="3" fill="#E5E5E5"/>
<rect x="120" y="330" width="3" height="3" fill="#E5E5E5"/>
<rect x="120" y="340" width="3" height="3" fill="#E5E5E5"/>
<rect x="120" y="350" width="3" height="3" fill="#E5E5E5"/>
<rect x="120" y="360" width="3" height="3" fill="#E5E5E5"/>
<rect x="130" y="220" width="3" height="3" fill="#E5E5E5"/>
<rect x="130" y="230" width="3" height="3" fill="#E5E5E5"/>
<rect x="130" y="240" width="3" height="3" fill="#E5E5E5"/>
<rect x="130" y="250" width="3" height="3" fill="#E5E5E5"/>
<rect x="130" y="260" width="3" height="3" fill="#E5E5E5"/>
<rect x="130" y="270" width="3" height="3" fill="#E5E5E5"/>
<rect x="130" y="280" width="3" height="3" fill="#E5E5E5"/>
<rect x="130" y="290" width="3" height="3" fill="#E5E5E5"/>
<rect x="130" y="300" width="3" height="3" fill="#E5E5E5"/>
<rect x="130" y="310" width="3" height="3" fill="#E5E5E5"/>
<rect x="130" y="320" width="3" height="3" fill="#E5E5E5"/>
<rect x="130" y="330" width="3" height="3" fill="#E5E5E5"/>
<rect x="130" y="340" width="3" height="3" fill="#E5E5E5"/>
<rect x="130" y="350" width="3" height="3" fill="#E5E5E5"/>
<rect x="130" y="360" width="3" height="3" fill="#E5E5E5"/>
<rect x="140" y="220" width="3" height="3" fill="#E5E5E5"/>
<rect x="140" y="230" width="3" height="3" fill="#E5E5E5"/>
<rect x="140" y="240" width="3" height="3" fill="#E5E5E5"/>
<rect x="140" y="250" width="3" height="3" fill="#E5E5E5"/>
<rect x="140" y="260" width="3" height="3" fill="#E5E5E5"/>
<rect x="140" y="270" width="3" height="3" fill="#E5E5E5"/>
<rect x="140" y="280" width="3" height="3" fill="#E5E5E5"/>
<rect x="140" y="290" width="3" height="3" fill="#E5E5E5"/>
<rect x="140" y="300" width="3" height="3" fill="#E5E5E5"/>
<rect x="140" y="310" width="3" height="3" fill="#E5E5E5"/>
<rect x="140" y="320" width="3" height="3" fill="#E5E5E5"/>
<rect x="140" y="330" width="3" height="3" fill="#E5E5E5"/>
<rect x="140" y="340" width="3" height="3" fill="#E5E5E5"/>
<rect x="140" y="350" width="3" height="3" fill="#E5E5E5"/>
<rect x="140" y="360" width="3" height="3" fill="#E5E5E5"/>
<rect x="150" width="3" height="3" fill="#E5E5E5"/>
<rect x="150" y="10" width="3" height="3" fill="#E5E5E5"/>
<rect x="150" y="20" width="3" height="3" fill="#E5E5E5"/>
<rect x="150" y="30" width="3" height="3" fill="#E5E5E5"/>
<rect x="150" y="40" width="3" height="3" fill="#E5E5E5"/>
<rect x="150" y="50" width="3" height="3" fill="#E5E5E5"/>
<rect x="150" y="60" width="3" height="3" fill="#E5E5E5"/>
<rect x="150" y="70" width="3" height="3" fill="#E5E5E5"/>
<rect x="150" y="80" width="3" height="3" fill="#E5E5E5"/>
<rect x="150" y="90" width="3" height="3" fill="#E5E5E5"/>
<rect x="150" y="100" width="3" height="3" fill="#E5E5E5"/>
<rect x="150" y="110" width="3" height="3" fill="#E5E5E5"/>
<rect x="150" y="120" width="3" height="3" fill="#E5E5E5"/>
<rect x="150" y="130" width="3" height="3" fill="#E5E5E5"/>
<rect x="150" y="140" width="3" height="3" fill="#E5E5E5"/>
<rect x="160" width="3" height="3" fill="#E5E5E5"/>
<rect x="160" y="10" width="3" height="3" fill="#E5E5E5"/>
<rect x="160" y="20" width="3" height="3" fill="#E5E5E5"/>
<rect x="160" y="30" width="3" height="3" fill="#E5E5E5"/>
<rect x="160" y="40" width="3" height="3" fill="#E5E5E5"/>
<rect x="160" y="50" width="3" height="3" fill="#E5E5E5"/>
<rect x="160" y="60" width="3" height="3" fill="#E5E5E5"/>
<rect x="160" y="70" width="3" height="3" fill="#E5E5E5"/>
<rect x="160" y="80" width="3" height="3" fill="#E5E5E5"/>
<rect x="160" y="90" width="3" height="3" fill="#E5E5E5"/>
<rect x="160" y="100" width="3" height="3" fill="#E5E5E5"/>
<rect x="160" y="110" width="3" height="3" fill="#E5E5E5"/>
<rect x="160" y="120" width="3" height="3" fill="#E5E5E5"/>
<rect x="160" y="130" width="3" height="3" fill="#E5E5E5"/>
<rect x="160" y="140" width="3" height="3" fill="#E5E5E5"/>
<rect x="170" width="3" height="3" fill="#E5E5E5"/>
<rect x="170" y="10" width="3" height="3" fill="#E5E5E5"/>
<rect x="170" y="20" width="3" height="3" fill="#E5E5E5"/>
<rect x="170" y="30" width="3" height="3" fill="#E5E5E5"/>
<rect x="170" y="40" width="3" height="3" fill="#E5E5E5"/>
<rect x="170" y="50" width="3" height="3" fill="#E5E5E5"/>
<rect x="170" y="60" width="3" height="3" fill="#E5E5E5"/>
<rect x="170" y="70" width="3" height="3" fill="#E5E5E5"/>
<rect x="170" y="80" width="3" height="3" fill="#E5E5E5"/>
<rect x="170" y="90" width="3" height="3" fill="#E5E5E5"/>
<rect x="170" y="100" width="3" height="3" fill="#E5E5E5"/>
<rect x="170" y="110" width="3" height="3" fill="#E5E5E5"/>
<rect x="170" y="120" width="3" height="3" fill="#E5E5E5"/>
<rect x="170" y="130" width="3" height="3" fill="#E5E5E5"/>
<rect x="170" y="140" width="3" height="3" fill="#E5E5E5"/>
<rect x="180" width="3" height="3" fill="#E5E5E5"/>
<rect x="180" y="10" width="3" height="3" fill="#E5E5E5"/>
<rect x="180" y="20" width="3" height="3" fill="#E5E5E5"/>
<rect x="180" y="30" width="3" height="3" fill="#E5E5E5"/>
<rect x="180" y="40" width="3" height="3" fill="#E5E5E5"/>
<rect x="180" y="50" width="3" height="3" fill="#E5E5E5"/>
<rect x="180" y="60" width="3" height="3" fill="#E5E5E5"/>
<rect x="180" y="70" width="3" height="3" fill="#E5E5E5"/>
<rect x="180" y="80" width="3" height="3" fill="#E5E5E5"/>
<rect x="180" y="90" width="3" height="3" fill="#E5E5E5"/>
<rect x="180" y="100" width="3" height="3" fill="#E5E5E5"/>
<rect x="180" y="110" width="3" height="3" fill="#E5E5E5"/>
<rect x="180" y="120" width="3" height="3" fill="#E5E5E5"/>
<rect x="180" y="130" width="3" height="3" fill="#E5E5E5"/>
<rect x="180" y="140" width="3" height="3" fill="#E5E5E5"/>
<rect x="190" width="3" height="3" fill="#E5E5E5"/>
<rect x="190" y="10" width="3" height="3" fill="#E5E5E5"/>
<rect x="190" y="20" width="3" height="3" fill="#E5E5E5"/>
<rect x="190" y="30" width="3" height="3" fill="#E5E5E5"/>
<rect x="190" y="40" width="3" height="3" fill="#E5E5E5"/>
<rect x="190" y="50" width="3" height="3" fill="#E5E5E5"/>
<rect x="190" y="60" width="3" height="3" fill="#E5E5E5"/>
<rect x="190" y="70" width="3" height="3" fill="#E5E5E5"/>
<rect x="190" y="80" width="3" height="3" fill="#E5E5E5"/>
<rect x="190" y="90" width="3" height="3" fill="#E5E5E5"/>
<rect x="190" y="100" width="3" height="3" fill="#E5E5E5"/>
<rect x="190" y="110" width="3" height="3" fill="#E5E5E5"/>
<rect x="190" y="120" width="3" height="3" fill="#E5E5E5"/>
<rect x="190" y="130" width="3" height="3" fill="#E5E5E5"/>
<rect x="190" y="140" width="3" height="3" fill="#E5E5E5"/>
<rect x="200" width="3" height="3" fill="#E5E5E5"/>
<rect x="200" y="10" width="3" height="3" fill="#E5E5E5"/>
<rect x="200" y="20" width="3" height="3" fill="#E5E5E5"/>
<rect x="200" y="30" width="3" height="3" fill="#E5E5E5"/>
<rect x="200" y="40" width="3" height="3" fill="#E5E5E5"/>
<rect x="200" y="50" width="3" height="3" fill="#E5E5E5"/>
<rect x="200" y="60" width="3" height="3" fill="#E5E5E5"/>
<rect x="200" y="70" width="3" height="3" fill="#E5E5E5"/>
<rect x="200" y="80" width="3" height="3" fill="#E5E5E5"/>
<rect x="200" y="90" width="3" height="3" fill="#E5E5E5"/>
<rect x="200" y="100" width="3" height="3" fill="#E5E5E5"/>
<rect x="200" y="110" width="3" height="3" fill="#E5E5E5"/>
<rect x="200" y="120" width="3" height="3" fill="#E5E5E5"/>
<rect x="200" y="130" width="3" height="3" fill="#E5E5E5"/>
<rect x="200" y="140" width="3" height="3" fill="#E5E5E5"/>
<rect x="210" width="3" height="3" fill="#E5E5E5"/>
<rect x="210" y="10" width="3" height="3" fill="#E5E5E5"/>
<rect x="210" y="20" width="3" height="3" fill="#E5E5E5"/>
<rect x="210" y="30" width="3" height="3" fill="#E5E5E5"/>
<rect x="210" y="40" width="3" height="3" fill="#E5E5E5"/>
<rect x="210" y="50" width="3" height="3" fill="#E5E5E5"/>
<rect x="210" y="60" width="3" height="3" fill="#E5E5E5"/>
<rect x="210" y="70" width="3" height="3" fill="#E5E5E5"/>
<rect x="210" y="80" width="3" height="3" fill="#E5E5E5"/>
<rect x="210" y="90" width="3" height="3" fill="#E5E5E5"/>
<rect x="210" y="100" width="3" height="3" fill="#E5E5E5"/>
<rect x="210" y="110" width="3" height="3" fill="#E5E5E5"/>
<rect x="210" y="120" width="3" height="3" fill="#E5E5E5"/>
<rect x="210" y="130" width="3" height="3" fill="#E5E5E5"/>
<rect x="210" y="140" width="3" height="3" fill="#E5E5E5"/>
<rect x="220" width="3" height="3" fill="#E5E5E5"/>
<rect x="220" y="10" width="3" height="3" fill="#E5E5E5"/>
<rect x="220" y="20" width="3" height="3" fill="#E5E5E5"/>
<rect x="220" y="30" width="3" height="3" fill="#E5E5E5"/>
<rect x="220" y="40" width="3" height="3" fill="#E5E5E5"/>
<rect x="220" y="50" width="3" height="3" fill="#E5E5E5"/>
<rect x="220" y="60" width="3" height="3" fill="#E5E5E5"/>
<rect x="220" y="70" width="3" height="3" fill="#E5E5E5"/>
<rect x="220" y="80" width="3" height="3" fill="#E5E5E5"/>
<rect x="220" y="90" width="3" height="3" fill="#E5E5E5"/>
<rect x="220" y="100" width="3" height="3" fill="#E5E5E5"/>
<rect x="220" y="110" width="3" height="3" fill="#E5E5E5"/>
<rect x="220" y="120" width="3" height="3" fill="#E5E5E5"/>
<rect x="220" y="130" width="3" height="3" fill="#E5E5E5"/>
<rect x="220" y="140" width="3" height="3" fill="#E5E5E5"/>
<rect x="230" width="3" height="3" fill="#E5E5E5"/>
<rect x="230" y="10" width="3" height="3" fill="#E5E5E5"/>
<rect x="230" y="20" width="3" height="3" fill="#E5E5E5"/>
<rect x="230" y="30" width="3" height="3" fill="#E5E5E5"/>
<rect x="230" y="40" width="3" height="3" fill="#E5E5E5"/>
<rect x="230" y="50" width="3" height="3" fill="#E5E5E5"/>
<rect x="230" y="60" width="3" height="3" fill="#E5E5E5"/>
<rect x="230" y="70" width="3" height="3" fill="#E5E5E5"/>
<rect x="230" y="80" width="3" height="3" fill="#E5E5E5"/>
<rect x="230" y="90" width="3" height="3" fill="#E5E5E5"/>
<rect x="230" y="100" width="3" height="3" fill="#E5E5E5"/>
<rect x="230" y="110" width="3" height="3" fill="#E5E5E5"/>
<rect x="230" y="120" width="3" height="3" fill="#E5E5E5"/>
<rect x="230" y="130" width="3" height="3" fill="#E5E5E5"/>
<rect x="230" y="140" width="3" height="3" fill="#E5E5E5"/>
<rect x="240" width="3" height="3" fill="#E5E5E5"/>
<rect x="240" y="10" width="3" height="3" fill="#E5E5E5"/>
<rect x="240" y="20" width="3" height="3" fill="#E5E5E5"/>
<rect x="240" y="30" width="3" height="3" fill="#E5E5E5"/>
<rect x="240" y="40" width="3" height="3" fill="#E5E5E5"/>
<rect x="240" y="50" width="3" height="3" fill="#E5E5E5"/>
<rect x="240" y="60" width="3" height="3" fill="#E5E5E5"/>
<rect x="240" y="70" width="3" height="3" fill="#E5E5E5"/>
<rect x="240" y="80" width="3" height="3" fill="#E5E5E5"/>
<rect x="240" y="90" width="3" height="3" fill="#E5E5E5"/>
<rect x="240" y="100" width="3" height="3" fill="#E5E5E5"/>
<rect x="240" y="110" width="3" height="3" fill="#E5E5E5"/>
<rect x="240" y="120" width="3" height="3" fill="#E5E5E5"/>
<rect x="240" y="130" width="3" height="3" fill="#E5E5E5"/>
<rect x="240" y="140" width="3" height="3" fill="#E5E5E5"/>
<rect x="250" width="3" height="3" fill="#E5E5E5"/>
<rect x="250" y="10" width="3" height="3" fill="#E5E5E5"/>
<rect x="250" y="20" width="3" height="3" fill="#E5E5E5"/>
<rect x="250" y="30" width="3" height="3" fill="#E5E5E5"/>
<rect x="250" y="40" width="3" height="3" fill="#E5E5E5"/>
<rect x="250" y="50" width="3" height="3" fill="#E5E5E5"/>
<rect x="250" y="60" width="3" height="3" fill="#E5E5E5"/>
<rect x="250" y="70" width="3" height="3" fill="#E5E5E5"/>
<rect x="250" y="80" width="3" height="3" fill="#E5E5E5"/>
<rect x="250" y="90" width="3" height="3" fill="#E5E5E5"/>
<rect x="250" y="100" width="3" height="3" fill="#E5E5E5"/>
<rect x="250" y="110" width="3" height="3" fill="#E5E5E5"/>
<rect x="250" y="120" width="3" height="3" fill="#E5E5E5"/>
<rect x="250" y="130" width="3" height="3" fill="#E5E5E5"/>
<rect x="250" y="140" width="3" height="3" fill="#E5E5E5"/>
<rect x="260" width="3" height="3" fill="#E5E5E5"/>
<rect x="260" y="10" width="3" height="3" fill="#E5E5E5"/>
<rect x="260" y="20" width="3" height="3" fill="#E5E5E5"/>
<rect x="260" y="30" width="3" height="3" fill="#E5E5E5"/>
<rect x="260" y="40" width="3" height="3" fill="#E5E5E5"/>
<rect x="260" y="50" width="3" height="3" fill="#E5E5E5"/>
<rect x="260" y="60" width="3" height="3" fill="#E5E5E5"/>
<rect x="260" y="70" width="3" height="3" fill="#E5E5E5"/>
<rect x="260" y="80" width="3" height="3" fill="#E5E5E5"/>
<rect x="260" y="90" width="3" height="3" fill="#E5E5E5"/>
<rect x="260" y="100" width="3" height="3" fill="#E5E5E5"/>
<rect x="260" y="110" width="3" height="3" fill="#E5E5E5"/>
<rect x="260" y="120" width="3" height="3" fill="#E5E5E5"/>
<rect x="260" y="130" width="3" height="3" fill="#E5E5E5"/>
<rect x="260" y="140" width="3" height="3" fill="#E5E5E5"/>
<rect x="270" width="3" height="3" fill="#E5E5E5"/>
<rect x="270" y="10" width="3" height="3" fill="#E5E5E5"/>
<rect x="270" y="20" width="3" height="3" fill="#E5E5E5"/>
<rect x="270" y="30" width="3" height="3" fill="#E5E5E5"/>
<rect x="270" y="40" width="3" height="3" fill="#E5E5E5"/>
<rect x="270" y="50" width="3" height="3" fill="#E5E5E5"/>
<rect x="270" y="60" width="3" height="3" fill="#E5E5E5"/>
<rect x="270" y="70" width="3" height="3" fill="#E5E5E5"/>
<rect x="270" y="80" width="3" height="3" fill="#E5E5E5"/>
<rect x="270" y="90" width="3" height="3" fill="#E5E5E5"/>
<rect x="270" y="100" width="3" height="3" fill="#E5E5E5"/>
<rect x="270" y="110" width="3" height="3" fill="#E5E5E5"/>
<rect x="270" y="120" width="3" height="3" fill="#E5E5E5"/>
<rect x="270" y="130" width="3" height="3" fill="#E5E5E5"/>
<rect x="270" y="140" width="3" height="3" fill="#E5E5E5"/>
<rect x="280" width="3" height="3" fill="#E5E5E5"/>
<rect x="280" y="10" width="3" height="3" fill="#E5E5E5"/>
<rect x="280" y="20" width="3" height="3" fill="#E5E5E5"/>
<rect x="280" y="30" width="3" height="3" fill="#E5E5E5"/>
<rect x="280" y="40" width="3" height="3" fill="#E5E5E5"/>
<rect x="280" y="50" width="3" height="3" fill="#E5E5E5"/>
<rect x="280" y="60" width="3" height="3" fill="#E5E5E5"/>
<rect x="280" y="70" width="3" height="3" fill="#E5E5E5"/>
<rect x="280" y="80" width="3" height="3" fill="#E5E5E5"/>
<rect x="280" y="90" width="3" height="3" fill="#E5E5E5"/>
<rect x="280" y="100" width="3" height="3" fill="#E5E5E5"/>
<rect x="280" y="110" width="3" height="3" fill="#E5E5E5"/>
<rect x="280" y="120" width="3" height="3" fill="#E5E5E5"/>
<rect x="280" y="130" width="3" height="3" fill="#E5E5E5"/>
<rect x="280" y="140" width="3" height="3" fill="#E5E5E5"/>
<rect x="290" width="3" height="3" fill="#E5E5E5"/>
<rect x="290" y="10" width="3" height="3" fill="#E5E5E5"/>
<rect x="290" y="20" width="3" height="3" fill="#E5E5E5"/>
<rect x="290" y="30" width="3" height="3" fill="#E5E5E5"/>
<rect x="290" y="40" width="3" height="3" fill="#E5E5E5"/>
<rect x="290" y="50" width="3" height="3" fill="#E5E5E5"/>
<rect x="290" y="60" width="3" height="3" fill="#E5E5E5"/>
<rect x="290" y="70" width="3" height="3" fill="#E5E5E5"/>
<rect x="290" y="80" width="3" height="3" fill="#E5E5E5"/>
<rect x="290" y="90" width="3" height="3" fill="#E5E5E5"/>
<rect x="290" y="100" width="3" height="3" fill="#E5E5E5"/>
<rect x="290" y="110" width="3" height="3" fill="#E5E5E5"/>
<rect x="290" y="120" width="3" height="3" fill="#E5E5E5"/>
<rect x="290" y="130" width="3" height="3" fill="#E5E5E5"/>
<rect x="290" y="140" width="3" height="3" fill="#E5E5E5"/>
</svg>
