<svg width="177" height="177" viewBox="0 0 177 177" fill="none" xmlns="http://www.w3.org/2000/svg">
<rect x="0.930664" y="37.9419" width="3" height="3" transform="rotate(-15 0.930664 37.9419)" fill="white"/>
<rect x="3.5188" y="47.6012" width="3" height="3" transform="rotate(-15 3.5188 47.6012)" fill="white"/>
<rect x="6.10693" y="57.2604" width="3" height="3" transform="rotate(-15 6.10693 57.2604)" fill="white"/>
<rect x="8.69531" y="66.9197" width="3" height="3" transform="rotate(-15 8.69531 66.9197)" fill="white"/>
<rect x="11.2834" y="76.5789" width="3" height="3" transform="rotate(-15 11.2834 76.5789)" fill="white"/>
<rect x="13.8716" y="86.2382" width="3" height="3" transform="rotate(-15 13.8716 86.2382)" fill="white"/>
<rect x="16.4597" y="95.8974" width="3" height="3" transform="rotate(-15 16.4597 95.8974)" fill="white"/>
<rect x="19.0481" y="105.557" width="3" height="3" transform="rotate(-15 19.0481 105.557)" fill="white"/>
<rect x="21.6362" y="115.216" width="3" height="3" transform="rotate(-15 21.6362 115.216)" fill="white"/>
<rect x="24.2244" y="124.875" width="3" height="3" transform="rotate(-15 24.2244 124.875)" fill="white"/>
<rect x="26.8125" y="134.534" width="3" height="3" transform="rotate(-15 26.8125 134.534)" fill="white"/>
<rect x="29.4009" y="144.194" width="3" height="3" transform="rotate(-15 29.4009 144.194)" fill="white"/>
<rect x="31.989" y="153.853" width="3" height="3" transform="rotate(-15 31.989 153.853)" fill="white"/>
<rect x="34.5771" y="163.512" width="3" height="3" transform="rotate(-15 34.5771 163.512)" fill="white"/>
<rect x="37.1653" y="173.172" width="3" height="3" transform="rotate(-15 37.1653 173.172)" fill="white"/>
<rect x="10.5898" y="35.3537" width="3" height="3" transform="rotate(-15 10.5898 35.3537)" fill="white"/>
<rect x="13.1782" y="45.013" width="3" height="3" transform="rotate(-15 13.1782 45.013)" fill="white"/>
<rect x="15.7664" y="54.6722" width="3" height="3" transform="rotate(-15 15.7664 54.6722)" fill="white"/>
<rect x="18.3545" y="64.3315" width="3" height="3" transform="rotate(-15 18.3545 64.3315)" fill="white"/>
<rect x="20.9426" y="73.9907" width="3" height="3" transform="rotate(-15 20.9426 73.9907)" fill="white"/>
<rect x="23.5308" y="83.65" width="3" height="3" transform="rotate(-15 23.5308 83.65)" fill="white"/>
<rect x="26.1191" y="93.3093" width="3" height="3" transform="rotate(-15 26.1191 93.3093)" fill="white"/>
<rect x="28.7073" y="102.969" width="3" height="3" transform="rotate(-15 28.7073 102.969)" fill="white"/>
<rect x="31.2954" y="112.628" width="3" height="3" transform="rotate(-15 31.2954 112.628)" fill="white"/>
<rect x="33.8835" y="122.287" width="3" height="3" transform="rotate(-15 33.8835 122.287)" fill="white"/>
<rect x="36.4719" y="131.946" width="3" height="3" transform="rotate(-15 36.4719 131.946)" fill="white"/>
<rect x="39.0601" y="141.606" width="3" height="3" transform="rotate(-15 39.0601 141.606)" fill="white"/>
<rect x="41.6482" y="151.265" width="3" height="3" transform="rotate(-15 41.6482 151.265)" fill="white"/>
<rect x="44.2363" y="160.924" width="3" height="3" transform="rotate(-15 44.2363 160.924)" fill="white"/>
<rect x="46.8247" y="170.583" width="3" height="3" transform="rotate(-15 46.8247 170.583)" fill="white"/>
<rect x="20.2493" y="32.7655" width="3" height="3" transform="rotate(-15 20.2493 32.7655)" fill="white"/>
<rect x="22.8374" y="42.4248" width="3" height="3" transform="rotate(-15 22.8374 42.4248)" fill="white"/>
<rect x="25.4255" y="52.084" width="3" height="3" transform="rotate(-15 25.4255 52.084)" fill="white"/>
<rect x="28.0137" y="61.7433" width="3" height="3" transform="rotate(-15 28.0137 61.7433)" fill="white"/>
<rect x="30.6021" y="71.4025" width="3" height="3" transform="rotate(-15 30.6021 71.4025)" fill="white"/>
<rect x="33.1902" y="81.0618" width="3" height="3" transform="rotate(-15 33.1902 81.0618)" fill="white"/>
<rect x="35.7783" y="90.7211" width="3" height="3" transform="rotate(-15 35.7783 90.7211)" fill="white"/>
<rect x="38.3665" y="100.38" width="3" height="3" transform="rotate(-15 38.3665 100.38)" fill="white"/>
<rect x="40.9546" y="110.04" width="3" height="3" transform="rotate(-15 40.9546 110.04)" fill="white"/>
<rect x="43.543" y="119.699" width="3" height="3" transform="rotate(-15 43.543 119.699)" fill="white"/>
<rect x="46.1311" y="129.358" width="3" height="3" transform="rotate(-15 46.1311 129.358)" fill="white"/>
<rect x="48.7192" y="139.017" width="3" height="3" transform="rotate(-15 48.7192 139.017)" fill="white"/>
<rect x="51.3074" y="148.677" width="3" height="3" transform="rotate(-15 51.3074 148.677)" fill="white"/>
<rect x="53.8958" y="158.336" width="3" height="3" transform="rotate(-15 53.8958 158.336)" fill="white"/>
<rect x="56.4839" y="167.995" width="3" height="3" transform="rotate(-15 56.4839 167.995)" fill="white"/>
<rect x="29.9084" y="30.1773" width="3" height="3" transform="rotate(-15 29.9084 30.1773)" fill="white"/>
<rect x="32.4966" y="39.8366" width="3" height="3" transform="rotate(-15 32.4966 39.8366)" fill="white"/>
<rect x="35.0847" y="49.4958" width="3" height="3" transform="rotate(-15 35.0847 49.4958)" fill="white"/>
<rect x="37.6731" y="59.1551" width="3" height="3" transform="rotate(-15 37.6731 59.1551)" fill="white"/>
<rect x="40.2612" y="68.8144" width="3" height="3" transform="rotate(-15 40.2612 68.8144)" fill="white"/>
<rect x="42.8494" y="78.4736" width="3" height="3" transform="rotate(-15 42.8494 78.4736)" fill="white"/>
<rect x="45.4375" y="88.1329" width="3" height="3" transform="rotate(-15 45.4375 88.1329)" fill="white"/>
<rect x="48.0259" y="97.7921" width="3" height="3" transform="rotate(-15 48.0259 97.7921)" fill="white"/>
<rect x="50.614" y="107.451" width="3" height="3" transform="rotate(-15 50.614 107.451)" fill="white"/>
<rect x="53.2021" y="117.111" width="3" height="3" transform="rotate(-15 53.2021 117.111)" fill="white"/>
<rect x="55.7903" y="126.77" width="3" height="3" transform="rotate(-15 55.7903 126.77)" fill="white"/>
<rect x="58.3784" y="136.429" width="3" height="3" transform="rotate(-15 58.3784 136.429)" fill="white"/>
<rect x="60.9668" y="146.088" width="3" height="3" transform="rotate(-15 60.9668 146.088)" fill="white"/>
<rect x="63.5549" y="155.748" width="3" height="3" transform="rotate(-15 63.5549 155.748)" fill="white"/>
<rect x="66.1431" y="165.407" width="3" height="3" transform="rotate(-15 66.1431 165.407)" fill="white"/>
<rect x="39.5676" y="27.5891" width="3" height="3" transform="rotate(-15 39.5676 27.5891)" fill="white"/>
<rect x="42.156" y="37.2484" width="3" height="3" transform="rotate(-15 42.156 37.2484)" fill="white"/>
<rect x="44.7441" y="46.9076" width="3" height="3" transform="rotate(-15 44.7441 46.9076)" fill="white"/>
<rect x="47.3323" y="56.5669" width="3" height="3" transform="rotate(-15 47.3323 56.5669)" fill="white"/>
<rect x="49.9204" y="66.2262" width="3" height="3" transform="rotate(-15 49.9204 66.2262)" fill="white"/>
<rect x="52.5085" y="75.8854" width="3" height="3" transform="rotate(-15 52.5085 75.8854)" fill="white"/>
<rect x="55.0969" y="85.5447" width="3" height="3" transform="rotate(-15 55.0969 85.5447)" fill="white"/>
<rect x="57.6851" y="95.2039" width="3" height="3" transform="rotate(-15 57.6851 95.2039)" fill="white"/>
<rect x="60.2732" y="104.863" width="3" height="3" transform="rotate(-15 60.2732 104.863)" fill="white"/>
<rect x="62.8613" y="114.522" width="3" height="3" transform="rotate(-15 62.8613 114.522)" fill="white"/>
<rect x="65.4497" y="124.182" width="3" height="3" transform="rotate(-15 65.4497 124.182)" fill="white"/>
<rect x="68.0378" y="133.841" width="3" height="3" transform="rotate(-15 68.0378 133.841)" fill="white"/>
<rect x="70.626" y="143.5" width="3" height="3" transform="rotate(-15 70.626 143.5)" fill="white"/>
<rect x="73.2141" y="153.159" width="3" height="3" transform="rotate(-15 73.2141 153.159)" fill="white"/>
<rect x="75.8022" y="162.819" width="3" height="3" transform="rotate(-15 75.8022 162.819)" fill="white"/>
<rect x="49.2271" y="25.0009" width="3" height="3" transform="rotate(-15 49.2271 25.0009)" fill="white"/>
<rect x="51.8152" y="34.6602" width="3" height="3" transform="rotate(-15 51.8152 34.6602)" fill="white"/>
<rect x="54.4033" y="44.3195" width="3" height="3" transform="rotate(-15 54.4033 44.3195)" fill="white"/>
<rect x="56.9915" y="53.9787" width="3" height="3" transform="rotate(-15 56.9915 53.9787)" fill="white"/>
<rect x="59.5798" y="63.638" width="3" height="3" transform="rotate(-15 59.5798 63.638)" fill="white"/>
<rect x="62.168" y="73.2972" width="3" height="3" transform="rotate(-15 62.168 73.2972)" fill="white"/>
<rect x="64.7561" y="82.9565" width="3" height="3" transform="rotate(-15 64.7561 82.9565)" fill="white"/>
<rect x="67.3442" y="92.6157" width="3" height="3" transform="rotate(-15 67.3442 92.6157)" fill="white"/>
<rect x="69.9324" y="102.275" width="3" height="3" transform="rotate(-15 69.9324 102.275)" fill="white"/>
<rect x="72.5208" y="111.934" width="3" height="3" transform="rotate(-15 72.5208 111.934)" fill="white"/>
<rect x="75.1089" y="121.594" width="3" height="3" transform="rotate(-15 75.1089 121.594)" fill="white"/>
<rect x="77.697" y="131.253" width="3" height="3" transform="rotate(-15 77.697 131.253)" fill="white"/>
<rect x="80.2852" y="140.912" width="3" height="3" transform="rotate(-15 80.2852 140.912)" fill="white"/>
<rect x="82.8735" y="150.571" width="3" height="3" transform="rotate(-15 82.8735 150.571)" fill="white"/>
<rect x="85.4617" y="160.231" width="3" height="3" transform="rotate(-15 85.4617 160.231)" fill="white"/>
<rect x="58.8862" y="22.4128" width="3" height="3" transform="rotate(-15 58.8862 22.4128)" fill="white"/>
<rect x="61.4744" y="32.072" width="3" height="3" transform="rotate(-15 61.4744 32.072)" fill="white"/>
<rect x="64.0625" y="41.7313" width="3" height="3" transform="rotate(-15 64.0625 41.7313)" fill="white"/>
<rect x="66.6509" y="51.3905" width="3" height="3" transform="rotate(-15 66.6509 51.3905)" fill="white"/>
<rect x="69.239" y="61.0498" width="3" height="3" transform="rotate(-15 69.239 61.0498)" fill="white"/>
<rect x="71.8271" y="70.709" width="3" height="3" transform="rotate(-15 71.8271 70.709)" fill="white"/>
<rect x="74.4153" y="80.3683" width="3" height="3" transform="rotate(-15 74.4153 80.3683)" fill="white"/>
<rect x="77.0037" y="90.0276" width="3" height="3" transform="rotate(-15 77.0037 90.0276)" fill="white"/>
<rect x="79.5918" y="99.6868" width="3" height="3" transform="rotate(-15 79.5918 99.6868)" fill="white"/>
<rect x="82.1799" y="109.346" width="3" height="3" transform="rotate(-15 82.1799 109.346)" fill="white"/>
<rect x="84.7681" y="119.005" width="3" height="3" transform="rotate(-15 84.7681 119.005)" fill="white"/>
<rect x="87.3562" y="128.665" width="3" height="3" transform="rotate(-15 87.3562 128.665)" fill="white"/>
<rect x="89.9446" y="138.324" width="3" height="3" transform="rotate(-15 89.9446 138.324)" fill="white"/>
<rect x="92.5327" y="147.983" width="3" height="3" transform="rotate(-15 92.5327 147.983)" fill="white"/>
<rect x="95.1208" y="157.642" width="3" height="3" transform="rotate(-15 95.1208 157.642)" fill="white"/>
<rect x="68.5454" y="19.8246" width="3" height="3" transform="rotate(-15 68.5454 19.8246)" fill="white"/>
<rect x="71.1335" y="29.4838" width="3" height="3" transform="rotate(-15 71.1335 29.4838)" fill="white"/>
<rect x="73.7219" y="39.1431" width="3" height="3" transform="rotate(-15 73.7219 39.1431)" fill="white"/>
<rect x="76.3101" y="48.8023" width="3" height="3" transform="rotate(-15 76.3101 48.8023)" fill="white"/>
<rect x="78.8982" y="58.4616" width="3" height="3" transform="rotate(-15 78.8982 58.4616)" fill="white"/>
<rect x="81.4863" y="68.1209" width="3" height="3" transform="rotate(-15 81.4863 68.1209)" fill="white"/>
<rect x="84.0747" y="77.7801" width="3" height="3" transform="rotate(-15 84.0747 77.7801)" fill="white"/>
<rect x="86.6628" y="87.4394" width="3" height="3" transform="rotate(-15 86.6628 87.4394)" fill="white"/>
<rect x="89.251" y="97.0986" width="3" height="3" transform="rotate(-15 89.251 97.0986)" fill="white"/>
<rect x="91.8391" y="106.758" width="3" height="3" transform="rotate(-15 91.8391 106.758)" fill="white"/>
<rect x="94.4275" y="116.417" width="3" height="3" transform="rotate(-15 94.4275 116.417)" fill="white"/>
<rect x="97.0156" y="126.076" width="3" height="3" transform="rotate(-15 97.0156 126.076)" fill="white"/>
<rect x="99.6038" y="135.736" width="3" height="3" transform="rotate(-15 99.6038 135.736)" fill="white"/>
<rect x="102.192" y="145.395" width="3" height="3" transform="rotate(-15 102.192 145.395)" fill="white"/>
<rect x="104.78" y="155.054" width="3" height="3" transform="rotate(-15 104.78 155.054)" fill="white"/>
<rect x="78.2048" y="17.2364" width="3" height="3" transform="rotate(-15 78.2048 17.2364)" fill="white"/>
<rect x="80.793" y="26.8956" width="3" height="3" transform="rotate(-15 80.793 26.8956)" fill="white"/>
<rect x="83.3811" y="36.5549" width="3" height="3" transform="rotate(-15 83.3811 36.5549)" fill="white"/>
<rect x="85.9692" y="46.2141" width="3" height="3" transform="rotate(-15 85.9692 46.2141)" fill="white"/>
<rect x="88.5574" y="55.8734" width="3" height="3" transform="rotate(-15 88.5574 55.8734)" fill="white"/>
<rect x="91.1458" y="65.5327" width="3" height="3" transform="rotate(-15 91.1458 65.5327)" fill="white"/>
<rect x="93.7339" y="75.1919" width="3" height="3" transform="rotate(-15 93.7339 75.1919)" fill="white"/>
<rect x="96.322" y="84.8512" width="3" height="3" transform="rotate(-15 96.322 84.8512)" fill="white"/>
<rect x="98.9102" y="94.5104" width="3" height="3" transform="rotate(-15 98.9102 94.5104)" fill="white"/>
<rect x="101.499" y="104.17" width="3" height="3" transform="rotate(-15 101.499 104.17)" fill="white"/>
<rect x="104.087" y="113.829" width="3" height="3" transform="rotate(-15 104.087 113.829)" fill="white"/>
<rect x="106.675" y="123.488" width="3" height="3" transform="rotate(-15 106.675 123.488)" fill="white"/>
<rect x="109.263" y="133.147" width="3" height="3" transform="rotate(-15 109.263 133.147)" fill="white"/>
<rect x="111.851" y="142.807" width="3" height="3" transform="rotate(-15 111.851 142.807)" fill="white"/>
<rect x="114.439" y="152.466" width="3" height="3" transform="rotate(-15 114.439 152.466)" fill="white"/>
<rect x="87.864" y="14.6482" width="3" height="3" transform="rotate(-15 87.864 14.6482)" fill="white"/>
<rect x="90.4521" y="24.3074" width="3" height="3" transform="rotate(-15 90.4521 24.3074)" fill="white"/>
<rect x="93.0403" y="33.9667" width="3" height="3" transform="rotate(-15 93.0403 33.9667)" fill="white"/>
<rect x="95.6287" y="43.626" width="3" height="3" transform="rotate(-15 95.6287 43.626)" fill="white"/>
<rect x="98.2168" y="53.2852" width="3" height="3" transform="rotate(-15 98.2168 53.2852)" fill="white"/>
<rect x="100.805" y="62.9445" width="3" height="3" transform="rotate(-15 100.805 62.9445)" fill="white"/>
<rect x="103.393" y="72.6037" width="3" height="3" transform="rotate(-15 103.393 72.6037)" fill="white"/>
<rect x="105.981" y="82.263" width="3" height="3" transform="rotate(-15 105.981 82.263)" fill="white"/>
<rect x="108.57" y="91.9222" width="3" height="3" transform="rotate(-15 108.57 91.9222)" fill="white"/>
<rect x="111.158" y="101.582" width="3" height="3" transform="rotate(-15 111.158 101.582)" fill="white"/>
<rect x="113.746" y="111.241" width="3" height="3" transform="rotate(-15 113.746 111.241)" fill="white"/>
<rect x="116.334" y="120.9" width="3" height="3" transform="rotate(-15 116.334 120.9)" fill="white"/>
<rect x="118.922" y="130.559" width="3" height="3" transform="rotate(-15 118.922 130.559)" fill="white"/>
<rect x="121.51" y="140.219" width="3" height="3" transform="rotate(-15 121.51 140.219)" fill="white"/>
<rect x="124.099" y="149.878" width="3" height="3" transform="rotate(-15 124.099 149.878)" fill="white"/>
<rect x="97.5232" y="12.06" width="3" height="3" transform="rotate(-15 97.5232 12.06)" fill="white"/>
<rect x="100.111" y="21.7192" width="3" height="3" transform="rotate(-15 100.111 21.7192)" fill="white"/>
<rect x="102.7" y="31.3785" width="3" height="3" transform="rotate(-15 102.7 31.3785)" fill="white"/>
<rect x="105.288" y="41.0378" width="3" height="3" transform="rotate(-15 105.288 41.0378)" fill="white"/>
<rect x="107.876" y="50.697" width="3" height="3" transform="rotate(-15 107.876 50.697)" fill="white"/>
<rect x="110.464" y="60.3563" width="3" height="3" transform="rotate(-15 110.464 60.3563)" fill="white"/>
<rect x="113.052" y="70.0155" width="3" height="3" transform="rotate(-15 113.052 70.0155)" fill="white"/>
<rect x="115.641" y="79.6748" width="3" height="3" transform="rotate(-15 115.641 79.6748)" fill="white"/>
<rect x="118.229" y="89.3341" width="3" height="3" transform="rotate(-15 118.229 89.3341)" fill="white"/>
<rect x="120.817" y="98.9933" width="3" height="3" transform="rotate(-15 120.817 98.9933)" fill="white"/>
<rect x="123.405" y="108.653" width="3" height="3" transform="rotate(-15 123.405 108.653)" fill="white"/>
<rect x="125.993" y="118.312" width="3" height="3" transform="rotate(-15 125.993 118.312)" fill="white"/>
<rect x="128.582" y="127.971" width="3" height="3" transform="rotate(-15 128.582 127.971)" fill="white"/>
<rect x="131.17" y="137.63" width="3" height="3" transform="rotate(-15 131.17 137.63)" fill="white"/>
<rect x="133.758" y="147.29" width="3" height="3" transform="rotate(-15 133.758 147.29)" fill="white"/>
<rect x="107.183" y="9.4718" width="3" height="3" transform="rotate(-15 107.183 9.4718)" fill="white"/>
<rect x="109.771" y="19.1311" width="3" height="3" transform="rotate(-15 109.771 19.1311)" fill="white"/>
<rect x="112.359" y="28.7903" width="3" height="3" transform="rotate(-15 112.359 28.7903)" fill="white"/>
<rect x="114.947" y="38.4496" width="3" height="3" transform="rotate(-15 114.947 38.4496)" fill="white"/>
<rect x="117.535" y="48.1088" width="3" height="3" transform="rotate(-15 117.535 48.1088)" fill="white"/>
<rect x="120.124" y="57.7681" width="3" height="3" transform="rotate(-15 120.124 57.7681)" fill="white"/>
<rect x="122.712" y="67.4273" width="3" height="3" transform="rotate(-15 122.712 67.4273)" fill="white"/>
<rect x="125.3" y="77.0866" width="3" height="3" transform="rotate(-15 125.3 77.0866)" fill="white"/>
<rect x="127.888" y="86.7459" width="3" height="3" transform="rotate(-15 127.888 86.7459)" fill="white"/>
<rect x="130.476" y="96.4051" width="3" height="3" transform="rotate(-15 130.476 96.4051)" fill="white"/>
<rect x="133.064" y="106.064" width="3" height="3" transform="rotate(-15 133.064 106.064)" fill="white"/>
<rect x="135.653" y="115.724" width="3" height="3" transform="rotate(-15 135.653 115.724)" fill="white"/>
<rect x="138.241" y="125.383" width="3" height="3" transform="rotate(-15 138.241 125.383)" fill="white"/>
<rect x="140.829" y="135.042" width="3" height="3" transform="rotate(-15 140.829 135.042)" fill="white"/>
<rect x="143.417" y="144.701" width="3" height="3" transform="rotate(-15 143.417 144.701)" fill="white"/>
<rect x="116.842" y="6.88361" width="3" height="3" transform="rotate(-15 116.842 6.88361)" fill="white"/>
<rect x="119.43" y="16.5429" width="3" height="3" transform="rotate(-15 119.43 16.5429)" fill="white"/>
<rect x="122.018" y="26.2021" width="3" height="3" transform="rotate(-15 122.018 26.2021)" fill="white"/>
<rect x="124.606" y="35.8614" width="3" height="3" transform="rotate(-15 124.606 35.8614)" fill="white"/>
<rect x="127.195" y="45.5206" width="3" height="3" transform="rotate(-15 127.195 45.5206)" fill="white"/>
<rect x="129.783" y="55.1799" width="3" height="3" transform="rotate(-15 129.783 55.1799)" fill="white"/>
<rect x="132.371" y="64.8392" width="3" height="3" transform="rotate(-15 132.371 64.8392)" fill="white"/>
<rect x="134.959" y="74.4984" width="3" height="3" transform="rotate(-15 134.959 74.4984)" fill="white"/>
<rect x="137.547" y="84.1577" width="3" height="3" transform="rotate(-15 137.547 84.1577)" fill="white"/>
<rect x="140.135" y="93.8169" width="3" height="3" transform="rotate(-15 140.135 93.8169)" fill="white"/>
<rect x="142.724" y="103.476" width="3" height="3" transform="rotate(-15 142.724 103.476)" fill="white"/>
<rect x="145.312" y="113.135" width="3" height="3" transform="rotate(-15 145.312 113.135)" fill="white"/>
<rect x="147.9" y="122.795" width="3" height="3" transform="rotate(-15 147.9 122.795)" fill="white"/>
<rect x="150.488" y="132.454" width="3" height="3" transform="rotate(-15 150.488 132.454)" fill="white"/>
<rect x="153.076" y="142.113" width="3" height="3" transform="rotate(-15 153.076 142.113)" fill="white"/>
<rect x="126.501" y="4.29542" width="3" height="3" transform="rotate(-15 126.501 4.29542)" fill="white"/>
<rect x="129.089" y="13.9547" width="3" height="3" transform="rotate(-15 129.089 13.9547)" fill="white"/>
<rect x="131.677" y="23.6139" width="3" height="3" transform="rotate(-15 131.677 23.6139)" fill="white"/>
<rect x="134.266" y="33.2732" width="3" height="3" transform="rotate(-15 134.266 33.2732)" fill="white"/>
<rect x="136.854" y="42.9325" width="3" height="3" transform="rotate(-15 136.854 42.9325)" fill="white"/>
<rect x="139.442" y="52.5917" width="3" height="3" transform="rotate(-15 139.442 52.5917)" fill="white"/>
<rect x="142.03" y="62.251" width="3" height="3" transform="rotate(-15 142.03 62.251)" fill="white"/>
<rect x="144.618" y="71.9102" width="3" height="3" transform="rotate(-15 144.618 71.9102)" fill="white"/>
<rect x="147.207" y="81.5695" width="3" height="3" transform="rotate(-15 147.207 81.5695)" fill="white"/>
<rect x="149.795" y="91.2287" width="3" height="3" transform="rotate(-15 149.795 91.2287)" fill="white"/>
<rect x="152.383" y="100.888" width="3" height="3" transform="rotate(-15 152.383 100.888)" fill="white"/>
<rect x="154.971" y="110.547" width="3" height="3" transform="rotate(-15 154.971 110.547)" fill="white"/>
<rect x="157.559" y="120.207" width="3" height="3" transform="rotate(-15 157.559 120.207)" fill="white"/>
<rect x="160.147" y="129.866" width="3" height="3" transform="rotate(-15 160.147 129.866)" fill="white"/>
<rect x="162.736" y="139.525" width="3" height="3" transform="rotate(-15 162.736 139.525)" fill="white"/>
<rect x="136.16" y="1.70723" width="3" height="3" transform="rotate(-15 136.16 1.70723)" fill="white"/>
<rect x="138.749" y="11.3665" width="3" height="3" transform="rotate(-15 138.749 11.3665)" fill="white"/>
<rect x="141.337" y="21.0257" width="3" height="3" transform="rotate(-15 141.337 21.0257)" fill="white"/>
<rect x="143.925" y="30.685" width="3" height="3" transform="rotate(-15 143.925 30.685)" fill="white"/>
<rect x="146.513" y="40.3443" width="3" height="3" transform="rotate(-15 146.513 40.3443)" fill="white"/>
<rect x="149.101" y="50.0035" width="3" height="3" transform="rotate(-15 149.101 50.0035)" fill="white"/>
<rect x="151.689" y="59.6628" width="3" height="3" transform="rotate(-15 151.689 59.6628)" fill="white"/>
<rect x="154.278" y="69.322" width="3" height="3" transform="rotate(-15 154.278 69.322)" fill="white"/>
<rect x="156.866" y="78.9813" width="3" height="3" transform="rotate(-15 156.866 78.9813)" fill="white"/>
<rect x="159.454" y="88.6406" width="3" height="3" transform="rotate(-15 159.454 88.6406)" fill="white"/>
<rect x="162.042" y="98.2998" width="3" height="3" transform="rotate(-15 162.042 98.2998)" fill="white"/>
<rect x="164.63" y="107.959" width="3" height="3" transform="rotate(-15 164.63 107.959)" fill="white"/>
<rect x="167.219" y="117.618" width="3" height="3" transform="rotate(-15 167.219 117.618)" fill="white"/>
<rect x="169.807" y="127.278" width="3" height="3" transform="rotate(-15 169.807 127.278)" fill="white"/>
<rect x="172.395" y="136.937" width="3" height="3" transform="rotate(-15 172.395 136.937)" fill="white"/>
</svg>
