<svg width="143" height="263" viewBox="0 0 143 263" fill="none" xmlns="http://www.w3.org/2000/svg">
<rect width="3" height="3" fill="#E5E6E6"/>
<rect y="10" width="3" height="3" fill="#E5E6E6"/>
<rect y="20" width="3" height="3" fill="#E5E6E6"/>
<rect y="30" width="3" height="3" fill="#E5E6E6"/>
<rect y="40" width="3" height="3" fill="#E5E6E6"/>
<rect y="50" width="3" height="3" fill="#E5E6E6"/>
<rect y="60" width="3" height="3" fill="#E5E6E6"/>
<rect y="70" width="3" height="3" fill="#E5E6E6"/>
<rect y="80" width="3" height="3" fill="#E5E6E6"/>
<rect y="90" width="3" height="3" fill="#E5E6E6"/>
<rect y="100" width="3" height="3" fill="#E5E6E6"/>
<rect y="110" width="3" height="3" fill="#E5E6E6"/>
<rect y="120" width="3" height="3" fill="#E5E6E6"/>
<rect y="130" width="3" height="3" fill="#E5E6E6"/>
<rect y="140" width="3" height="3" fill="#E5E6E6"/>
<rect x="10" width="3" height="3" fill="#E5E6E6"/>
<rect x="10" y="10" width="3" height="3" fill="#E5E6E6"/>
<rect x="10" y="20" width="3" height="3" fill="#E5E6E6"/>
<rect x="10" y="30" width="3" height="3" fill="#E5E6E6"/>
<rect x="10" y="40" width="3" height="3" fill="#E5E6E6"/>
<rect x="10" y="50" width="3" height="3" fill="#E5E6E6"/>
<rect x="10" y="60" width="3" height="3" fill="#E5E6E6"/>
<rect x="10" y="70" width="3" height="3" fill="#E5E6E6"/>
<rect x="10" y="80" width="3" height="3" fill="#E5E6E6"/>
<rect x="10" y="90" width="3" height="3" fill="#E5E6E6"/>
<rect x="10" y="100" width="3" height="3" fill="#E5E6E6"/>
<rect x="10" y="110" width="3" height="3" fill="#E5E6E6"/>
<rect x="10" y="120" width="3" height="3" fill="#E5E6E6"/>
<rect x="10" y="130" width="3" height="3" fill="#E5E6E6"/>
<rect x="10" y="140" width="3" height="3" fill="#E5E6E6"/>
<rect x="20" width="3" height="3" fill="#E5E6E6"/>
<rect x="20" y="10" width="3" height="3" fill="#E5E6E6"/>
<rect x="20" y="20" width="3" height="3" fill="#E5E6E6"/>
<rect x="20" y="30" width="3" height="3" fill="#E5E6E6"/>
<rect x="20" y="40" width="3" height="3" fill="#E5E6E6"/>
<rect x="20" y="50" width="3" height="3" fill="#E5E6E6"/>
<rect x="20" y="60" width="3" height="3" fill="#E5E6E6"/>
<rect x="20" y="70" width="3" height="3" fill="#E5E6E6"/>
<rect x="20" y="80" width="3" height="3" fill="#E5E6E6"/>
<rect x="20" y="90" width="3" height="3" fill="#E5E6E6"/>
<rect x="20" y="100" width="3" height="3" fill="#E5E6E6"/>
<rect x="20" y="110" width="3" height="3" fill="#E5E6E6"/>
<rect x="20" y="120" width="3" height="3" fill="#E5E6E6"/>
<rect x="20" y="130" width="3" height="3" fill="#E5E6E6"/>
<rect x="20" y="140" width="3" height="3" fill="#E5E6E6"/>
<rect x="30" width="3" height="3" fill="#E5E6E6"/>
<rect x="30" y="10" width="3" height="3" fill="#E5E6E6"/>
<rect x="30" y="20" width="3" height="3" fill="#E5E6E6"/>
<rect x="30" y="30" width="3" height="3" fill="#E5E6E6"/>
<rect x="30" y="40" width="3" height="3" fill="#E5E6E6"/>
<rect x="30" y="50" width="3" height="3" fill="#E5E6E6"/>
<rect x="30" y="60" width="3" height="3" fill="#E5E6E6"/>
<rect x="30" y="70" width="3" height="3" fill="#E5E6E6"/>
<rect x="30" y="80" width="3" height="3" fill="#E5E6E6"/>
<rect x="30" y="90" width="3" height="3" fill="#E5E6E6"/>
<rect x="30" y="100" width="3" height="3" fill="#E5E6E6"/>
<rect x="30" y="110" width="3" height="3" fill="#E5E6E6"/>
<rect x="30" y="120" width="3" height="3" fill="#E5E6E6"/>
<rect x="30" y="130" width="3" height="3" fill="#E5E6E6"/>
<rect x="30" y="140" width="3" height="3" fill="#E5E6E6"/>
<rect x="40" width="3" height="3" fill="#E5E6E6"/>
<rect x="40" y="10" width="3" height="3" fill="#E5E6E6"/>
<rect x="40" y="20" width="3" height="3" fill="#E5E6E6"/>
<rect x="40" y="30" width="3" height="3" fill="#E5E6E6"/>
<rect x="40" y="40" width="3" height="3" fill="#E5E6E6"/>
<rect x="40" y="50" width="3" height="3" fill="#E5E6E6"/>
<rect x="40" y="60" width="3" height="3" fill="#E5E6E6"/>
<rect x="40" y="70" width="3" height="3" fill="#E5E6E6"/>
<rect x="40" y="80" width="3" height="3" fill="#E5E6E6"/>
<rect x="40" y="90" width="3" height="3" fill="#E5E6E6"/>
<rect x="40" y="100" width="3" height="3" fill="#E5E6E6"/>
<rect x="40" y="110" width="3" height="3" fill="#E5E6E6"/>
<rect x="40" y="120" width="3" height="3" fill="#E5E6E6"/>
<rect x="40" y="130" width="3" height="3" fill="#E5E6E6"/>
<rect x="40" y="140" width="3" height="3" fill="#E5E6E6"/>
<rect x="50" y="100" width="3" height="3" fill="#E5E6E6"/>
<rect x="50" y="110" width="3" height="3" fill="#E5E6E6"/>
<rect x="50" y="120" width="3" height="3" fill="#E5E6E6"/>
<rect x="50" y="130" width="3" height="3" fill="#E5E6E6"/>
<rect x="50" y="140" width="3" height="3" fill="#E5E6E6"/>
<rect x="60" y="100" width="3" height="3" fill="#E5E6E6"/>
<rect x="60" y="110" width="3" height="3" fill="#E5E6E6"/>
<rect x="60" y="120" width="3" height="3" fill="#E5E6E6"/>
<rect x="60" y="130" width="3" height="3" fill="#E5E6E6"/>
<rect x="60" y="140" width="3" height="3" fill="#E5E6E6"/>
<rect x="70" y="100" width="3" height="3" fill="#E5E6E6"/>
<rect x="70" y="110" width="3" height="3" fill="#E5E6E6"/>
<rect x="70" y="120" width="3" height="3" fill="#E5E6E6"/>
<rect x="70" y="130" width="3" height="3" fill="#E5E6E6"/>
<rect x="70" y="140" width="3" height="3" fill="#E5E6E6"/>
<rect x="80" y="100" width="3" height="3" fill="#E5E6E6"/>
<rect x="80" y="110" width="3" height="3" fill="#E5E6E6"/>
<rect x="80" y="120" width="3" height="3" fill="#E5E6E6"/>
<rect x="80" y="130" width="3" height="3" fill="#E5E6E6"/>
<rect x="80" y="140" width="3" height="3" fill="#E5E6E6"/>
<rect x="90" y="100" width="3" height="3" fill="#E5E6E6"/>
<rect x="90" y="110" width="3" height="3" fill="#E5E6E6"/>
<rect x="90" y="120" width="3" height="3" fill="#E5E6E6"/>
<rect x="90" y="130" width="3" height="3" fill="#E5E6E6"/>
<rect x="90" y="140" width="3" height="3" fill="#E5E6E6"/>
<rect x="100" y="100" width="3" height="3" fill="#E5E6E6"/>
<rect x="100" y="110" width="3" height="3" fill="#E5E6E6"/>
<rect x="100" y="120" width="3" height="3" fill="#E5E6E6"/>
<rect x="100" y="130" width="3" height="3" fill="#E5E6E6"/>
<rect x="100" y="140" width="3" height="3" fill="#E5E6E6"/>
<rect x="110" y="100" width="3" height="3" fill="#E5E6E6"/>
<rect x="110" y="110" width="3" height="3" fill="#E5E6E6"/>
<rect x="110" y="120" width="3" height="3" fill="#E5E6E6"/>
<rect x="110" y="130" width="3" height="3" fill="#E5E6E6"/>
<rect x="110" y="140" width="3" height="3" fill="#E5E6E6"/>
<rect x="120" y="100" width="3" height="3" fill="#E5E6E6"/>
<rect x="120" y="110" width="3" height="3" fill="#E5E6E6"/>
<rect x="120" y="120" width="3" height="3" fill="#E5E6E6"/>
<rect x="120" y="130" width="3" height="3" fill="#E5E6E6"/>
<rect x="120" y="140" width="3" height="3" fill="#E5E6E6"/>
<rect x="130" y="100" width="3" height="3" fill="#E5E6E6"/>
<rect x="130" y="110" width="3" height="3" fill="#E5E6E6"/>
<rect x="130" y="120" width="3" height="3" fill="#E5E6E6"/>
<rect x="130" y="130" width="3" height="3" fill="#E5E6E6"/>
<rect x="130" y="140" width="3" height="3" fill="#E5E6E6"/>
<rect x="140" y="100" width="3" height="3" fill="#E5E6E6"/>
<rect x="140" y="110" width="3" height="3" fill="#E5E6E6"/>
<rect x="140" y="120" width="3" height="3" fill="#E5E6E6"/>
<rect x="140" y="130" width="3" height="3" fill="#E5E6E6"/>
<rect x="140" y="140" width="3" height="3" fill="#E5E6E6"/>
<rect y="150" width="3" height="3" fill="#E5E6E6"/>
<rect y="160" width="3" height="3" fill="#E5E6E6"/>
<rect y="170" width="3" height="3" fill="#E5E6E6"/>
<rect y="180" width="3" height="3" fill="#E5E6E6"/>
<rect y="190" width="3" height="3" fill="#E5E6E6"/>
<rect y="200" width="3" height="3" fill="#E5E6E6"/>
<rect x="10" y="150" width="3" height="3" fill="#E5E6E6"/>
<rect x="10" y="160" width="3" height="3" fill="#E5E6E6"/>
<rect x="10" y="170" width="3" height="3" fill="#E5E6E6"/>
<rect x="10" y="180" width="3" height="3" fill="#E5E6E6"/>
<rect x="10" y="190" width="3" height="3" fill="#E5E6E6"/>
<rect x="10" y="200" width="3" height="3" fill="#E5E6E6"/>
<rect x="20" y="150" width="3" height="3" fill="#E5E6E6"/>
<rect x="20" y="160" width="3" height="3" fill="#E5E6E6"/>
<rect x="20" y="170" width="3" height="3" fill="#E5E6E6"/>
<rect x="20" y="180" width="3" height="3" fill="#E5E6E6"/>
<rect x="20" y="190" width="3" height="3" fill="#E5E6E6"/>
<rect x="20" y="200" width="3" height="3" fill="#E5E6E6"/>
<rect x="30" y="150" width="3" height="3" fill="#E5E6E6"/>
<rect x="30" y="160" width="3" height="3" fill="#E5E6E6"/>
<rect x="30" y="170" width="3" height="3" fill="#E5E6E6"/>
<rect x="30" y="180" width="3" height="3" fill="#E5E6E6"/>
<rect x="30" y="190" width="3" height="3" fill="#E5E6E6"/>
<rect x="30" y="200" width="3" height="3" fill="#E5E6E6"/>
<rect x="40" y="150" width="3" height="3" fill="#E5E6E6"/>
<rect x="40" y="160" width="3" height="3" fill="#E5E6E6"/>
<rect x="40" y="170" width="3" height="3" fill="#E5E6E6"/>
<rect x="40" y="180" width="3" height="3" fill="#E5E6E6"/>
<rect x="40" y="190" width="3" height="3" fill="#E5E6E6"/>
<rect x="40" y="200" width="3" height="3" fill="#E5E6E6"/>
<rect x="50" y="150" width="3" height="3" fill="#E5E6E6"/>
<rect x="50" y="160" width="3" height="3" fill="#E5E6E6"/>
<rect x="50" y="170" width="3" height="3" fill="#E5E6E6"/>
<rect x="50" y="180" width="3" height="3" fill="#E5E6E6"/>
<rect x="50" y="190" width="3" height="3" fill="#E5E6E6"/>
<rect x="50" y="200" width="3" height="3" fill="#E5E6E6"/>
<rect x="60" y="150" width="3" height="3" fill="#E5E6E6"/>
<rect x="60" y="160" width="3" height="3" fill="#E5E6E6"/>
<rect x="60" y="170" width="3" height="3" fill="#E5E6E6"/>
<rect x="60" y="180" width="3" height="3" fill="#E5E6E6"/>
<rect x="60" y="190" width="3" height="3" fill="#E5E6E6"/>
<rect x="60" y="200" width="3" height="3" fill="#E5E6E6"/>
<rect x="70" y="150" width="3" height="3" fill="#E5E6E6"/>
<rect x="70" y="160" width="3" height="3" fill="#E5E6E6"/>
<rect x="70" y="170" width="3" height="3" fill="#E5E6E6"/>
<rect x="70" y="180" width="3" height="3" fill="#E5E6E6"/>
<rect x="70" y="190" width="3" height="3" fill="#E5E6E6"/>
<rect x="70" y="200" width="3" height="3" fill="#E5E6E6"/>
<rect x="80" y="150" width="3" height="3" fill="#E5E6E6"/>
<rect x="80" y="160" width="3" height="3" fill="#E5E6E6"/>
<rect x="80" y="170" width="3" height="3" fill="#E5E6E6"/>
<rect x="80" y="180" width="3" height="3" fill="#E5E6E6"/>
<rect x="80" y="190" width="3" height="3" fill="#E5E6E6"/>
<rect x="80" y="200" width="3" height="3" fill="#E5E6E6"/>
<rect x="90" y="150" width="3" height="3" fill="#E5E6E6"/>
<rect x="90" y="160" width="3" height="3" fill="#E5E6E6"/>
<rect x="90" y="170" width="3" height="3" fill="#E5E6E6"/>
<rect x="90" y="180" width="3" height="3" fill="#E5E6E6"/>
<rect x="90" y="190" width="3" height="3" fill="#E5E6E6"/>
<rect x="90" y="200" width="3" height="3" fill="#E5E6E6"/>
<rect x="100" y="150" width="3" height="3" fill="#E5E6E6"/>
<rect x="100" y="160" width="3" height="3" fill="#E5E6E6"/>
<rect x="100" y="170" width="3" height="3" fill="#E5E6E6"/>
<rect x="100" y="180" width="3" height="3" fill="#E5E6E6"/>
<rect x="100" y="190" width="3" height="3" fill="#E5E6E6"/>
<rect x="100" y="200" width="3" height="3" fill="#E5E6E6"/>
<rect x="110" y="150" width="3" height="3" fill="#E5E6E6"/>
<rect x="110" y="160" width="3" height="3" fill="#E5E6E6"/>
<rect x="110" y="170" width="3" height="3" fill="#E5E6E6"/>
<rect x="110" y="180" width="3" height="3" fill="#E5E6E6"/>
<rect x="110" y="190" width="3" height="3" fill="#E5E6E6"/>
<rect x="110" y="200" width="3" height="3" fill="#E5E6E6"/>
<rect x="120" y="150" width="3" height="3" fill="#E5E6E6"/>
<rect x="120" y="160" width="3" height="3" fill="#E5E6E6"/>
<rect x="120" y="170" width="3" height="3" fill="#E5E6E6"/>
<rect x="120" y="180" width="3" height="3" fill="#E5E6E6"/>
<rect x="120" y="190" width="3" height="3" fill="#E5E6E6"/>
<rect x="120" y="200" width="3" height="3" fill="#E5E6E6"/>
<rect x="130" y="150" width="3" height="3" fill="#E5E6E6"/>
<rect x="130" y="160" width="3" height="3" fill="#E5E6E6"/>
<rect x="130" y="170" width="3" height="3" fill="#E5E6E6"/>
<rect x="130" y="180" width="3" height="3" fill="#E5E6E6"/>
<rect x="130" y="190" width="3" height="3" fill="#E5E6E6"/>
<rect x="130" y="200" width="3" height="3" fill="#E5E6E6"/>
<rect x="140" y="150" width="3" height="3" fill="#E5E6E6"/>
<rect x="140" y="160" width="3" height="3" fill="#E5E6E6"/>
<rect x="140" y="170" width="3" height="3" fill="#E5E6E6"/>
<rect x="140" y="180" width="3" height="3" fill="#E5E6E6"/>
<rect x="140" y="190" width="3" height="3" fill="#E5E6E6"/>
<rect x="140" y="200" width="3" height="3" fill="#E5E6E6"/>
<g opacity="0.15">
<rect y="210" width="3" height="3" fill="#E5E6E6"/>
<rect y="220" width="3" height="3" fill="#E5E6E6"/>
<rect y="230" width="3" height="3" fill="#E5E6E6"/>
<rect y="240" width="3" height="3" fill="#E5E6E6"/>
<rect y="250" width="3" height="3" fill="#E5E6E6"/>
<rect y="260" width="3" height="3" fill="#E5E6E6"/>
<rect x="10" y="210" width="3" height="3" fill="#E5E6E6"/>
<rect x="10" y="220" width="3" height="3" fill="#E5E6E6"/>
<rect x="10" y="230" width="3" height="3" fill="#E5E6E6"/>
<rect x="10" y="240" width="3" height="3" fill="#E5E6E6"/>
<rect x="10" y="250" width="3" height="3" fill="#E5E6E6"/>
<rect x="10" y="260" width="3" height="3" fill="#E5E6E6"/>
<rect x="20" y="210" width="3" height="3" fill="#E5E6E6"/>
<rect x="20" y="220" width="3" height="3" fill="#E5E6E6"/>
<rect x="20" y="230" width="3" height="3" fill="#E5E6E6"/>
<rect x="20" y="240" width="3" height="3" fill="#E5E6E6"/>
<rect x="20" y="250" width="3" height="3" fill="#E5E6E6"/>
<rect x="20" y="260" width="3" height="3" fill="#E5E6E6"/>
<rect x="30" y="210" width="3" height="3" fill="#E5E6E6"/>
<rect x="30" y="220" width="3" height="3" fill="#E5E6E6"/>
<rect x="30" y="230" width="3" height="3" fill="#E5E6E6"/>
<rect x="30" y="240" width="3" height="3" fill="#E5E6E6"/>
<rect x="30" y="250" width="3" height="3" fill="#E5E6E6"/>
<rect x="30" y="260" width="3" height="3" fill="#E5E6E6"/>
<rect x="40" y="210" width="3" height="3" fill="#E5E6E6"/>
<rect x="40" y="220" width="3" height="3" fill="#E5E6E6"/>
<rect x="40" y="230" width="3" height="3" fill="#E5E6E6"/>
<rect x="40" y="240" width="3" height="3" fill="#E5E6E6"/>
<rect x="40" y="250" width="3" height="3" fill="#E5E6E6"/>
<rect x="40" y="260" width="3" height="3" fill="#E5E6E6"/>
<rect x="50" y="210" width="3" height="3" fill="#E5E6E6"/>
<rect x="50" y="220" width="3" height="3" fill="#E5E6E6"/>
<rect x="50" y="230" width="3" height="3" fill="#E5E6E6"/>
<rect x="50" y="240" width="3" height="3" fill="#E5E6E6"/>
<rect x="50" y="250" width="3" height="3" fill="#E5E6E6"/>
<rect x="50" y="260" width="3" height="3" fill="#E5E6E6"/>
<rect x="60" y="210" width="3" height="3" fill="#E5E6E6"/>
<rect x="60" y="220" width="3" height="3" fill="#E5E6E6"/>
<rect x="60" y="230" width="3" height="3" fill="#E5E6E6"/>
<rect x="60" y="240" width="3" height="3" fill="#E5E6E6"/>
<rect x="60" y="250" width="3" height="3" fill="#E5E6E6"/>
<rect x="60" y="260" width="3" height="3" fill="#E5E6E6"/>
<rect x="70" y="210" width="3" height="3" fill="#E5E6E6"/>
<rect x="70" y="220" width="3" height="3" fill="#E5E6E6"/>
<rect x="70" y="230" width="3" height="3" fill="#E5E6E6"/>
<rect x="70" y="240" width="3" height="3" fill="#E5E6E6"/>
<rect x="70" y="250" width="3" height="3" fill="#E5E6E6"/>
<rect x="70" y="260" width="3" height="3" fill="#E5E6E6"/>
<rect x="80" y="210" width="3" height="3" fill="#E5E6E6"/>
<rect x="80" y="220" width="3" height="3" fill="#E5E6E6"/>
<rect x="80" y="230" width="3" height="3" fill="#E5E6E6"/>
<rect x="80" y="240" width="3" height="3" fill="#E5E6E6"/>
<rect x="80" y="250" width="3" height="3" fill="#E5E6E6"/>
<rect x="80" y="260" width="3" height="3" fill="#E5E6E6"/>
<rect x="90" y="210" width="3" height="3" fill="#E5E6E6"/>
<rect x="90" y="220" width="3" height="3" fill="#E5E6E6"/>
<rect x="90" y="230" width="3" height="3" fill="#E5E6E6"/>
<rect x="90" y="240" width="3" height="3" fill="#E5E6E6"/>
<rect x="90" y="250" width="3" height="3" fill="#E5E6E6"/>
<rect x="90" y="260" width="3" height="3" fill="#E5E6E6"/>
<rect x="100" y="210" width="3" height="3" fill="#E5E6E6"/>
<rect x="100" y="220" width="3" height="3" fill="#E5E6E6"/>
<rect x="100" y="230" width="3" height="3" fill="#E5E6E6"/>
<rect x="100" y="240" width="3" height="3" fill="#E5E6E6"/>
<rect x="100" y="250" width="3" height="3" fill="#E5E6E6"/>
<rect x="100" y="260" width="3" height="3" fill="#E5E6E6"/>
<rect x="110" y="210" width="3" height="3" fill="#E5E6E6"/>
<rect x="110" y="220" width="3" height="3" fill="#E5E6E6"/>
<rect x="110" y="230" width="3" height="3" fill="#E5E6E6"/>
<rect x="110" y="240" width="3" height="3" fill="#E5E6E6"/>
<rect x="110" y="250" width="3" height="3" fill="#E5E6E6"/>
<rect x="110" y="260" width="3" height="3" fill="#E5E6E6"/>
<rect x="120" y="210" width="3" height="3" fill="#E5E6E6"/>
<rect x="120" y="220" width="3" height="3" fill="#E5E6E6"/>
<rect x="120" y="230" width="3" height="3" fill="#E5E6E6"/>
<rect x="120" y="240" width="3" height="3" fill="#E5E6E6"/>
<rect x="120" y="250" width="3" height="3" fill="#E5E6E6"/>
<rect x="120" y="260" width="3" height="3" fill="#E5E6E6"/>
<rect x="130" y="210" width="3" height="3" fill="#E5E6E6"/>
<rect x="130" y="220" width="3" height="3" fill="#E5E6E6"/>
<rect x="130" y="230" width="3" height="3" fill="#E5E6E6"/>
<rect x="130" y="240" width="3" height="3" fill="#E5E6E6"/>
<rect x="130" y="250" width="3" height="3" fill="#E5E6E6"/>
<rect x="130" y="260" width="3" height="3" fill="#E5E6E6"/>
<rect x="140" y="210" width="3" height="3" fill="#E5E6E6"/>
<rect x="140" y="220" width="3" height="3" fill="#E5E6E6"/>
<rect x="140" y="230" width="3" height="3" fill="#E5E6E6"/>
<rect x="140" y="240" width="3" height="3" fill="#E5E6E6"/>
<rect x="140" y="250" width="3" height="3" fill="#E5E6E6"/>
<rect x="140" y="260" width="3" height="3" fill="#E5E6E6"/>
</g>
</svg>
