<svg width="143" height="53" viewBox="0 0 143 53" fill="none" xmlns="http://www.w3.org/2000/svg">
<g opacity="0.15">
<rect width="3" height="3" fill="#E5E6E6"/>
<rect y="10" width="3" height="3" fill="#E5E6E6"/>
<rect y="20" width="3" height="3" fill="#E5E6E6"/>
<rect y="30" width="3" height="3" fill="#E5E6E6"/>
<rect y="40" width="3" height="3" fill="#E5E6E6"/>
<rect y="50" width="3" height="3" fill="#E5E6E6"/>
<rect x="10" width="3" height="3" fill="#E5E6E6"/>
<rect x="10" y="10" width="3" height="3" fill="#E5E6E6"/>
<rect x="10" y="20" width="3" height="3" fill="#E5E6E6"/>
<rect x="10" y="30" width="3" height="3" fill="#E5E6E6"/>
<rect x="10" y="40" width="3" height="3" fill="#E5E6E6"/>
<rect x="10" y="50" width="3" height="3" fill="#E5E6E6"/>
<rect x="20" width="3" height="3" fill="#E5E6E6"/>
<rect x="20" y="10" width="3" height="3" fill="#E5E6E6"/>
<rect x="20" y="20" width="3" height="3" fill="#E5E6E6"/>
<rect x="20" y="30" width="3" height="3" fill="#E5E6E6"/>
<rect x="20" y="40" width="3" height="3" fill="#E5E6E6"/>
<rect x="20" y="50" width="3" height="3" fill="#E5E6E6"/>
<rect x="30" width="3" height="3" fill="#E5E6E6"/>
<rect x="30" y="10" width="3" height="3" fill="#E5E6E6"/>
<rect x="30" y="20" width="3" height="3" fill="#E5E6E6"/>
<rect x="30" y="30" width="3" height="3" fill="#E5E6E6"/>
<rect x="30" y="40" width="3" height="3" fill="#E5E6E6"/>
<rect x="30" y="50" width="3" height="3" fill="#E5E6E6"/>
<rect x="40" width="3" height="3" fill="#E5E6E6"/>
<rect x="40" y="10" width="3" height="3" fill="#E5E6E6"/>
<rect x="40" y="20" width="3" height="3" fill="#E5E6E6"/>
<rect x="40" y="30" width="3" height="3" fill="#E5E6E6"/>
<rect x="40" y="40" width="3" height="3" fill="#E5E6E6"/>
<rect x="40" y="50" width="3" height="3" fill="#E5E6E6"/>
<rect x="50" width="3" height="3" fill="#E5E6E6"/>
<rect x="50" y="10" width="3" height="3" fill="#E5E6E6"/>
<rect x="50" y="20" width="3" height="3" fill="#E5E6E6"/>
<rect x="50" y="30" width="3" height="3" fill="#E5E6E6"/>
<rect x="50" y="40" width="3" height="3" fill="#E5E6E6"/>
<rect x="50" y="50" width="3" height="3" fill="#E5E6E6"/>
<rect x="60" width="3" height="3" fill="#E5E6E6"/>
<rect x="60" y="10" width="3" height="3" fill="#E5E6E6"/>
<rect x="60" y="20" width="3" height="3" fill="#E5E6E6"/>
<rect x="60" y="30" width="3" height="3" fill="#E5E6E6"/>
<rect x="60" y="40" width="3" height="3" fill="#E5E6E6"/>
<rect x="60" y="50" width="3" height="3" fill="#E5E6E6"/>
<rect x="70" width="3" height="3" fill="#E5E6E6"/>
<rect x="70" y="10" width="3" height="3" fill="#E5E6E6"/>
<rect x="70" y="20" width="3" height="3" fill="#E5E6E6"/>
<rect x="70" y="30" width="3" height="3" fill="#E5E6E6"/>
<rect x="70" y="40" width="3" height="3" fill="#E5E6E6"/>
<rect x="70" y="50" width="3" height="3" fill="#E5E6E6"/>
<rect x="80" width="3" height="3" fill="#E5E6E6"/>
<rect x="80" y="10" width="3" height="3" fill="#E5E6E6"/>
<rect x="80" y="20" width="3" height="3" fill="#E5E6E6"/>
<rect x="80" y="30" width="3" height="3" fill="#E5E6E6"/>
<rect x="80" y="40" width="3" height="3" fill="#E5E6E6"/>
<rect x="80" y="50" width="3" height="3" fill="#E5E6E6"/>
<rect x="90" width="3" height="3" fill="#E5E6E6"/>
<rect x="90" y="10" width="3" height="3" fill="#E5E6E6"/>
<rect x="90" y="20" width="3" height="3" fill="#E5E6E6"/>
<rect x="90" y="30" width="3" height="3" fill="#E5E6E6"/>
<rect x="90" y="40" width="3" height="3" fill="#E5E6E6"/>
<rect x="90" y="50" width="3" height="3" fill="#E5E6E6"/>
<rect x="100" width="3" height="3" fill="#E5E6E6"/>
<rect x="100" y="10" width="3" height="3" fill="#E5E6E6"/>
<rect x="100" y="20" width="3" height="3" fill="#E5E6E6"/>
<rect x="100" y="30" width="3" height="3" fill="#E5E6E6"/>
<rect x="100" y="40" width="3" height="3" fill="#E5E6E6"/>
<rect x="100" y="50" width="3" height="3" fill="#E5E6E6"/>
<rect x="110" width="3" height="3" fill="#E5E6E6"/>
<rect x="110" y="10" width="3" height="3" fill="#E5E6E6"/>
<rect x="110" y="20" width="3" height="3" fill="#E5E6E6"/>
<rect x="110" y="30" width="3" height="3" fill="#E5E6E6"/>
<rect x="110" y="40" width="3" height="3" fill="#E5E6E6"/>
<rect x="110" y="50" width="3" height="3" fill="#E5E6E6"/>
<rect x="120" width="3" height="3" fill="#E5E6E6"/>
<rect x="120" y="10" width="3" height="3" fill="#E5E6E6"/>
<rect x="120" y="20" width="3" height="3" fill="#E5E6E6"/>
<rect x="120" y="30" width="3" height="3" fill="#E5E6E6"/>
<rect x="120" y="40" width="3" height="3" fill="#E5E6E6"/>
<rect x="120" y="50" width="3" height="3" fill="#E5E6E6"/>
<rect x="130" width="3" height="3" fill="#E5E6E6"/>
<rect x="130" y="10" width="3" height="3" fill="#E5E6E6"/>
<rect x="130" y="20" width="3" height="3" fill="#E5E6E6"/>
<rect x="130" y="30" width="3" height="3" fill="#E5E6E6"/>
<rect x="130" y="40" width="3" height="3" fill="#E5E6E6"/>
<rect x="130" y="50" width="3" height="3" fill="#E5E6E6"/>
<rect x="140" width="3" height="3" fill="#E5E6E6"/>
<rect x="140" y="10" width="3" height="3" fill="#E5E6E6"/>
<rect x="140" y="20" width="3" height="3" fill="#E5E6E6"/>
<rect x="140" y="30" width="3" height="3" fill="#E5E6E6"/>
<rect x="140" y="40" width="3" height="3" fill="#E5E6E6"/>
<rect x="140" y="50" width="3" height="3" fill="#E5E6E6"/>
</g>
</svg>
