<svg width="253" height="263" viewBox="0 0 253 263" fill="none" xmlns="http://www.w3.org/2000/svg">
<rect y="120" width="3" height="3" fill="#EAEBEB"/>
<rect y="130" width="3" height="3" fill="#EAEBEB"/>
<rect y="140" width="3" height="3" fill="#EAEBEB"/>
<rect y="150" width="3" height="3" fill="#EAEBEB"/>
<rect y="160" width="3" height="3" fill="#EAEBEB"/>
<rect y="170" width="3" height="3" fill="#EAEBEB"/>
<rect y="180" width="3" height="3" fill="#EAEBEB"/>
<rect y="190" width="3" height="3" fill="#EAEBEB"/>
<rect y="200" width="3" height="3" fill="#EAEBEB"/>
<rect y="210" width="3" height="3" fill="#EAEBEB"/>
<rect y="220" width="3" height="3" fill="#EAEBEB"/>
<rect y="230" width="3" height="3" fill="#EAEBEB"/>
<rect y="240" width="3" height="3" fill="#EAEBEB"/>
<rect y="250" width="3" height="3" fill="#EAEBEB"/>
<rect y="260" width="3" height="3" fill="#EAEBEB"/>
<rect x="10" y="120" width="3" height="3" fill="#EAEBEB"/>
<rect x="10" y="130" width="3" height="3" fill="#EAEBEB"/>
<rect x="10" y="140" width="3" height="3" fill="#EAEBEB"/>
<rect x="10" y="150" width="3" height="3" fill="#EAEBEB"/>
<rect x="10" y="160" width="3" height="3" fill="#EAEBEB"/>
<rect x="10" y="170" width="3" height="3" fill="#EAEBEB"/>
<rect x="10" y="180" width="3" height="3" fill="#EAEBEB"/>
<rect x="10" y="190" width="3" height="3" fill="#EAEBEB"/>
<rect x="10" y="200" width="3" height="3" fill="#EAEBEB"/>
<rect x="10" y="210" width="3" height="3" fill="#EAEBEB"/>
<rect x="10" y="220" width="3" height="3" fill="#EAEBEB"/>
<rect x="10" y="230" width="3" height="3" fill="#EAEBEB"/>
<rect x="10" y="240" width="3" height="3" fill="#EAEBEB"/>
<rect x="10" y="250" width="3" height="3" fill="#EAEBEB"/>
<rect x="10" y="260" width="3" height="3" fill="#EAEBEB"/>
<rect x="20" y="120" width="3" height="3" fill="#EAEBEB"/>
<rect x="20" y="130" width="3" height="3" fill="#EAEBEB"/>
<rect x="20" y="140" width="3" height="3" fill="#EAEBEB"/>
<rect x="20" y="150" width="3" height="3" fill="#EAEBEB"/>
<rect x="20" y="160" width="3" height="3" fill="#EAEBEB"/>
<rect x="20" y="170" width="3" height="3" fill="#EAEBEB"/>
<rect x="20" y="180" width="3" height="3" fill="#EAEBEB"/>
<rect x="20" y="190" width="3" height="3" fill="#EAEBEB"/>
<rect x="20" y="200" width="3" height="3" fill="#EAEBEB"/>
<rect x="20" y="210" width="3" height="3" fill="#EAEBEB"/>
<rect x="20" y="220" width="3" height="3" fill="#EAEBEB"/>
<rect x="20" y="230" width="3" height="3" fill="#EAEBEB"/>
<rect x="20" y="240" width="3" height="3" fill="#EAEBEB"/>
<rect x="20" y="250" width="3" height="3" fill="#EAEBEB"/>
<rect x="20" y="260" width="3" height="3" fill="#EAEBEB"/>
<rect x="30" y="120" width="3" height="3" fill="#EAEBEB"/>
<rect x="30" y="130" width="3" height="3" fill="#EAEBEB"/>
<rect x="30" y="140" width="3" height="3" fill="#EAEBEB"/>
<rect x="30" y="150" width="3" height="3" fill="#EAEBEB"/>
<rect x="30" y="160" width="3" height="3" fill="#EAEBEB"/>
<rect x="30" y="170" width="3" height="3" fill="#EAEBEB"/>
<rect x="30" y="180" width="3" height="3" fill="#EAEBEB"/>
<rect x="30" y="190" width="3" height="3" fill="#EAEBEB"/>
<rect x="30" y="200" width="3" height="3" fill="#EAEBEB"/>
<rect x="30" y="210" width="3" height="3" fill="#EAEBEB"/>
<rect x="30" y="220" width="3" height="3" fill="#EAEBEB"/>
<rect x="30" y="230" width="3" height="3" fill="#EAEBEB"/>
<rect x="30" y="240" width="3" height="3" fill="#EAEBEB"/>
<rect x="30" y="250" width="3" height="3" fill="#EAEBEB"/>
<rect x="30" y="260" width="3" height="3" fill="#EAEBEB"/>
<rect x="40" y="120" width="3" height="3" fill="#EAEBEB"/>
<rect x="40" y="130" width="3" height="3" fill="#EAEBEB"/>
<rect x="40" y="140" width="3" height="3" fill="#EAEBEB"/>
<rect x="40" y="150" width="3" height="3" fill="#EAEBEB"/>
<rect x="40" y="160" width="3" height="3" fill="#EAEBEB"/>
<rect x="40" y="170" width="3" height="3" fill="#EAEBEB"/>
<rect x="40" y="180" width="3" height="3" fill="#EAEBEB"/>
<rect x="40" y="190" width="3" height="3" fill="#EAEBEB"/>
<rect x="40" y="200" width="3" height="3" fill="#EAEBEB"/>
<rect x="40" y="210" width="3" height="3" fill="#EAEBEB"/>
<rect x="40" y="220" width="3" height="3" fill="#EAEBEB"/>
<rect x="40" y="230" width="3" height="3" fill="#EAEBEB"/>
<rect x="40" y="240" width="3" height="3" fill="#EAEBEB"/>
<rect x="40" y="250" width="3" height="3" fill="#EAEBEB"/>
<rect x="40" y="260" width="3" height="3" fill="#EAEBEB"/>
<rect x="50" y="120" width="3" height="3" fill="#EAEBEB"/>
<rect x="50" y="130" width="3" height="3" fill="#EAEBEB"/>
<rect x="50" y="140" width="3" height="3" fill="#EAEBEB"/>
<rect x="50" y="150" width="3" height="3" fill="#EAEBEB"/>
<rect x="50" y="160" width="3" height="3" fill="#EAEBEB"/>
<rect x="50" y="170" width="3" height="3" fill="#EAEBEB"/>
<rect x="50" y="180" width="3" height="3" fill="#EAEBEB"/>
<rect x="50" y="190" width="3" height="3" fill="#EAEBEB"/>
<rect x="50" y="200" width="3" height="3" fill="#EAEBEB"/>
<rect x="50" y="210" width="3" height="3" fill="#EAEBEB"/>
<rect x="50" y="220" width="3" height="3" fill="#EAEBEB"/>
<rect x="50" y="230" width="3" height="3" fill="#EAEBEB"/>
<rect x="50" y="240" width="3" height="3" fill="#EAEBEB"/>
<rect x="50" y="250" width="3" height="3" fill="#EAEBEB"/>
<rect x="50" y="260" width="3" height="3" fill="#EAEBEB"/>
<rect x="60" y="120" width="3" height="3" fill="#EAEBEB"/>
<rect x="60" y="130" width="3" height="3" fill="#EAEBEB"/>
<rect x="60" y="140" width="3" height="3" fill="#EAEBEB"/>
<rect x="60" y="150" width="3" height="3" fill="#EAEBEB"/>
<rect x="60" y="160" width="3" height="3" fill="#EAEBEB"/>
<rect x="60" y="170" width="3" height="3" fill="#EAEBEB"/>
<rect x="60" y="180" width="3" height="3" fill="#EAEBEB"/>
<rect x="60" y="190" width="3" height="3" fill="#EAEBEB"/>
<rect x="60" y="200" width="3" height="3" fill="#EAEBEB"/>
<rect x="60" y="210" width="3" height="3" fill="#EAEBEB"/>
<rect x="60" y="220" width="3" height="3" fill="#EAEBEB"/>
<rect x="60" y="230" width="3" height="3" fill="#EAEBEB"/>
<rect x="60" y="240" width="3" height="3" fill="#EAEBEB"/>
<rect x="60" y="250" width="3" height="3" fill="#EAEBEB"/>
<rect x="60" y="260" width="3" height="3" fill="#EAEBEB"/>
<rect x="70" y="120" width="3" height="3" fill="#EAEBEB"/>
<rect x="70" y="130" width="3" height="3" fill="#EAEBEB"/>
<rect x="70" y="140" width="3" height="3" fill="#EAEBEB"/>
<rect x="70" y="150" width="3" height="3" fill="#EAEBEB"/>
<rect x="70" y="160" width="3" height="3" fill="#EAEBEB"/>
<rect x="70" y="170" width="3" height="3" fill="#EAEBEB"/>
<rect x="70" y="180" width="3" height="3" fill="#EAEBEB"/>
<rect x="70" y="190" width="3" height="3" fill="#EAEBEB"/>
<rect x="70" y="200" width="3" height="3" fill="#EAEBEB"/>
<rect x="70" y="210" width="3" height="3" fill="#EAEBEB"/>
<rect x="70" y="220" width="3" height="3" fill="#EAEBEB"/>
<rect x="70" y="230" width="3" height="3" fill="#EAEBEB"/>
<rect x="70" y="240" width="3" height="3" fill="#EAEBEB"/>
<rect x="70" y="250" width="3" height="3" fill="#EAEBEB"/>
<rect x="70" y="260" width="3" height="3" fill="#EAEBEB"/>
<rect x="80" y="120" width="3" height="3" fill="#EAEBEB"/>
<rect x="80" y="130" width="3" height="3" fill="#EAEBEB"/>
<rect x="80" y="140" width="3" height="3" fill="#EAEBEB"/>
<rect x="80" y="150" width="3" height="3" fill="#EAEBEB"/>
<rect x="80" y="160" width="3" height="3" fill="#EAEBEB"/>
<rect x="80" y="170" width="3" height="3" fill="#EAEBEB"/>
<rect x="80" y="180" width="3" height="3" fill="#EAEBEB"/>
<rect x="80" y="190" width="3" height="3" fill="#EAEBEB"/>
<rect x="80" y="200" width="3" height="3" fill="#EAEBEB"/>
<rect x="80" y="210" width="3" height="3" fill="#EAEBEB"/>
<rect x="80" y="220" width="3" height="3" fill="#EAEBEB"/>
<rect x="80" y="230" width="3" height="3" fill="#EAEBEB"/>
<rect x="80" y="240" width="3" height="3" fill="#EAEBEB"/>
<rect x="80" y="250" width="3" height="3" fill="#EAEBEB"/>
<rect x="80" y="260" width="3" height="3" fill="#EAEBEB"/>
<rect x="90" y="120" width="3" height="3" fill="#EAEBEB"/>
<rect x="90" y="130" width="3" height="3" fill="#EAEBEB"/>
<rect x="90" y="140" width="3" height="3" fill="#EAEBEB"/>
<rect x="90" y="150" width="3" height="3" fill="#EAEBEB"/>
<rect x="90" y="160" width="3" height="3" fill="#EAEBEB"/>
<rect x="90" y="170" width="3" height="3" fill="#EAEBEB"/>
<rect x="90" y="180" width="3" height="3" fill="#EAEBEB"/>
<rect x="90" y="190" width="3" height="3" fill="#EAEBEB"/>
<rect x="90" y="200" width="3" height="3" fill="#EAEBEB"/>
<rect x="90" y="210" width="3" height="3" fill="#EAEBEB"/>
<rect x="90" y="220" width="3" height="3" fill="#EAEBEB"/>
<rect x="90" y="230" width="3" height="3" fill="#EAEBEB"/>
<rect x="90" y="240" width="3" height="3" fill="#EAEBEB"/>
<rect x="90" y="250" width="3" height="3" fill="#EAEBEB"/>
<rect x="90" y="260" width="3" height="3" fill="#EAEBEB"/>
<rect x="100" y="120" width="3" height="3" fill="#EAEBEB"/>
<rect x="100" y="130" width="3" height="3" fill="#EAEBEB"/>
<rect x="100" y="140" width="3" height="3" fill="#EAEBEB"/>
<rect x="100" y="150" width="3" height="3" fill="#EAEBEB"/>
<rect x="100" y="160" width="3" height="3" fill="#EAEBEB"/>
<rect x="100" y="170" width="3" height="3" fill="#EAEBEB"/>
<rect x="100" y="180" width="3" height="3" fill="#EAEBEB"/>
<rect x="100" y="190" width="3" height="3" fill="#EAEBEB"/>
<rect x="100" y="200" width="3" height="3" fill="#EAEBEB"/>
<rect x="100" y="210" width="3" height="3" fill="#EAEBEB"/>
<rect x="100" y="220" width="3" height="3" fill="#EAEBEB"/>
<rect x="100" y="230" width="3" height="3" fill="#EAEBEB"/>
<rect x="100" y="240" width="3" height="3" fill="#EAEBEB"/>
<rect x="100" y="250" width="3" height="3" fill="#EAEBEB"/>
<rect x="100" y="260" width="3" height="3" fill="#EAEBEB"/>
<rect x="110" y="120" width="3" height="3" fill="#EAEBEB"/>
<rect x="110" y="130" width="3" height="3" fill="#EAEBEB"/>
<rect x="110" y="140" width="3" height="3" fill="#EAEBEB"/>
<rect x="110" y="150" width="3" height="3" fill="#EAEBEB"/>
<rect x="110" y="160" width="3" height="3" fill="#EAEBEB"/>
<rect x="110" y="170" width="3" height="3" fill="#EAEBEB"/>
<rect x="110" y="180" width="3" height="3" fill="#EAEBEB"/>
<rect x="110" y="190" width="3" height="3" fill="#EAEBEB"/>
<rect x="110" y="200" width="3" height="3" fill="#EAEBEB"/>
<rect x="110" y="210" width="3" height="3" fill="#EAEBEB"/>
<rect x="110" y="220" width="3" height="3" fill="#EAEBEB"/>
<rect x="110" y="230" width="3" height="3" fill="#EAEBEB"/>
<rect x="110" y="240" width="3" height="3" fill="#EAEBEB"/>
<rect x="110" y="250" width="3" height="3" fill="#EAEBEB"/>
<rect x="110" y="260" width="3" height="3" fill="#EAEBEB"/>
<rect x="120" y="120" width="3" height="3" fill="#EAEBEB"/>
<rect x="120" y="130" width="3" height="3" fill="#EAEBEB"/>
<rect x="120" y="140" width="3" height="3" fill="#EAEBEB"/>
<rect x="120" y="150" width="3" height="3" fill="#EAEBEB"/>
<rect x="120" y="160" width="3" height="3" fill="#EAEBEB"/>
<rect x="120" y="170" width="3" height="3" fill="#EAEBEB"/>
<rect x="120" y="180" width="3" height="3" fill="#EAEBEB"/>
<rect x="120" y="190" width="3" height="3" fill="#EAEBEB"/>
<rect x="120" y="200" width="3" height="3" fill="#EAEBEB"/>
<rect x="120" y="210" width="3" height="3" fill="#EAEBEB"/>
<rect x="120" y="220" width="3" height="3" fill="#EAEBEB"/>
<rect x="120" y="230" width="3" height="3" fill="#EAEBEB"/>
<rect x="120" y="240" width="3" height="3" fill="#EAEBEB"/>
<rect x="120" y="250" width="3" height="3" fill="#EAEBEB"/>
<rect x="120" y="260" width="3" height="3" fill="#EAEBEB"/>
<rect x="130" y="120" width="3" height="3" fill="#EAEBEB"/>
<rect x="130" y="130" width="3" height="3" fill="#EAEBEB"/>
<rect x="130" y="140" width="3" height="3" fill="#EAEBEB"/>
<rect x="130" y="150" width="3" height="3" fill="#EAEBEB"/>
<rect x="130" y="160" width="3" height="3" fill="#EAEBEB"/>
<rect x="130" y="170" width="3" height="3" fill="#EAEBEB"/>
<rect x="130" y="180" width="3" height="3" fill="#EAEBEB"/>
<rect x="130" y="190" width="3" height="3" fill="#EAEBEB"/>
<rect x="130" y="200" width="3" height="3" fill="#EAEBEB"/>
<rect x="130" y="210" width="3" height="3" fill="#EAEBEB"/>
<rect x="130" y="220" width="3" height="3" fill="#EAEBEB"/>
<rect x="130" y="230" width="3" height="3" fill="#EAEBEB"/>
<rect x="130" y="240" width="3" height="3" fill="#EAEBEB"/>
<rect x="130" y="250" width="3" height="3" fill="#EAEBEB"/>
<rect x="130" y="260" width="3" height="3" fill="#EAEBEB"/>
<rect x="140" y="120" width="3" height="3" fill="#EAEBEB"/>
<rect x="140" y="130" width="3" height="3" fill="#EAEBEB"/>
<rect x="140" y="140" width="3" height="3" fill="#EAEBEB"/>
<rect x="140" y="150" width="3" height="3" fill="#EAEBEB"/>
<rect x="140" y="160" width="3" height="3" fill="#EAEBEB"/>
<rect x="140" y="170" width="3" height="3" fill="#EAEBEB"/>
<rect x="140" y="180" width="3" height="3" fill="#EAEBEB"/>
<rect x="140" y="190" width="3" height="3" fill="#EAEBEB"/>
<rect x="140" y="200" width="3" height="3" fill="#EAEBEB"/>
<rect x="140" y="210" width="3" height="3" fill="#EAEBEB"/>
<rect x="140" y="220" width="3" height="3" fill="#EAEBEB"/>
<rect x="140" y="230" width="3" height="3" fill="#EAEBEB"/>
<rect x="140" y="240" width="3" height="3" fill="#EAEBEB"/>
<rect x="140" y="250" width="3" height="3" fill="#EAEBEB"/>
<rect x="140" y="260" width="3" height="3" fill="#EAEBEB"/>
<rect x="110" width="3" height="3" fill="#EAEBEB"/>
<rect x="110" y="10" width="3" height="3" fill="#EAEBEB"/>
<rect x="110" y="20" width="3" height="3" fill="#EAEBEB"/>
<rect x="110" y="30" width="3" height="3" fill="#EAEBEB"/>
<rect x="110" y="40" width="3" height="3" fill="#EAEBEB"/>
<rect x="110" y="50" width="3" height="3" fill="#EAEBEB"/>
<rect x="110" y="60" width="3" height="3" fill="#EAEBEB"/>
<rect x="110" y="70" width="3" height="3" fill="#EAEBEB"/>
<rect x="110" y="80" width="3" height="3" fill="#EAEBEB"/>
<rect x="110" y="90" width="3" height="3" fill="#EAEBEB"/>
<rect x="110" y="100" width="3" height="3" fill="#EAEBEB"/>
<rect x="110" y="110" width="3" height="3" fill="#EAEBEB"/>
<rect x="110" y="120" width="3" height="3" fill="#EAEBEB"/>
<rect x="110" y="130" width="3" height="3" fill="#EAEBEB"/>
<rect x="110" y="140" width="3" height="3" fill="#EAEBEB"/>
<rect x="120" width="3" height="3" fill="#EAEBEB"/>
<rect x="120" y="10" width="3" height="3" fill="#EAEBEB"/>
<rect x="120" y="20" width="3" height="3" fill="#EAEBEB"/>
<rect x="120" y="30" width="3" height="3" fill="#EAEBEB"/>
<rect x="120" y="40" width="3" height="3" fill="#EAEBEB"/>
<rect x="120" y="50" width="3" height="3" fill="#EAEBEB"/>
<rect x="120" y="60" width="3" height="3" fill="#EAEBEB"/>
<rect x="120" y="70" width="3" height="3" fill="#EAEBEB"/>
<rect x="120" y="80" width="3" height="3" fill="#EAEBEB"/>
<rect x="120" y="90" width="3" height="3" fill="#EAEBEB"/>
<rect x="120" y="100" width="3" height="3" fill="#EAEBEB"/>
<rect x="120" y="110" width="3" height="3" fill="#EAEBEB"/>
<rect x="120" y="120" width="3" height="3" fill="#EAEBEB"/>
<rect x="120" y="130" width="3" height="3" fill="#EAEBEB"/>
<rect x="120" y="140" width="3" height="3" fill="#EAEBEB"/>
<rect x="130" width="3" height="3" fill="#EAEBEB"/>
<rect x="130" y="10" width="3" height="3" fill="#EAEBEB"/>
<rect x="130" y="20" width="3" height="3" fill="#EAEBEB"/>
<rect x="130" y="30" width="3" height="3" fill="#EAEBEB"/>
<rect x="130" y="40" width="3" height="3" fill="#EAEBEB"/>
<rect x="130" y="50" width="3" height="3" fill="#EAEBEB"/>
<rect x="130" y="60" width="3" height="3" fill="#EAEBEB"/>
<rect x="130" y="70" width="3" height="3" fill="#EAEBEB"/>
<rect x="130" y="80" width="3" height="3" fill="#EAEBEB"/>
<rect x="130" y="90" width="3" height="3" fill="#EAEBEB"/>
<rect x="130" y="100" width="3" height="3" fill="#EAEBEB"/>
<rect x="130" y="110" width="3" height="3" fill="#EAEBEB"/>
<rect x="130" y="120" width="3" height="3" fill="#EAEBEB"/>
<rect x="130" y="130" width="3" height="3" fill="#EAEBEB"/>
<rect x="130" y="140" width="3" height="3" fill="#EAEBEB"/>
<rect x="140" width="3" height="3" fill="#EAEBEB"/>
<rect x="140" y="10" width="3" height="3" fill="#EAEBEB"/>
<rect x="140" y="20" width="3" height="3" fill="#EAEBEB"/>
<rect x="140" y="30" width="3" height="3" fill="#EAEBEB"/>
<rect x="140" y="40" width="3" height="3" fill="#EAEBEB"/>
<rect x="140" y="50" width="3" height="3" fill="#EAEBEB"/>
<rect x="140" y="60" width="3" height="3" fill="#EAEBEB"/>
<rect x="140" y="70" width="3" height="3" fill="#EAEBEB"/>
<rect x="140" y="80" width="3" height="3" fill="#EAEBEB"/>
<rect x="140" y="90" width="3" height="3" fill="#EAEBEB"/>
<rect x="140" y="100" width="3" height="3" fill="#EAEBEB"/>
<rect x="140" y="110" width="3" height="3" fill="#EAEBEB"/>
<rect x="140" y="120" width="3" height="3" fill="#EAEBEB"/>
<rect x="140" y="130" width="3" height="3" fill="#EAEBEB"/>
<rect x="140" y="140" width="3" height="3" fill="#EAEBEB"/>
<rect x="150" width="3" height="3" fill="#EAEBEB"/>
<rect x="150" y="10" width="3" height="3" fill="#EAEBEB"/>
<rect x="150" y="20" width="3" height="3" fill="#EAEBEB"/>
<rect x="150" y="30" width="3" height="3" fill="#EAEBEB"/>
<rect x="150" y="40" width="3" height="3" fill="#EAEBEB"/>
<rect x="150" y="50" width="3" height="3" fill="#EAEBEB"/>
<rect x="150" y="60" width="3" height="3" fill="#EAEBEB"/>
<rect x="150" y="70" width="3" height="3" fill="#EAEBEB"/>
<rect x="150" y="80" width="3" height="3" fill="#EAEBEB"/>
<rect x="150" y="90" width="3" height="3" fill="#EAEBEB"/>
<rect x="150" y="100" width="3" height="3" fill="#EAEBEB"/>
<rect x="150" y="110" width="3" height="3" fill="#EAEBEB"/>
<rect x="150" y="120" width="3" height="3" fill="#EAEBEB"/>
<rect x="150" y="130" width="3" height="3" fill="#EAEBEB"/>
<rect x="150" y="140" width="3" height="3" fill="#EAEBEB"/>
<rect x="160" width="3" height="3" fill="#EAEBEB"/>
<rect x="160" y="10" width="3" height="3" fill="#EAEBEB"/>
<rect x="160" y="20" width="3" height="3" fill="#EAEBEB"/>
<rect x="160" y="30" width="3" height="3" fill="#EAEBEB"/>
<rect x="160" y="40" width="3" height="3" fill="#EAEBEB"/>
<rect x="160" y="50" width="3" height="3" fill="#EAEBEB"/>
<rect x="160" y="60" width="3" height="3" fill="#EAEBEB"/>
<rect x="160" y="70" width="3" height="3" fill="#EAEBEB"/>
<rect x="160" y="80" width="3" height="3" fill="#EAEBEB"/>
<rect x="160" y="90" width="3" height="3" fill="#EAEBEB"/>
<rect x="160" y="100" width="3" height="3" fill="#EAEBEB"/>
<rect x="160" y="110" width="3" height="3" fill="#EAEBEB"/>
<rect x="160" y="120" width="3" height="3" fill="#EAEBEB"/>
<rect x="160" y="130" width="3" height="3" fill="#EAEBEB"/>
<rect x="160" y="140" width="3" height="3" fill="#EAEBEB"/>
<rect x="170" width="3" height="3" fill="#EAEBEB"/>
<rect x="170" y="10" width="3" height="3" fill="#EAEBEB"/>
<rect x="170" y="20" width="3" height="3" fill="#EAEBEB"/>
<rect x="170" y="30" width="3" height="3" fill="#EAEBEB"/>
<rect x="170" y="40" width="3" height="3" fill="#EAEBEB"/>
<rect x="170" y="50" width="3" height="3" fill="#EAEBEB"/>
<rect x="170" y="60" width="3" height="3" fill="#EAEBEB"/>
<rect x="170" y="70" width="3" height="3" fill="#EAEBEB"/>
<rect x="170" y="80" width="3" height="3" fill="#EAEBEB"/>
<rect x="170" y="90" width="3" height="3" fill="#EAEBEB"/>
<rect x="170" y="100" width="3" height="3" fill="#EAEBEB"/>
<rect x="170" y="110" width="3" height="3" fill="#EAEBEB"/>
<rect x="170" y="120" width="3" height="3" fill="#EAEBEB"/>
<rect x="170" y="130" width="3" height="3" fill="#EAEBEB"/>
<rect x="170" y="140" width="3" height="3" fill="#EAEBEB"/>
<rect x="180" width="3" height="3" fill="#EAEBEB"/>
<rect x="180" y="10" width="3" height="3" fill="#EAEBEB"/>
<rect x="180" y="20" width="3" height="3" fill="#EAEBEB"/>
<rect x="180" y="30" width="3" height="3" fill="#EAEBEB"/>
<rect x="180" y="40" width="3" height="3" fill="#EAEBEB"/>
<rect x="180" y="50" width="3" height="3" fill="#EAEBEB"/>
<rect x="180" y="60" width="3" height="3" fill="#EAEBEB"/>
<rect x="180" y="70" width="3" height="3" fill="#EAEBEB"/>
<rect x="180" y="80" width="3" height="3" fill="#EAEBEB"/>
<rect x="180" y="90" width="3" height="3" fill="#EAEBEB"/>
<rect x="180" y="100" width="3" height="3" fill="#EAEBEB"/>
<rect x="180" y="110" width="3" height="3" fill="#EAEBEB"/>
<rect x="180" y="120" width="3" height="3" fill="#EAEBEB"/>
<rect x="180" y="130" width="3" height="3" fill="#EAEBEB"/>
<rect x="180" y="140" width="3" height="3" fill="#EAEBEB"/>
<rect x="190" width="3" height="3" fill="#EAEBEB"/>
<rect x="190" y="10" width="3" height="3" fill="#EAEBEB"/>
<rect x="190" y="20" width="3" height="3" fill="#EAEBEB"/>
<rect x="190" y="30" width="3" height="3" fill="#EAEBEB"/>
<rect x="190" y="40" width="3" height="3" fill="#EAEBEB"/>
<rect x="190" y="50" width="3" height="3" fill="#EAEBEB"/>
<rect x="190" y="60" width="3" height="3" fill="#EAEBEB"/>
<rect x="190" y="70" width="3" height="3" fill="#EAEBEB"/>
<rect x="190" y="80" width="3" height="3" fill="#EAEBEB"/>
<rect x="190" y="90" width="3" height="3" fill="#EAEBEB"/>
<rect x="190" y="100" width="3" height="3" fill="#EAEBEB"/>
<rect x="190" y="110" width="3" height="3" fill="#EAEBEB"/>
<rect x="190" y="120" width="3" height="3" fill="#EAEBEB"/>
<rect x="190" y="130" width="3" height="3" fill="#EAEBEB"/>
<rect x="190" y="140" width="3" height="3" fill="#EAEBEB"/>
<rect x="200" width="3" height="3" fill="#EAEBEB"/>
<rect x="200" y="10" width="3" height="3" fill="#EAEBEB"/>
<rect x="200" y="20" width="3" height="3" fill="#EAEBEB"/>
<rect x="200" y="30" width="3" height="3" fill="#EAEBEB"/>
<rect x="200" y="40" width="3" height="3" fill="#EAEBEB"/>
<rect x="200" y="50" width="3" height="3" fill="#EAEBEB"/>
<rect x="200" y="60" width="3" height="3" fill="#EAEBEB"/>
<rect x="200" y="70" width="3" height="3" fill="#EAEBEB"/>
<rect x="200" y="80" width="3" height="3" fill="#EAEBEB"/>
<rect x="200" y="90" width="3" height="3" fill="#EAEBEB"/>
<rect x="200" y="100" width="3" height="3" fill="#EAEBEB"/>
<rect x="200" y="110" width="3" height="3" fill="#EAEBEB"/>
<rect x="200" y="120" width="3" height="3" fill="#EAEBEB"/>
<rect x="200" y="130" width="3" height="3" fill="#EAEBEB"/>
<rect x="200" y="140" width="3" height="3" fill="#EAEBEB"/>
<rect x="210" width="3" height="3" fill="#EAEBEB"/>
<rect x="210" y="10" width="3" height="3" fill="#EAEBEB"/>
<rect x="210" y="20" width="3" height="3" fill="#EAEBEB"/>
<rect x="210" y="30" width="3" height="3" fill="#EAEBEB"/>
<rect x="210" y="40" width="3" height="3" fill="#EAEBEB"/>
<rect x="210" y="50" width="3" height="3" fill="#EAEBEB"/>
<rect x="210" y="60" width="3" height="3" fill="#EAEBEB"/>
<rect x="210" y="70" width="3" height="3" fill="#EAEBEB"/>
<rect x="210" y="80" width="3" height="3" fill="#EAEBEB"/>
<rect x="210" y="90" width="3" height="3" fill="#EAEBEB"/>
<rect x="210" y="100" width="3" height="3" fill="#EAEBEB"/>
<rect x="210" y="110" width="3" height="3" fill="#EAEBEB"/>
<rect x="210" y="120" width="3" height="3" fill="#EAEBEB"/>
<rect x="210" y="130" width="3" height="3" fill="#EAEBEB"/>
<rect x="210" y="140" width="3" height="3" fill="#EAEBEB"/>
<rect x="220" width="3" height="3" fill="#EAEBEB"/>
<rect x="220" y="10" width="3" height="3" fill="#EAEBEB"/>
<rect x="220" y="20" width="3" height="3" fill="#EAEBEB"/>
<rect x="220" y="30" width="3" height="3" fill="#EAEBEB"/>
<rect x="220" y="40" width="3" height="3" fill="#EAEBEB"/>
<rect x="220" y="50" width="3" height="3" fill="#EAEBEB"/>
<rect x="220" y="60" width="3" height="3" fill="#EAEBEB"/>
<rect x="220" y="70" width="3" height="3" fill="#EAEBEB"/>
<rect x="220" y="80" width="3" height="3" fill="#EAEBEB"/>
<rect x="220" y="90" width="3" height="3" fill="#EAEBEB"/>
<rect x="220" y="100" width="3" height="3" fill="#EAEBEB"/>
<rect x="220" y="110" width="3" height="3" fill="#EAEBEB"/>
<rect x="220" y="120" width="3" height="3" fill="#EAEBEB"/>
<rect x="220" y="130" width="3" height="3" fill="#EAEBEB"/>
<rect x="220" y="140" width="3" height="3" fill="#EAEBEB"/>
<rect x="230" width="3" height="3" fill="#EAEBEB"/>
<rect x="230" y="10" width="3" height="3" fill="#EAEBEB"/>
<rect x="230" y="20" width="3" height="3" fill="#EAEBEB"/>
<rect x="230" y="30" width="3" height="3" fill="#EAEBEB"/>
<rect x="230" y="40" width="3" height="3" fill="#EAEBEB"/>
<rect x="230" y="50" width="3" height="3" fill="#EAEBEB"/>
<rect x="230" y="60" width="3" height="3" fill="#EAEBEB"/>
<rect x="230" y="70" width="3" height="3" fill="#EAEBEB"/>
<rect x="230" y="80" width="3" height="3" fill="#EAEBEB"/>
<rect x="230" y="90" width="3" height="3" fill="#EAEBEB"/>
<rect x="230" y="100" width="3" height="3" fill="#EAEBEB"/>
<rect x="230" y="110" width="3" height="3" fill="#EAEBEB"/>
<rect x="230" y="120" width="3" height="3" fill="#EAEBEB"/>
<rect x="230" y="130" width="3" height="3" fill="#EAEBEB"/>
<rect x="230" y="140" width="3" height="3" fill="#EAEBEB"/>
<rect x="240" width="3" height="3" fill="#EAEBEB"/>
<rect x="240" y="10" width="3" height="3" fill="#EAEBEB"/>
<rect x="240" y="20" width="3" height="3" fill="#EAEBEB"/>
<rect x="240" y="30" width="3" height="3" fill="#EAEBEB"/>
<rect x="240" y="40" width="3" height="3" fill="#EAEBEB"/>
<rect x="240" y="50" width="3" height="3" fill="#EAEBEB"/>
<rect x="240" y="60" width="3" height="3" fill="#EAEBEB"/>
<rect x="240" y="70" width="3" height="3" fill="#EAEBEB"/>
<rect x="240" y="80" width="3" height="3" fill="#EAEBEB"/>
<rect x="240" y="90" width="3" height="3" fill="#EAEBEB"/>
<rect x="240" y="100" width="3" height="3" fill="#EAEBEB"/>
<rect x="240" y="110" width="3" height="3" fill="#EAEBEB"/>
<rect x="240" y="120" width="3" height="3" fill="#EAEBEB"/>
<rect x="240" y="130" width="3" height="3" fill="#EAEBEB"/>
<rect x="240" y="140" width="3" height="3" fill="#EAEBEB"/>
<rect x="250" width="3" height="3" fill="#EAEBEB"/>
<rect x="250" y="10" width="3" height="3" fill="#EAEBEB"/>
<rect x="250" y="20" width="3" height="3" fill="#EAEBEB"/>
<rect x="250" y="30" width="3" height="3" fill="#EAEBEB"/>
<rect x="250" y="40" width="3" height="3" fill="#EAEBEB"/>
<rect x="250" y="50" width="3" height="3" fill="#EAEBEB"/>
<rect x="250" y="60" width="3" height="3" fill="#EAEBEB"/>
<rect x="250" y="70" width="3" height="3" fill="#EAEBEB"/>
<rect x="250" y="80" width="3" height="3" fill="#EAEBEB"/>
<rect x="250" y="90" width="3" height="3" fill="#EAEBEB"/>
<rect x="250" y="100" width="3" height="3" fill="#EAEBEB"/>
<rect x="250" y="110" width="3" height="3" fill="#EAEBEB"/>
<rect x="250" y="120" width="3" height="3" fill="#EAEBEB"/>
<rect x="250" y="130" width="3" height="3" fill="#EAEBEB"/>
<rect x="250" y="140" width="3" height="3" fill="#EAEBEB"/>
</svg>
